<svg width="84" height="63" viewBox="0 0 84 63" fill="none" xmlns="http://www.w3.org/2000/svg">
<path d="M0 63V17.1578H69.052C71.5654 17.1578 73.8363 17.6464 75.8646 18.6237C77.9371 19.5565 79.5686 20.8669 80.7591 22.5549C81.9938 24.2429 82.6111 26.1974 82.6111 28.4184C82.6111 30.6395 82.2363 32.4607 81.4867 33.8822C80.7371 35.3037 79.7229 36.4364 78.4442 37.2804C77.2095 38.08 75.8426 38.6796 74.3434 39.0794V39.3459C76.063 39.7013 77.6284 40.3232 79.0394 41.2116C80.4505 42.0556 81.5749 43.255 82.4127 44.8097C83.2505 46.3644 83.6694 48.3634 83.6694 50.8065C83.6694 53.2496 83.03 55.3818 81.7512 57.2031C80.5166 59.0243 78.819 60.4458 76.6583 61.4675C74.4977 62.4892 72.0945 63 69.4489 63H0ZM16.337 52.339H62.9008C64.0914 52.339 65.0615 51.9837 65.8111 51.2729C66.5607 50.5622 66.9355 49.4961 66.9355 48.0746C66.9355 47.4083 66.7591 46.8086 66.4063 46.2756C66.0977 45.6981 65.6347 45.2539 65.0174 44.943C64.4 44.632 63.6945 44.4765 62.9008 44.4765H16.337V52.339ZM16.337 35.0149H61.8426C62.6804 35.0149 63.3859 34.8595 63.9591 34.5485C64.5764 34.1931 65.0394 33.7045 65.3481 33.0826C65.7008 32.4607 65.8772 31.6834 65.8772 30.7505C65.8772 29.7733 65.4804 28.9515 64.6867 28.2852C63.893 27.5745 62.9449 27.2191 61.8426 27.2191H16.337V35.0149Z" fill="white"/>
<path d="M3.24396 10.4947H19.6661L16.9988 0.5H0.331032L3.24396 10.4947Z" fill="white"/>
<path d="M28.9466 10.4947H53.8972L51.3925 0.5H31.4838L28.9466 10.4947Z" fill="white"/>
<path d="M63.1777 10.4947H78.1111L81.024 0.5H65.8775L63.1777 10.4947Z" fill="white"/>
</svg>
