<svg width="128" height="128" viewBox="0 0 128 128" fill="none" xmlns="http://www.w3.org/2000/svg">
<path d="M64 128C99.3462 128 128 99.3462 128 64C128 28.6538 99.3462 0 64 0C28.6538 0 0 28.6538 0 64C0 99.3462 28.6538 128 64 128Z" fill="black"/>
<path d="M92.0831 53.9907H74.0095V72.0643H92.0831V53.9907Z" fill="white"/>
<path d="M55.9489 78.8355C55.9489 80.1773 55.551 81.4889 54.8056 82.6045C54.0601 83.7201 53.0006 84.5897 51.761 85.1031C50.5214 85.6166 49.1574 85.7509 47.8414 85.4892C46.5254 85.2274 45.3166 84.5813 44.3679 83.6325C43.4191 82.6838 42.773 81.475 42.5112 80.159C42.2495 78.843 42.3838 77.479 42.8973 76.2394C43.4107 74.9998 44.2803 73.9403 45.3959 73.1948C46.5115 72.4494 47.8231 72.0515 49.1649 72.0515H55.9489V53.9907H49.1649C44.251 53.9907 39.4476 55.4478 35.3618 58.1778C31.2761 60.9078 28.0917 64.788 26.2113 69.3278C24.3308 73.8676 23.8388 78.8631 24.7975 83.6825C25.7561 88.5019 28.1223 92.9288 31.597 96.4034C35.0716 99.878 39.4985 102.244 44.3179 103.203C49.1373 104.162 54.1328 103.67 58.6726 101.789C63.2124 99.9087 67.0926 96.7243 69.8226 92.6386C72.5525 88.5528 74.0097 83.7494 74.0097 78.8355V72.0515H55.9489V78.8355Z" fill="white"/>
<path d="M80.7935 44.9535H101.12V26.8799H80.7935C74.2064 26.8867 67.8909 29.5064 63.2331 34.1642C58.5753 38.8221 55.9555 45.1375 55.9487 51.7247V53.9903H74.0095V51.7247C74.0129 49.9277 74.7292 48.2054 76.001 46.9359C77.2729 45.6665 78.9965 44.9535 80.7935 44.9535V44.9535Z" fill="white"/>
<path d="M55.9487 72.0515H74.0095V53.9907H55.9487V72.0515Z" fill="black"/>
</svg>
