<svg width="128" height="128" viewBox="0 0 128 128" fill="none" xmlns="http://www.w3.org/2000/svg">
<circle cx="64" cy="64" r="64" fill="black"/>
<path d="M83.6892 33.4244L69.7092 54.1944C68.7425 55.6089 70.6016 57.3211 71.9401 56.13L85.697 44.1444C86.0688 43.8467 86.5893 44.07 86.5893 44.5911V82.0367C86.5893 82.5578 85.9201 82.7811 85.6226 82.4089L43.98 32.5311C42.6415 30.8933 40.7081 30 38.5516 30H37.0644C33.1976 30 30 33.2011 30 37.1467V89.8533C30 93.7989 33.1976 97 37.1387 97C39.5927 97 41.8979 95.7344 43.2364 93.5756L57.2164 72.8056C58.1831 71.3911 56.3241 69.6789 54.9856 70.87L41.2286 82.7811C40.8568 83.0789 40.3363 82.8556 40.3363 82.3344V44.9633C40.3363 44.4422 41.0055 44.2189 41.303 44.5911L82.9456 94.4689C84.2841 96.1067 86.2919 97 88.374 97H89.8613C93.8024 97 97 93.7989 97 89.8533V37.1467C96.9256 33.2011 93.7281 30 89.7869 30C87.333 30 85.0277 31.2656 83.6892 33.4244V33.4244Z" fill="white"/>
</svg>
