<svg width="128" height="128" viewBox="0 0 128 128" fill="none" xmlns="http://www.w3.org/2000/svg">
<circle cx="64" cy="64" r="64" fill="black"/>
<path d="M68.7861 31.921C64.35 34.4823 61.6177 39.2152 61.6177 44.3384C61.6177 47.1161 62.6055 49.6726 63.8665 52.0439C64.9268 54.0381 65.4629 57.739 61.8264 59.8387C59.1213 61.4003 55.7448 60.4116 54.0587 57.7126C52.6342 55.4329 50.9145 53.2974 48.5071 51.9071C44.071 49.3458 38.6055 49.3458 34.169 51.9071C29.7329 54.4684 27 59.2016 27 64.3242C27 69.4468 29.7329 74.1797 34.169 76.7413C38.6055 79.3026 44.071 79.3026 48.5071 76.7413C50.9139 75.3513 52.6335 73.2168 54.0574 70.939C55.2261 69.0678 58.1458 66.6836 61.8264 68.81C64.5271 70.3703 65.3626 73.79 63.8648 76.6061C62.6045 78.9768 61.6177 81.5329 61.6177 84.3107C61.6177 89.4326 64.35 94.1661 68.7861 96.7271C73.2226 99.2884 78.6881 99.2887 83.1245 96.7271C87.5606 94.1661 90.2932 89.4326 90.2932 84.3107C90.2932 79.1877 87.5606 74.4545 83.1245 71.8939C80.6974 70.4919 77.9639 70.0858 75.2568 69.9916C72.9848 69.9119 69.5958 68.4565 69.5958 64.3242C69.5958 61.2455 72.0919 58.7678 75.2574 58.6574C77.9652 58.5626 80.6977 58.1561 83.1245 56.7548C87.5606 54.1936 90.2932 49.4607 90.2932 44.3384C90.2932 39.2152 87.5606 34.4823 83.1245 31.921C80.9064 30.6403 78.431 30 75.9555 30C73.48 30 71.0045 30.6403 68.7861 31.921" fill="white"/>
</svg>
