<svg width="126" height="126" viewBox="0 0 126 126" fill="none" xmlns="http://www.w3.org/2000/svg">
<g clip-path="url(#clip0_42_53)">
<path d="M22.9521 64.9941H0C0.313941 75.4141 3.2144 85.5918 8.43949 94.6087H27.6451C24.6775 85.0119 23.0971 75.0393 22.9521 64.9941Z" fill="white"/>
<path d="M0 61.0452H22.9521C23.0843 51.002 24.6514 41.0293 27.6056 31.4307H8.43949C3.2144 40.4475 0.313941 50.6252 0 61.0452Z" fill="white"/>
<path d="M61.0084 126.197V98.5571H33.1267C39.2788 114.352 49.4535 124.934 61.0084 126.197Z" fill="white"/>
<path d="M64.9521 -0.157715V27.4825H92.8731C86.6816 11.6881 76.5465 1.10584 64.9521 -0.157715Z" fill="white"/>
<path d="M61.0085 94.6087V64.9941H26.8958C27.0159 75.0537 28.6512 85.0376 31.7464 94.6087H61.0085Z" fill="white"/>
<path d="M64.9521 61.0452H99.1436C99.0235 50.9856 97.3882 41.0017 94.293 31.4307H64.9916L64.9521 61.0452Z" fill="white"/>
<path d="M26.8958 61.0452H61.0085V31.4307H31.7464C28.6512 41.0017 27.0159 50.9856 26.8958 61.0452Z" fill="white"/>
<path d="M61.0084 -0.157715C49.4535 0.947895 39.2788 11.6881 33.1267 27.4825H61.0084V-0.157715Z" fill="white"/>
<path d="M126 64.9941H103.087C102.992 75.0405 101.424 85.0183 98.4338 94.6087H117.679C122.847 85.5745 125.706 75.4014 126 64.9941Z" fill="white"/>
<path d="M29.0252 98.5571H10.845C19.2369 110.879 31.7118 119.83 46.0618 123.828C38.2194 117.089 32.3343 108.36 29.0252 98.5571Z" fill="white"/>
<path d="M96.9746 98.5571C93.6655 108.36 87.7805 117.089 79.938 123.828C94.288 119.83 106.763 110.879 115.155 98.5571H96.9746Z" fill="white"/>
<path d="M29.0252 27.4825C32.3343 17.6797 38.2194 8.95033 46.0618 2.21143C31.7118 6.20918 19.2369 15.1609 10.845 27.4825H29.0252Z" fill="white"/>
<path d="M96.9746 27.4825H115.155C106.763 15.1609 94.288 6.20918 79.938 2.21143C87.7805 8.95033 93.6655 17.6797 96.9746 27.4825Z" fill="white"/>
<path d="M99.1437 64.9941H64.9917V94.6087H94.2931C97.3883 85.0376 99.0235 75.0537 99.1437 64.9941Z" fill="white"/>
<path d="M98.355 31.4307C101.345 41.021 102.913 50.9989 103.008 61.0452H126C125.682 50.6312 122.796 40.4577 117.6 31.4307H98.355Z" fill="white"/>
<path d="M92.8731 98.5571H64.9521V126.197C76.5465 124.934 86.6816 114.352 92.8731 98.5571Z" fill="white"/>
</g>
<defs>
<clipPath id="clip0_42_53">
<rect width="126" height="126" fill="white"/>
</clipPath>
</defs>
</svg>
