<svg width="935" height="116" viewBox="0 0 935 116" fill="none" xmlns="http://www.w3.org/2000/svg">
<circle cx="7.5" cy="108.5" r="7.5" fill="black"/>
<circle cx="927.5" cy="7.5" r="7.5" fill="black"/>
<path d="M927.707 15.2929C927.317 14.9024 926.683 14.9024 926.293 15.2929L919.929 21.6569C919.538 22.0474 919.538 22.6805 919.929 23.0711C920.319 23.4616 920.953 23.4616 921.343 23.0711L927 17.4142L932.657 23.0711C933.047 23.4616 933.681 23.4616 934.071 23.0711C934.462 22.6805 934.462 22.0474 934.071 21.6569L927.707 15.2929ZM7.2929 100.707C7.68341 101.098 8.31659 101.098 8.70709 100.707L15.071 94.3431C15.4616 93.9526 15.4616 93.3195 15.071 92.9289C14.6805 92.5384 14.0474 92.5384 13.6569 92.9289L8 98.5858L2.34314 92.9289C1.95263 92.5384 1.31945 92.5384 0.928952 92.9289C0.538388 93.3195 0.538388 93.9526 0.928952 94.3431L7.2929 100.707ZM926 16C926 35.6271 912.137 49.5202 887.156 59.0135C862.183 68.5043 826.416 73.4512 783.363 75.3056C697.281 79.0134 582.473 70.3483 467.578 61.3156C352.727 52.2862 237.789 42.8893 151.567 45.1644C108.468 46.3017 72.4454 50.3561 47.1688 58.8776C21.9274 67.3872 7 80.5137 7 100L9 100C9 81.8613 22.7913 69.2065 47.8077 60.7728C72.7889 52.3509 108.563 48.2999 151.62 47.1637C237.711 44.892 352.523 54.2763 467.422 63.3094C582.277 72.3392 697.219 81.0179 783.449 77.3038C826.553 75.4472 862.583 70.4918 887.867 60.883C913.145 51.2767 928 36.8729 928 16L926 16Z" fill="black"/>
</svg>
