<svg width="233" height="69" viewBox="0 0 233 69" fill="none" xmlns="http://www.w3.org/2000/svg">
<circle cx="7.5" cy="7.5" r="7.5" fill="black"/>
<circle cx="225.5" cy="60.5" r="7.5" fill="black"/>
<path d="M217.707 61.7071C218.098 61.3166 218.098 60.6834 217.707 60.2929L211.343 53.9289C210.953 53.5384 210.319 53.5384 209.929 53.9289C209.538 54.3195 209.538 54.9526 209.929 55.3431L215.586 61L209.929 66.6569C209.538 67.0474 209.538 67.6805 209.929 68.0711C210.319 68.4616 210.953 68.4616 211.343 68.0711L217.707 61.7071ZM14 9C65.8062 9 92.4744 22.1728 118.193 35.3894C144.012 48.6578 168.921 62 217 62V60C169.413 60 144.855 46.8422 119.107 33.6106C93.2589 20.3272 66.2604 7 14 7V9Z" fill="black"/>
</svg>
