<svg width="288" height="127" viewBox="0 0 288 127" fill="none" xmlns="http://www.w3.org/2000/svg">
<path d="M282.581 62.9378H277.909V53.4595H271.181V46.7782H264.454V40.097H257.727V33.4157H250.999V26.7251H244.272V20.0438H237.544V13.3626H230.817V6.68128H224.089V0H217.362V13.3719V26.7437H224.089V20.0624H230.817V26.7437H237.544V33.4343H244.272V40.1155H250.999V46.7968H257.727V53.4781H264.454V60.1594H271.181V62.9471H257.727V53.4688H250.999V46.7875H244.272V40.1062H237.544V33.425H230.817V26.7344H224.089V40.1062H230.817V46.7875H237.544V53.4688H244.272V60.1501H250.999V62.9378H237.544V53.4595H230.817V46.7782H224.089V40.097H217.362V53.4688H224.089V60.1501H230.817V62.9378H217.362V53.4595H210.634V62.9378H203.907V53.4595H197.18V62.9378H190.452V53.4595H183.725V62.9378H176.997V53.4595H170.27V62.9378H163.542V53.4595H156.815V62.9378H150.087V53.4595H143.36V62.9378H136.633V53.4595H129.905V62.9378H123.178V53.4595H116.45V62.9378H107.639V73.5219H104.275V62.9378H80.7293V73.5219H77.3656V62.9378H67.2744V73.5219H63.9107V62.9378H53.8196V73.5219H50.4558V62.9378H40.3647V73.5219H37.0009V62.9378H26.9098V73.5219H23.5461V62.9378H13.4549V73.5219H10.0912V62.9378H0V78.8372H8.81108V86.9031H15.5385V78.8372H16.8186V76.8672H20.1823V78.8372H22.266V86.9031H28.9934V93.5843H35.7209V100.275H42.4483V93.5843H49.1758V100.275V106.956H55.9032V113.637H62.6306V106.956H69.3581V113.637H76.0855V120.319H82.813V127H89.5404V113.675H82.813V106.993H76.0855V100.312H69.3581V93.6215H76.0855V100.312H82.813V106.993H89.5404V113.675H96.2679V106.993H102.995V113.675H109.723V106.993H116.45V113.675H123.178V106.993H129.905V113.675H136.633V106.993H143.36V113.675H150.087V106.993H156.815V113.675H163.542V106.993H170.27V113.675H176.997V106.993H183.725V113.675H190.452V106.993H197.18V113.675H203.907V106.993H210.634V113.675H217.362V106.993H224.089V113.675H230.817V106.993H237.544V113.675H244.272V106.993H250.999V113.675H257.727V106.993H264.454V113.675H271.181V106.993H277.909V113.675H284.636V120.356H288V80.2125H284.636V78.8372H288V62.9378H282.553H282.581ZM6.75549 66.8407V73.5219H3.39176V63.4861H6.75549V66.8407ZM30.3015 70.1766V63.4861H33.6652V73.5219H30.3015V70.1766ZM35.7489 80.2125H29.0214V78.8372H35.7489V80.2125ZM49.2038 80.2125H42.4764V78.8372H43.7564V76.8672H47.1201V78.8372H49.2038V80.2125ZM62.6587 96.9389V100.293H55.9312V93.6029H62.6587V96.9389ZM62.6587 80.2125H55.9312V78.8372H62.6587V80.2125ZM76.1136 80.2125H69.3861V78.8372H76.1136V80.2125ZM89.5685 80.2125H82.841V78.8372H89.5685V80.2125ZM94.2403 73.5219H90.8766V70.1766H94.2403V73.5219ZM103.051 80.2125H96.3239V78.8372H103.051V80.2125ZM116.506 80.2125H109.779V78.8372H116.506V80.2125ZM121.178 73.5219H117.814V70.1766H121.178V73.5219ZM129.989 80.2125H123.262V78.8372H129.989V80.2125ZM143.444 80.2125H136.717V78.8372H143.444V80.2125ZM156.899 80.2125H150.171V78.8372H156.899V80.2125ZM170.354 80.2125H163.626V78.8372H170.354V80.2125ZM183.809 80.2125H177.081V78.8372H183.809V80.2125ZM197.264 80.2125H190.536V78.8372H197.264V80.2125ZM210.719 80.2125H203.991V78.8372H210.719V80.2125ZM224.173 80.2125H217.446V78.8372H224.173V80.2125ZM237.628 80.2125H230.901V78.8372H237.628V80.2125ZM251.083 80.2125H244.356V78.8372H251.083V80.2125ZM264.538 80.2125H257.811V78.8372H264.538V80.2125ZM277.993 80.2125H271.265V78.8372H277.993V80.2125Z" fill="white"/>
</svg>
