<svg width="137" height="42" viewBox="0 0 137 42" fill="none" xmlns="http://www.w3.org/2000/svg">
<path d="M87.7802 7.2H86.4002V3.59999V0H84.1802H80.5802H79.2002V3.59999V7.2V10.8V14.4H80.5802H84.1802H86.4002V18V21.6V25.2V28.8V32.4V36H87.7802H91.3802H93.6002V32.4V28.8V25.2V21.6V18V14.4V10.8V7.2H91.3802H87.7802Z" fill="white"/>
<path d="M102.18 7.19995H100.8V10.8V14.3999V18V21.6V25.2V28.7999V32.3999V36H102.18H105.78H108V32.3999V28.7999V25.2V21.6V18V14.3999V10.8V7.19995H105.78H102.18Z" fill="white"/>
<path d="M116.58 7.19995H115.2V10.8V14.3999V18V21.6V25.2V28.7999V32.3999V36H116.58H120.18H122.4V32.3999V28.7999V25.2V21.6V18V14.3999V10.8V7.19995H120.18H116.58Z" fill="white"/>
<path d="M130.98 7.19995H129.6V10.8V14.3999V18V21.6V25.2V28.7999V32.3999V36H130.98H134.58H136.8V32.3999V28.7999V25.2V21.6V18V14.3999V10.8V7.19995H134.58H130.98Z" fill="white"/>
<path d="M28.8001 21.6V42H36.0001V14.3999H28.8001V7.19995H21.6001V21.6H28.8001Z" fill="white"/>
<path d="M50.4002 14.4001H43.2002V42.0002H50.4002V14.4001Z" fill="white"/>
<path d="M64.8001 14.4001H57.6001V42.0002H64.8001V14.4001Z" fill="white"/>
<path d="M79.2 14.4001H72V42.0002H79.2V14.4001Z" fill="white"/>
<path d="M7.2 32.4001V28.8001V25.2001V21.6001H4.98H1.38H0V25.2001V28.8001V32.4001V36.0001H1.38H4.98H7.2V32.4001Z" fill="white"/>
<path d="M15.7801 21.6001H14.4001V25.2001V28.8001V32.4001V36.0001H15.7801H19.3801H21.6001V32.4001V28.8001V25.2001V21.6001H19.3801H15.7801Z" fill="white"/>
<path d="M14.4002 36H7.2002V42H14.4002V36Z" fill="white"/>
</svg>
