<svg width="188" height="123" viewBox="0 0 188 123" fill="none" xmlns="http://www.w3.org/2000/svg">
<path d="M165.6 28.78V35.98H172.8V43.18V50.37H165.6V57.56H158.4V50.37H151.2V57.56H144V50.37H136.8V43.18H129.6V57.57V64.76H122.4V57.57V43.19H115.2V50.38H108V43.19H100.8V35.99H93.6V28.8H86.4V43.2H93.6V50.39V57.58H86.4V50.39H79.2V43.2V28.8H72V35.99H64.8V28.8H57.6V21.61H50.4V14.42H43.2V21.61H36V14.42H28.8V28.81V36H21.6V28.81V14.39H14.4V7.19998H7.19995V0H0V14.39H7.19995V21.58H14.4V28.77V35.96H7.19995V43.16V50.35V57.55H14.4V50.36V43.17H21.6V50.36V57.55H28.8V64.74H21.6V57.55H14.4V71.94H21.6V79.14H28.8V86.33H36V79.14H43.2V86.33H50.4V79.14H57.6V86.33H64.8V93.52H72V79.19V71.99H79.2V79.19V93.58H86.4V79.19V71.99H93.6V79.19V93.58H100.8V79.19V71.99H108V79.19V93.58H115.2V100.77H122.4V86.39H115.2V79.2V72H122.4V79.2H129.6V86.39V100.78H136.8V86.39V71.99V64.8H144V71.99V86.38V100.77H151.2V86.39V71.99V64.8H158.4V71.99V86.38V100.77H165.6V107.96V122.35H172.8V107.99V93.59H165.6V86.4V71.99V64.8H172.8V71.99V86.38H180V93.57V107.96V122.35H187.2V107.99V93.59V79.19H180V71.99V57.59V43.19V28.79H172.8V21.6H165.6V28.79V28.78ZM43.2 53.98V57.58V64.77H36V50.39H28.8V43.2H36V50.39H43.2V53.98ZM72 53.98V57.58V64.77H64.8V57.58V50.39H57.6V57.58V64.77H50.4V57.58V50.39H57.6V43.2H64.8V50.39H72V53.98Z" fill="black"/>
</svg>
