<svg width="101" height="90" viewBox="0 0 101 90" fill="none" xmlns="http://www.w3.org/2000/svg">
<path d="M39.15 72H36.15H35V75V78H36.15H39.15H41V72H39.15Z" fill="white"/>
<path d="M77 72V69V66H75.15H72.15H71V69V72V75V78H72.15H75.15H77V72Z" fill="white"/>
<path d="M17 84H15.15H12.15H11V85.0917V87V90H12.15H15.15H17V85.0917V84Z" fill="white"/>
<path d="M11 78H8.84167H5.34167H4V81V84H5.34167H8.84167H11V78Z" fill="white"/>
<path d="M23 75V72H21.15H18.15H17V78H18.15H21.15H23V75Z" fill="white"/>
<path d="M29 81V78H27.15H24.15H23V81V84H24.15H27.15H29V81Z" fill="white"/>
<path d="M35 87V85.0917V84H33.15H30.15H29V85.0917V90H30.15H33.15H35V87Z" fill="white"/>
<path d="M84.15 66H83V69V72V75V78H84.15H87.15H89V75V72V69V66H87.15H84.15Z" fill="white"/>
<path d="M4 78V72H2.34637H0V78H2.34637H4Z" fill="white"/>
<path d="M95 87V85.0917V84V81V78H93.15H90.15H89V81V84V85.0917V90H90.15H93.15H95V87Z" fill="white"/>
<path d="M83 87V85.0917V84V81V78H81.15H78.15H77V81V84V85.0917V87V90H78.15H81.15H83V87Z" fill="white"/>
<path d="M51.15 78H53V72V69V66H51.15H48.15H47V69V72V75V78H48.15H51.15Z" fill="white"/>
<path d="M53 72V78H54.15H57.15H59V75V72V69V66H57.15H54.15H53V69V72Z" fill="white"/>
<path d="M65 72V78H66.15H69.15H71V75V72V69V66H69.15H66.15H65V69V72Z" fill="white"/>
<path d="M89 72V75V78H90.15H93.15H95V75V72V69V66H93.15H90.15H89V69V72Z" fill="white"/>
<path d="M47 84V85.0917V87V90H48.15H51.15H53V87V85.0917V84V81V78H51.15H48.15H47V81V84Z" fill="white"/>
<path d="M65 84V81V78H63.15H60.15H59V81V84V85.0917V87V90H60.15H63.15H65V85.0917V84Z" fill="white"/>
<path d="M77 85.0917V84V81V78H75.15H72.15H71V81V84V85.0917V87V90H72.15H75.15H77V87V85.0917Z" fill="white"/>
<path d="M4.49838 18V21V24V30V33V36V42H5.65439H8.67007H10.5297V45V48H11.6857H14.7014H16.5611V54H17.7171H20.7328H22.5924V57V60H23.7484H26.7641H28.6238V63V66H29.7798H32.7955H34.6551V69V72H35.8111H38.8268H40.6865V78H41.8425H44.8582H46.7178V75V72V69V66H44.8582H41.8425H40.6865V60H38.8268H35.8111H34.6551V57V54H32.7955H29.7798H28.6238V48H26.7641H23.7484H22.5924V45V42H20.7328H17.7171H16.5611V36H14.7014H11.6857H10.5297V30V27V24V21V18H11.6857H14.7014H16.5611V21V24V30V33V36H17.7171H20.7328H22.5924V39V42H23.7484H26.7641H28.6238V45V48H29.7798H32.7955H34.6551V51V54H35.8111H38.8268H40.6865V57V60H41.8425H44.8582H46.7178V63V66H47.8739H50.8895H52.7492V63V60V57V54H50.8895H47.8739H46.7178V51V48H44.8582H41.8425H40.6865V45V42H38.8268H35.8111H34.6551V39V36H32.7955H29.7798H28.6238V33V30H26.7641H23.7484H22.5924V27V24V21V18H23.7484H26.7641H28.6238V21V24V30H29.7798H32.7955H34.6551V33V36H35.8111H38.8268H40.6865V42H41.8425H44.8582H46.7178V45V48H47.8739H50.8895H52.7492V54H53.9052H56.9209H58.7805V51V48V45V42H56.9209H53.9052H52.7492V39V36H50.8895H47.8739H46.7178V33V30H44.8582H41.8425H40.6865V24H38.8268H35.8111H34.6551V21V18H35.8111H38.8268H40.6865V21V24H41.8425H44.8582H46.7178V27V30H47.8739H50.8895H52.7492V33V36H53.9052H56.9209H58.7805V39V42H59.9366H62.9522H64.8119V36H65.9679H68.9836H70.8432V39V42H71.9993H75.0149H76.8746V39V36V33V30V24H78.0306H81.0463H82.906V27V30V33V36V39V42H84.062H87.0776H88.9373V36V33V30V27V24H90.0933H93.109H94.9687V27V30V33V36V39V42H96.1247H99.1403H101V39V36V33V30V24V21V18V15V12V10.7667V9V6H99.1403H96.1247H94.9687V9V10.7667V12H93.109H90.0933H88.9373V10.7667V9V6H87.0776H84.062H82.906V9V10.7667V12H81.0463H78.0306H76.8746V10.7667V9V6H75.0149H71.9993H70.8432V9V10.7667V12H68.9836H65.9679H64.8119V10.7667V9V6H62.9522H59.9366H58.7805V9V10.7667V12H56.9209H53.9052H52.7492V10.7667V9V6H50.8895H47.8739H46.7178V3V0H44.8582H41.8425H40.6865V6H38.8268H35.8111H34.6551V9V10.7667V12H32.7955H29.7798H28.6238V10.7667V9V6H26.7641H23.7484H22.5924V9V10.7667V12H20.7328H17.7171H16.5611V10.7667V9V6H14.7014H11.6857H10.5297V9V10.7667V12H8.67007H5.65439H4.49838V10.7667V9V6H2.63872H0V18H2.63872H4.49838Z" fill="white"/>
<path d="M4.53305 54V57V60H5.69796H8.73688H10.6109V63V66H11.7758H14.8147H16.6887V69V72H17.8536H20.8925H22.7665V75V78H23.9314H26.9704H28.8443V81V84H30.0093H33.0482H34.9222V85.0917V87V90H36.0871H39.126H41V85.0917V84V81V78H39.126H36.0871H34.9222V75V72H33.0482H30.0093H28.8443V69V66H26.9704H23.9314H22.7665V63V60H20.8925H17.8536H16.6887V57V54H14.8147H11.7758H10.6109V51V48H8.73688H5.69796H4.53305V45V42H2.65905H0V54H2.65905H4.53305Z" fill="white"/>
</svg>
