<svg width="862" height="27" viewBox="0 0 862 27" fill="none" xmlns="http://www.w3.org/2000/svg">
<path d="M10.9393 26.0607C11.5251 26.6464 12.4749 26.6464 13.0607 26.0607L22.6066 16.5147C23.1924 15.9289 23.1924 14.9792 22.6066 14.3934C22.0208 13.8076 21.0711 13.8076 20.4853 14.3934L12 22.8787L3.51472 14.3934C2.92893 13.8076 1.97918 13.8076 1.3934 14.3934C0.807611 14.9792 0.807611 15.9289 1.3934 16.5147L10.9393 26.0607ZM10.5 -6.55671e-08L10.5 25L13.5 25L13.5 6.55671e-08L10.5 -6.55671e-08Z" fill="black"/>
<path d="M388.939 26.0607C389.525 26.6464 390.475 26.6464 391.061 26.0607L400.607 16.5147C401.192 15.9289 401.192 14.9792 400.607 14.3934C400.021 13.8076 399.071 13.8076 398.485 14.3934L390 22.8787L381.515 14.3934C380.929 13.8076 379.979 13.8076 379.393 14.3934C378.808 14.9792 378.808 15.9289 379.393 16.5147L388.939 26.0607ZM388.5 -6.55671e-08L388.5 25L391.5 25L391.5 6.55671e-08L388.5 -6.55671e-08Z" fill="black"/>
<path d="M37.9393 26.0607C38.5251 26.6464 39.4749 26.6464 40.0607 26.0607L49.6066 16.5147C50.1924 15.9289 50.1924 14.9792 49.6066 14.3934C49.0208 13.8076 48.0711 13.8076 47.4853 14.3934L39 22.8787L30.5147 14.3934C29.9289 13.8076 28.9792 13.8076 28.3934 14.3934C27.8076 14.9792 27.8076 15.9289 28.3934 16.5147L37.9393 26.0607ZM37.5 -6.55671e-08L37.5 25L40.5 25L40.5 6.55671e-08L37.5 -6.55671e-08Z" fill="black"/>
<path d="M415.939 26.0607C416.525 26.6464 417.475 26.6464 418.061 26.0607L427.607 16.5147C428.192 15.9289 428.192 14.9792 427.607 14.3934C427.021 13.8076 426.071 13.8076 425.485 14.3934L417 22.8787L408.515 14.3934C407.929 13.8076 406.979 13.8076 406.393 14.3934C405.808 14.9792 405.808 15.9289 406.393 16.5147L415.939 26.0607ZM415.5 -6.55671e-08L415.5 25L418.5 25L418.5 6.55671e-08L415.5 -6.55671e-08Z" fill="black"/>
<path d="M64.9393 26.0607C65.5251 26.6464 66.4749 26.6464 67.0607 26.0607L76.6066 16.5147C77.1924 15.9289 77.1924 14.9792 76.6066 14.3934C76.0208 13.8076 75.0711 13.8076 74.4853 14.3934L66 22.8787L57.5147 14.3934C56.9289 13.8076 55.9792 13.8076 55.3934 14.3934C54.8076 14.9792 54.8076 15.9289 55.3934 16.5147L64.9393 26.0607ZM64.5 -6.55671e-08L64.5 25L67.5 25L67.5 6.55671e-08L64.5 -6.55671e-08Z" fill="black"/>
<path d="M442.939 26.0607C443.525 26.6464 444.475 26.6464 445.061 26.0607L454.607 16.5147C455.192 15.9289 455.192 14.9792 454.607 14.3934C454.021 13.8076 453.071 13.8076 452.485 14.3934L444 22.8787L435.515 14.3934C434.929 13.8076 433.979 13.8076 433.393 14.3934C432.808 14.9792 432.808 15.9289 433.393 16.5147L442.939 26.0607ZM442.5 -6.55671e-08L442.5 25L445.5 25L445.5 6.55671e-08L442.5 -6.55671e-08Z" fill="black"/>
<path d="M91.9393 26.0607C92.5251 26.6464 93.4749 26.6464 94.0607 26.0607L103.607 16.5147C104.192 15.9289 104.192 14.9792 103.607 14.3934C103.021 13.8076 102.071 13.8076 101.485 14.3934L93 22.8787L84.5147 14.3934C83.9289 13.8076 82.9792 13.8076 82.3934 14.3934C81.8076 14.9792 81.8076 15.9289 82.3934 16.5147L91.9393 26.0607ZM91.5 -6.55671e-08L91.5 25L94.5 25L94.5 6.55671e-08L91.5 -6.55671e-08Z" fill="black"/>
<path d="M469.939 26.0607C470.525 26.6464 471.475 26.6464 472.061 26.0607L481.607 16.5147C482.192 15.9289 482.192 14.9792 481.607 14.3934C481.021 13.8076 480.071 13.8076 479.485 14.3934L471 22.8787L462.515 14.3934C461.929 13.8076 460.979 13.8076 460.393 14.3934C459.808 14.9792 459.808 15.9289 460.393 16.5147L469.939 26.0607ZM469.5 -6.55671e-08L469.5 25L472.5 25L472.5 6.55671e-08L469.5 -6.55671e-08Z" fill="black"/>
<path d="M118.939 26.0607C119.525 26.6464 120.475 26.6464 121.061 26.0607L130.607 16.5147C131.192 15.9289 131.192 14.9792 130.607 14.3934C130.021 13.8076 129.071 13.8076 128.485 14.3934L120 22.8787L111.515 14.3934C110.929 13.8076 109.979 13.8076 109.393 14.3934C108.808 14.9792 108.808 15.9289 109.393 16.5147L118.939 26.0607ZM118.5 -6.55671e-08L118.5 25L121.5 25L121.5 6.55671e-08L118.5 -6.55671e-08Z" fill="black"/>
<path d="M496.939 26.0607C497.525 26.6464 498.475 26.6464 499.061 26.0607L508.607 16.5147C509.192 15.9289 509.192 14.9792 508.607 14.3934C508.021 13.8076 507.071 13.8076 506.485 14.3934L498 22.8787L489.515 14.3934C488.929 13.8076 487.979 13.8076 487.393 14.3934C486.808 14.9792 486.808 15.9289 487.393 16.5147L496.939 26.0607ZM496.5 -6.55671e-08L496.5 25L499.5 25L499.5 6.55671e-08L496.5 -6.55671e-08Z" fill="black"/>
<path d="M145.939 26.0607C146.525 26.6464 147.475 26.6464 148.061 26.0607L157.607 16.5147C158.192 15.9289 158.192 14.9792 157.607 14.3934C157.021 13.8076 156.071 13.8076 155.485 14.3934L147 22.8787L138.515 14.3934C137.929 13.8076 136.979 13.8076 136.393 14.3934C135.808 14.9792 135.808 15.9289 136.393 16.5147L145.939 26.0607ZM145.5 -6.55671e-08L145.5 25L148.5 25L148.5 6.55671e-08L145.5 -6.55671e-08Z" fill="black"/>
<path d="M523.939 26.0607C524.525 26.6464 525.475 26.6464 526.061 26.0607L535.607 16.5147C536.192 15.9289 536.192 14.9792 535.607 14.3934C535.021 13.8076 534.071 13.8076 533.485 14.3934L525 22.8787L516.515 14.3934C515.929 13.8076 514.979 13.8076 514.393 14.3934C513.808 14.9792 513.808 15.9289 514.393 16.5147L523.939 26.0607ZM523.5 -6.55671e-08L523.5 25L526.5 25L526.5 6.55671e-08L523.5 -6.55671e-08Z" fill="black"/>
<path d="M172.939 26.0607C173.525 26.6464 174.475 26.6464 175.061 26.0607L184.607 16.5147C185.192 15.9289 185.192 14.9792 184.607 14.3934C184.021 13.8076 183.071 13.8076 182.485 14.3934L174 22.8787L165.515 14.3934C164.929 13.8076 163.979 13.8076 163.393 14.3934C162.808 14.9792 162.808 15.9289 163.393 16.5147L172.939 26.0607ZM172.5 -6.55671e-08L172.5 25L175.5 25L175.5 6.55671e-08L172.5 -6.55671e-08Z" fill="black"/>
<path d="M550.939 26.0607C551.525 26.6464 552.475 26.6464 553.061 26.0607L562.607 16.5147C563.192 15.9289 563.192 14.9792 562.607 14.3934C562.021 13.8076 561.071 13.8076 560.485 14.3934L552 22.8787L543.515 14.3934C542.929 13.8076 541.979 13.8076 541.393 14.3934C540.808 14.9792 540.808 15.9289 541.393 16.5147L550.939 26.0607ZM550.5 -6.55671e-08L550.5 25L553.5 25L553.5 6.55671e-08L550.5 -6.55671e-08Z" fill="black"/>
<path d="M199.939 26.0607C200.525 26.6464 201.475 26.6464 202.061 26.0607L211.607 16.5147C212.192 15.9289 212.192 14.9792 211.607 14.3934C211.021 13.8076 210.071 13.8076 209.485 14.3934L201 22.8787L192.515 14.3934C191.929 13.8076 190.979 13.8076 190.393 14.3934C189.808 14.9792 189.808 15.9289 190.393 16.5147L199.939 26.0607ZM199.5 -6.55671e-08L199.5 25L202.5 25L202.5 6.55671e-08L199.5 -6.55671e-08Z" fill="black"/>
<path d="M577.939 26.0607C578.525 26.6464 579.475 26.6464 580.061 26.0607L589.607 16.5147C590.192 15.9289 590.192 14.9792 589.607 14.3934C589.021 13.8076 588.071 13.8076 587.485 14.3934L579 22.8787L570.515 14.3934C569.929 13.8076 568.979 13.8076 568.393 14.3934C567.808 14.9792 567.808 15.9289 568.393 16.5147L577.939 26.0607ZM577.5 -6.55671e-08L577.5 25L580.5 25L580.5 6.55671e-08L577.5 -6.55671e-08Z" fill="black"/>
<path d="M226.939 26.0607C227.525 26.6464 228.475 26.6464 229.061 26.0607L238.607 16.5147C239.192 15.9289 239.192 14.9792 238.607 14.3934C238.021 13.8076 237.071 13.8076 236.485 14.3934L228 22.8787L219.515 14.3934C218.929 13.8076 217.979 13.8076 217.393 14.3934C216.808 14.9792 216.808 15.9289 217.393 16.5147L226.939 26.0607ZM226.5 -6.55671e-08L226.5 25L229.5 25L229.5 6.55671e-08L226.5 -6.55671e-08Z" fill="black"/>
<path d="M604.939 26.0607C605.525 26.6464 606.475 26.6464 607.061 26.0607L616.607 16.5147C617.192 15.9289 617.192 14.9792 616.607 14.3934C616.021 13.8076 615.071 13.8076 614.485 14.3934L606 22.8787L597.515 14.3934C596.929 13.8076 595.979 13.8076 595.393 14.3934C594.808 14.9792 594.808 15.9289 595.393 16.5147L604.939 26.0607ZM604.5 -6.55671e-08L604.5 25L607.5 25L607.5 6.55671e-08L604.5 -6.55671e-08Z" fill="black"/>
<path d="M253.939 26.0607C254.525 26.6464 255.475 26.6464 256.061 26.0607L265.607 16.5147C266.192 15.9289 266.192 14.9792 265.607 14.3934C265.021 13.8076 264.071 13.8076 263.485 14.3934L255 22.8787L246.515 14.3934C245.929 13.8076 244.979 13.8076 244.393 14.3934C243.808 14.9792 243.808 15.9289 244.393 16.5147L253.939 26.0607ZM253.5 -6.55671e-08L253.5 25L256.5 25L256.5 6.55671e-08L253.5 -6.55671e-08Z" fill="black"/>
<path d="M631.939 26.0607C632.525 26.6464 633.475 26.6464 634.061 26.0607L643.607 16.5147C644.192 15.9289 644.192 14.9792 643.607 14.3934C643.021 13.8076 642.071 13.8076 641.485 14.3934L633 22.8787L624.515 14.3934C623.929 13.8076 622.979 13.8076 622.393 14.3934C621.808 14.9792 621.808 15.9289 622.393 16.5147L631.939 26.0607ZM631.5 -6.55671e-08L631.5 25L634.5 25L634.5 6.55671e-08L631.5 -6.55671e-08Z" fill="black"/>
<path d="M280.939 26.0607C281.525 26.6464 282.475 26.6464 283.061 26.0607L292.607 16.5147C293.192 15.9289 293.192 14.9792 292.607 14.3934C292.021 13.8076 291.071 13.8076 290.485 14.3934L282 22.8787L273.515 14.3934C272.929 13.8076 271.979 13.8076 271.393 14.3934C270.808 14.9792 270.808 15.9289 271.393 16.5147L280.939 26.0607ZM280.5 -6.55671e-08L280.5 25L283.5 25L283.5 6.55671e-08L280.5 -6.55671e-08Z" fill="black"/>
<path d="M658.939 26.0607C659.525 26.6464 660.475 26.6464 661.061 26.0607L670.607 16.5147C671.192 15.9289 671.192 14.9792 670.607 14.3934C670.021 13.8076 669.071 13.8076 668.485 14.3934L660 22.8787L651.515 14.3934C650.929 13.8076 649.979 13.8076 649.393 14.3934C648.808 14.9792 648.808 15.9289 649.393 16.5147L658.939 26.0607ZM658.5 -6.55671e-08L658.5 25L661.5 25L661.5 6.55671e-08L658.5 -6.55671e-08Z" fill="black"/>
<path d="M307.939 26.0607C308.525 26.6464 309.475 26.6464 310.061 26.0607L319.607 16.5147C320.192 15.9289 320.192 14.9792 319.607 14.3934C319.021 13.8076 318.071 13.8076 317.485 14.3934L309 22.8787L300.515 14.3934C299.929 13.8076 298.979 13.8076 298.393 14.3934C297.808 14.9792 297.808 15.9289 298.393 16.5147L307.939 26.0607ZM307.5 -6.55671e-08L307.5 25L310.5 25L310.5 6.55671e-08L307.5 -6.55671e-08Z" fill="black"/>
<path d="M685.939 26.0607C686.525 26.6464 687.475 26.6464 688.061 26.0607L697.607 16.5147C698.192 15.9289 698.192 14.9792 697.607 14.3934C697.021 13.8076 696.071 13.8076 695.485 14.3934L687 22.8787L678.515 14.3934C677.929 13.8076 676.979 13.8076 676.393 14.3934C675.808 14.9792 675.808 15.9289 676.393 16.5147L685.939 26.0607ZM685.5 -6.55671e-08L685.5 25L688.5 25L688.5 6.55671e-08L685.5 -6.55671e-08Z" fill="black"/>
<path d="M334.939 26.0607C335.525 26.6464 336.475 26.6464 337.061 26.0607L346.607 16.5147C347.192 15.9289 347.192 14.9792 346.607 14.3934C346.021 13.8076 345.071 13.8076 344.485 14.3934L336 22.8787L327.515 14.3934C326.929 13.8076 325.979 13.8076 325.393 14.3934C324.808 14.9792 324.808 15.9289 325.393 16.5147L334.939 26.0607ZM334.5 -6.55671e-08L334.5 25L337.5 25L337.5 6.55671e-08L334.5 -6.55671e-08Z" fill="black"/>
<path d="M712.939 26.0607C713.525 26.6464 714.475 26.6464 715.061 26.0607L724.607 16.5147C725.192 15.9289 725.192 14.9792 724.607 14.3934C724.021 13.8076 723.071 13.8076 722.485 14.3934L714 22.8787L705.515 14.3934C704.929 13.8076 703.979 13.8076 703.393 14.3934C702.808 14.9792 702.808 15.9289 703.393 16.5147L712.939 26.0607ZM712.5 -6.55671e-08L712.5 25L715.5 25L715.5 6.55671e-08L712.5 -6.55671e-08Z" fill="black"/>
<path d="M361.939 26.0607C362.525 26.6464 363.475 26.6464 364.061 26.0607L373.607 16.5147C374.192 15.9289 374.192 14.9792 373.607 14.3934C373.021 13.8076 372.071 13.8076 371.485 14.3934L363 22.8787L354.515 14.3934C353.929 13.8076 352.979 13.8076 352.393 14.3934C351.808 14.9792 351.808 15.9289 352.393 16.5147L361.939 26.0607ZM361.5 -6.55671e-08L361.5 25L364.5 25L364.5 6.55671e-08L361.5 -6.55671e-08Z" fill="black"/>
<path d="M739.939 26.0607C740.525 26.6464 741.475 26.6464 742.061 26.0607L751.607 16.5147C752.192 15.9289 752.192 14.9792 751.607 14.3934C751.021 13.8076 750.071 13.8076 749.485 14.3934L741 22.8787L732.515 14.3934C731.929 13.8076 730.979 13.8076 730.393 14.3934C729.808 14.9792 729.808 15.9289 730.393 16.5147L739.939 26.0607ZM739.5 -6.55671e-08L739.5 25L742.5 25L742.5 6.55671e-08L739.5 -6.55671e-08Z" fill="black"/>
<path d="M767.939 26.0607C768.525 26.6464 769.475 26.6464 770.061 26.0607L779.607 16.5147C780.192 15.9289 780.192 14.9792 779.607 14.3934C779.021 13.8076 778.071 13.8076 777.485 14.3934L769 22.8787L760.515 14.3934C759.929 13.8076 758.979 13.8076 758.393 14.3934C757.808 14.9792 757.808 15.9289 758.393 16.5147L767.939 26.0607ZM767.5 -6.55671e-08L767.5 25L770.5 25L770.5 6.55671e-08L767.5 -6.55671e-08Z" fill="black"/>
<path d="M794.939 26.0607C795.525 26.6464 796.475 26.6464 797.061 26.0607L806.607 16.5147C807.192 15.9289 807.192 14.9792 806.607 14.3934C806.021 13.8076 805.071 13.8076 804.485 14.3934L796 22.8787L787.515 14.3934C786.929 13.8076 785.979 13.8076 785.393 14.3934C784.808 14.9792 784.808 15.9289 785.393 16.5147L794.939 26.0607ZM794.5 -6.55671e-08L794.5 25L797.5 25L797.5 6.55671e-08L794.5 -6.55671e-08Z" fill="black"/>
<path d="M821.939 26.0607C822.525 26.6464 823.475 26.6464 824.061 26.0607L833.607 16.5147C834.192 15.9289 834.192 14.9792 833.607 14.3934C833.021 13.8076 832.071 13.8076 831.485 14.3934L823 22.8787L814.515 14.3934C813.929 13.8076 812.979 13.8076 812.393 14.3934C811.808 14.9792 811.808 15.9289 812.393 16.5147L821.939 26.0607ZM821.5 -6.55671e-08L821.5 25L824.5 25L824.5 6.55671e-08L821.5 -6.55671e-08Z" fill="black"/>
<path d="M848.939 26.0607C849.525 26.6464 850.475 26.6464 851.061 26.0607L860.607 16.5147C861.192 15.9289 861.192 14.9792 860.607 14.3934C860.021 13.8076 859.071 13.8076 858.485 14.3934L850 22.8787L841.515 14.3934C840.929 13.8076 839.979 13.8076 839.393 14.3934C838.808 14.9792 838.808 15.9289 839.393 16.5147L848.939 26.0607ZM848.5 -6.55671e-08L848.5 25L851.5 25L851.5 6.55671e-08L848.5 -6.55671e-08Z" fill="black"/>
</svg>
