<svg width="117" height="16" viewBox="0 0 117 16" fill="none" xmlns="http://www.w3.org/2000/svg">
<circle cx="109.5" cy="8.5" r="7.5" fill="black"/>
<circle cx="7.5" cy="8.5" r="7.5" fill="black"/>
<path d="M15.2929 7.29289C14.9024 7.68342 14.9024 8.31658 15.2929 8.70711L21.6569 15.0711C22.0474 15.4616 22.6805 15.4616 23.0711 15.0711C23.4616 14.6805 23.4616 14.0474 23.0711 13.6569L17.4142 8L23.0711 2.34315C23.4616 1.95262 23.4616 1.31946 23.0711 0.928932C22.6805 0.538407 22.0474 0.538407 21.6569 0.928932L15.2929 7.29289ZM101.707 8.7071C102.098 8.31657 102.098 7.68341 101.707 7.29289L95.3431 0.928925C94.9526 0.538401 94.3195 0.538401 93.9289 0.928925C93.5384 1.31945 93.5384 1.95261 93.9289 2.34314L99.5858 7.99999L93.9289 13.6568C93.5384 14.0474 93.5384 14.6805 93.9289 15.0711C94.3195 15.4616 94.9526 15.4616 95.3431 15.0711L101.707 8.7071ZM16 9L101 8.99999L101 6.99999L16 7L16 9Z" fill="black"/>
</svg>
