<svg width="124" height="65" viewBox="0 0 124 65" fill="none" xmlns="http://www.w3.org/2000/svg">
<path d="M1.38 0H0V3.6V7.2V10.8V14.07V14.4H1.38H1.48H4.98H7.2V10.8V3.6V0H4.98H1.38Z" fill="black"/>
<path d="M22.9799 7.2H21.5999V3.6V0H19.3799H15.7799H14.3999V3.6V7.2V10.8V14.4H15.7799H19.3799H21.5999V18V19.31V21.6H22.9799H26.5799H28.7999V21.24V18V14.4V10.8V7.2H26.5799H22.9799Z" fill="black"/>
<path d="M58.9801 21.6001H57.6001V25.2001V28.8001V29.9801V32.4001V36.0001V39.6001V43.2001V46.8001V50.4001H58.9801H62.5801H64.8001V43.2001V39.6001V36.0001V32.4301V32.4001V28.8001V25.2001V21.6001H62.5801H58.9801Z" fill="black"/>
<path d="M80.58 36H79.2V32.4V28.8H76.98H73.38H72V32.4V34.98V36V39.6V43.2H73.38H76.98H79.2V46.8V50.4H80.58H84.18H86.4V46.8V43.2V40.4V39.6V36H84.18H80.58Z" fill="black"/>
<path d="M100.8 46.8V46.23V43.2V39.6V36H98.5801H94.9801H93.6001V39.6V43.2V43.26V46.8V50.4H94.9801H98.5801H100.8V46.8Z" fill="black"/>
<path d="M122.4 50.4V43.21H115.2V36.02H108V50.41H115.2V57.61H122.4V55.87L123.77 56.52V53.41H122.4V50.4Z" fill="black"/>
<path d="M102.18 50.4001H100.8V53.4101V54.0002V57.6002V61.2001V64.8001H102.18H105.78H108V61.2001V57.6002V54.0002V53.4101V50.4001H105.78H102.18Z" fill="black"/>
</svg>
