<svg width="180" height="44" viewBox="0 0 180 44" fill="none" xmlns="http://www.w3.org/2000/svg">
<path d="M1.38 0H0V3.6V7.2V10.8V14.4H1.38H4.98001H7.20001V10.8V7.2V3.6V0H4.98001H1.38Z" fill="white"/>
<path d="M73.38 0H72V3.6V7.2V10.8V14.4V18V21.6V25.2V28.8H73.38H76.98H79.2V25.2V21.6V18V14.4V10.8V7.2V3.6V0H76.98H73.38Z" fill="white"/>
<path d="M98.5799 21.6H100.8V18V14.4V10.8V7.2H98.5799H94.9799H93.5999V3.6V0H91.3799H87.7799H86.3999V3.6V7.2V10.8V14.4H87.7799H91.3799H93.5999V18V21.6H94.9799H98.5799Z" fill="white"/>
<path d="M108 14.4002V18.0002V21.6002H109.38H112.98H115.2V18.0002V14.4002V10.8002V7.2002H112.98H109.38H108V10.8002V14.4002Z" fill="white"/>
<path d="M122.4 14.4002V18.0002V21.6002H123.78H127.38H129.6V18.0002V14.4002V10.8002V7.2002H127.38H123.78H122.4V10.8002V14.4002Z" fill="white"/>
<path d="M136.8 14.4002V18.0002V21.6002H138.18H141.78H144V18.0002V14.4002V10.8002V7.2002H141.78H138.18H136.8V10.8002V14.4002Z" fill="white"/>
<path d="M151.2 14.4002V18.0002V21.6002H152.58H156.18H158.4V18.0002V14.4002V10.8002V7.2002H156.18H152.58H151.2V10.8002V14.4002Z" fill="white"/>
<path d="M165.6 14.4002V18.0002V21.6002H166.98H170.58H172.8V18.0002V14.4002V10.8002V7.2002H170.58H166.98H165.6V10.8002V14.4002Z" fill="white"/>
<path d="M21.5999 25.2V21.6V18V14.4V10.8V7.2V3.6V0H19.3799H15.7799H14.3999V3.6V7.2V10.8V14.4V18V21.6V25.2V28.8H15.7799H19.3799H21.5999V25.2Z" fill="white"/>
<path d="M35.9998 25.2V21.6V18V14.4V10.8V7.2V3.6V0H33.7798H30.1798H28.7998V3.6V7.2V10.8V14.4V18V21.6V25.2V28.8H30.1798H33.7798H35.9998V25.2Z" fill="white"/>
<path d="M50.3999 25.2V21.6V18V14.4V10.8V7.2V3.6V0H48.1799H44.58H43.2V3.6V7.2V10.8V14.4V18V21.6V25.2V28.8H44.58H48.1799H50.3999V25.2Z" fill="white"/>
<path d="M64.7999 25.2V21.6V18V14.4V10.8V7.2V3.6V0H62.5799H58.9799H57.5999V3.6V7.2V10.8V14.4V18V21.6V25.2V28.8H58.9799H62.5799H64.7999V25.2Z" fill="white"/>
<path d="M91.3799 36.0001H93.5999V32.4001V28.8001V25.2001V21.6001H91.3799H87.7799H86.3999V25.2001V28.8001V32.4001V36.0001H87.7799H91.3799Z" fill="white"/>
<path d="M108 32.4001V28.8001V25.2001V21.6001H105.78H102.18H100.8V25.2001V28.8001V32.4001V36.0001H102.18H105.78H108V32.4001Z" fill="white"/>
<path d="M122.4 32.4001V28.8001V25.2001V21.6001H120.18H116.58H115.2V25.2001V28.8001V32.4001V36.0001H116.58H120.18H122.4V32.4001Z" fill="white"/>
<path d="M136.8 32.4001V28.8001V25.2001V21.6001H134.58H130.98H129.6V25.2001V28.8001V32.4001V36.0001H130.98H134.58H136.8V32.4001Z" fill="white"/>
<path d="M151.2 32.4001V28.8001V25.2001V21.6001H148.98H145.38H144V25.2001V28.8001V32.4001V36.0001H145.38H148.98H151.2V32.4001Z" fill="white"/>
<path d="M165.6 32.4001V28.8001V25.2001V21.6001H163.38H159.78H158.4V25.2001V28.8001V32.4001V36.0001H159.78H163.38H165.6V32.4001Z" fill="white"/>
<path d="M180 32.4001V28.8001V25.2001V21.6001H177.78H174.18H172.8V25.2001V28.8001V32.4001V36.0001H174.18H177.78H180V32.4001Z" fill="white"/>
<path d="M22.9799 28.8H21.5999V32.4V36V39.6V43.2H22.9799H26.5799H28.7999V39.6V36V32.4V28.8H26.5799H22.9799Z" fill="white"/>
<path d="M37.38 28.8H36V32.4V36V39.6V43.2H37.38H40.98H43.2V39.6V36V32.4V28.8H40.98H37.38Z" fill="white"/>
<path d="M51.7799 28.8H50.3999V32.4V36V39.6V43.2H51.7799H55.3799H57.5999V39.6V36V32.4V28.8H55.3799H51.7799Z" fill="white"/>
<path d="M66.1798 28.8H64.7998V32.4V36V39.6V43.2H66.1798H69.7798H71.9998V39.6V36V32.4V28.8H69.7798H66.1798Z" fill="white"/>
</svg>
