<svg width="231" height="44" viewBox="0 0 231 44" fill="none" xmlns="http://www.w3.org/2000/svg">
<path d="M223.2 43.5898L230.4 43.5898L230.4 35.9998L223.2 35.9998L223.2 43.5898Z" fill="black"/>
<path d="M208.8 43.5898L216 43.5898L216 35.9998L208.8 35.9998L208.8 43.5898Z" fill="black"/>
<path d="M194.4 43.5898L201.6 43.5898L201.6 35.9998L194.4 35.9998L194.4 43.5898Z" fill="black"/>
<path d="M180 43.5898L187.2 43.5898L187.2 35.9998L180 35.9998L180 43.5898Z" fill="black"/>
<path d="M165.6 43.5898L172.8 43.5898L172.8 35.9998L165.6 35.9998L165.6 43.5898Z" fill="black"/>
<path d="M151.2 43.5898L158.4 43.5898L158.4 35.9998L151.2 35.9998L151.2 43.5898Z" fill="black"/>
<path d="M136.8 43.5898L144 43.5898L144 35.9998L136.8 35.9998L136.8 43.5898Z" fill="black"/>
<path d="M221.82 35.9998L223.2 35.9998L223.2 32.3998L223.2 28.7998L223.2 25.1998L223.2 21.5998L221.82 21.5998L218.22 21.5998L216 21.5998L216 25.1998L216 28.7998L216 32.3998L216 35.9998L218.22 35.9998L221.82 35.9998Z" fill="black"/>
<path d="M180 28.7998L180 25.1998L180 21.5998L180 17.9998L180 14.3998L180 10.7998L180 7.19976L178.62 7.19976L175.02 7.19976L172.8 7.19976L172.8 10.7998L172.8 14.3998L172.8 17.9998L172.8 21.5998L172.8 25.1998L172.8 28.7998L172.8 32.3998L172.8 35.9998L175.02 35.9998L178.62 35.9998L180 35.9998L180 32.3998L180 28.7998Z" fill="black"/>
<path d="M165.6 28.7998L165.6 25.1998L165.6 21.5998L165.6 17.9998L165.6 14.3998L165.6 10.7998L165.6 7.19976L164.22 7.19976L160.62 7.19976L158.4 7.19976L158.4 10.7998L158.4 14.3998L158.4 17.9998L158.4 21.5998L158.4 25.1998L158.4 28.7998L158.4 32.3998L158.4 35.9998L160.62 35.9998L164.22 35.9998L165.6 35.9998L165.6 32.3998L165.6 28.7998Z" fill="black"/>
<path d="M136.8 28.7998L136.8 25.1998L136.8 21.5998L136.8 17.9998L136.8 14.3998L136.8 10.7998L136.8 7.19976L135.42 7.19976L131.82 7.19976L129.6 7.19976L129.6 10.7998L129.6 14.3998L129.6 17.9998L129.6 21.5998L129.6 25.1998L129.6 28.7998L129.6 32.3998L129.6 35.9998L131.82 35.9998L135.42 35.9998L136.8 35.9998L136.8 32.3998L136.8 28.7998Z" fill="black"/>
<path d="M108 28.7998L108 25.1998L108 21.5998L108 17.9998L108 14.3998L108 10.7998L108 7.19976L106.62 7.19976L103.02 7.19976L100.8 7.19976L100.8 3.59975L100.8 -0.00024477L99.42 -0.000244891L95.82 -0.000245205L93.6 -0.0002454L93.6 3.59975L93.6 7.19976L93.6 10.7998L93.6 14.3998L95.82 14.3998L99.42 14.3998L100.8 14.3998L100.8 17.9998L100.8 21.5998L100.8 25.1998L100.8 28.7998L100.8 32.3998L100.8 35.9998L103.02 35.9998L106.62 35.9998L108 35.9998L108 32.3998L108 28.7998Z" fill="black"/>
<path d="M93.5999 28.7998L93.5999 25.1998L93.5999 21.5998L92.2198 21.5998L88.6198 21.5998L86.3998 21.5998L86.3998 17.9998L86.3998 14.3998L86.3998 10.7998L86.3998 7.19976L86.3998 3.59975L86.3998 -0.00024477L85.0198 -0.000244891L81.4199 -0.000245205L79.1999 -0.0002454L79.1999 3.59975L79.1999 7.19976L79.1999 10.7998L79.1999 14.3998L79.1999 17.9998L79.1999 21.5998L79.1999 25.1998L79.1999 28.7998L81.4199 28.7998L85.0198 28.7998L86.3998 28.7998L86.3998 32.3998L86.3998 35.9998L88.6198 35.9998L92.2198 35.9998L93.5999 35.9998L93.5999 32.3998L93.5999 28.7998Z" fill="black"/>
<path d="M72 21.5998L72 17.9998L72 14.3998L72 10.7998L72 7.19981L72 3.5998L72 -0.00019455L70.62 -0.00019467L67.02 -0.000194985L64.8 -0.000195179L64.8 3.5998L64.8 7.19981L64.8 10.7998L64.8 14.3998L64.8 17.9998L64.8 21.5998L64.8 25.1998L64.8 28.7998L67.02 28.7998L70.62 28.7998L72 28.7998L72 25.1998L72 21.5998Z" fill="black"/>
<path d="M57.5999 21.5998L57.5999 17.9998L57.5999 14.3998L57.5999 10.7998L57.5999 7.19981L57.5999 3.5998L57.5999 -0.00019455L56.2199 -0.00019467L52.6198 -0.000194985L50.3998 -0.000195179L50.3998 3.5998L50.3998 7.19981L50.3998 10.7998L50.3998 14.3998L50.3998 17.9998L50.3998 21.5998L50.3998 25.1998L50.3998 28.7998L52.6198 28.7998L56.2198 28.7998L57.5999 28.7998L57.5999 25.1998L57.5999 21.5998Z" fill="black"/>
<path d="M43.2 21.5998L43.2 17.9998L43.2 14.3998L43.2 10.7998L43.2 7.19981L43.2 3.5998L43.2 -0.00019455L41.8199 -0.00019467L38.2199 -0.000194985L35.9999 -0.000195179L35.9999 3.5998L35.9999 7.19981L35.9999 10.7998L35.9999 14.3998L35.9999 17.9998L35.9999 21.5998L35.9999 25.1998L35.9999 28.7998L38.2199 28.7998L41.8199 28.7998L43.2 28.7998L43.2 25.1998L43.2 21.5998Z" fill="black"/>
<path d="M28.8 21.5998L28.8 17.9998L28.8001 14.3998L28.8001 10.7998L28.8001 7.19981L28.8001 3.5998L28.8001 -0.00019455L27.4201 -0.00019467L23.8201 -0.000194985L21.6001 -0.000195179L21.6001 3.5998L21.6001 7.19981L21.6001 10.7998L21.6001 14.3998L21.6001 17.9998L21.6001 21.5998L21.6001 25.1998L21.6001 28.7998L23.8201 28.7998L27.4201 28.7998L28.8 28.7998L28.8 25.1998L28.8 21.5998Z" fill="black"/>
<path d="M201.6 10.7998L201.6 14.3998L201.6 17.9998L201.6 21.5998L201.6 25.1998L201.6 28.7998L201.6 32.3998L201.6 35.9998L203.82 35.9998L207.42 35.9998L208.8 35.9998L208.8 32.3998L208.8 28.7998L208.8 25.1998L208.8 21.5998L208.8 17.9998L208.8 14.3998L208.8 10.7998L208.8 7.19976L207.42 7.19976L203.82 7.19976L201.6 7.19976L201.6 10.7998Z" fill="black"/>
<path d="M187.2 10.7998L187.2 14.3998L187.2 17.9998L187.2 21.5998L187.2 25.1998L187.2 28.7998L187.2 32.3998L187.2 35.9998L189.42 35.9998L193.02 35.9998L194.4 35.9998L194.4 32.3998L194.4 28.7998L194.4 25.1998L194.4 21.5998L194.4 17.9998L194.4 14.3998L194.4 10.7998L194.4 7.19976L193.02 7.19976L189.42 7.19976L187.2 7.19976L187.2 10.7998Z" fill="black"/>
<path d="M144 10.7998L144 14.3998L144 17.9998L144 21.5998L144 25.1998L144 28.7998L144 32.3998L144 35.9998L146.22 35.9998L149.82 35.9998L151.2 35.9998L151.2 32.3998L151.2 28.7998L151.2 25.1998L151.2 21.5998L151.2 17.9998L151.2 14.3998L151.2 10.7998L151.2 7.19976L149.82 7.19976L146.22 7.19976L144 7.19976L144 10.7998Z" fill="black"/>
<path d="M115.2 10.7998L115.2 14.3998L115.2 17.9998L115.2 21.5998L115.2 25.1998L115.2 28.7998L115.2 32.3998L115.2 35.9998L117.42 35.9998L121.02 35.9998L122.4 35.9998L122.4 32.3998L122.4 28.7998L122.4 25.1998L122.4 21.5998L122.4 17.9998L122.4 14.3998L122.4 10.7998L122.4 7.19976L121.02 7.19976L117.42 7.19976L115.2 7.19976L115.2 10.7998Z" fill="black"/>
<path d="M122.4 43.5898L129.6 43.5898L129.6 35.9998L122.4 35.9998L122.4 43.5898Z" fill="black"/>
<path d="M108 43.5898L115.2 43.5898L115.2 35.9998L108 35.9998L108 43.5898Z" fill="black"/>
<path d="M43.1999 43.5898L50.3999 43.5898L50.3999 28.7998L43.1999 28.7998L43.1999 43.5898Z" fill="black"/>
<path d="M57.6001 43.5898L64.8 43.5898L64.8001 28.7998L57.6001 28.7998L57.6001 43.5898Z" fill="black"/>
<path d="M28.8 43.5898L36 43.5898L36 28.7998L28.8 28.7998L28.8 43.5898Z" fill="black"/>
<path d="M79.1999 43.5898L86.3999 43.5898L86.3999 35.9998L79.1999 35.9998L79.1999 28.7998L71.9999 28.7998L71.9999 43.1998L79.1999 43.1998L79.1999 43.5898Z" fill="black"/>
<path d="M93.6001 43.5898L100.8 43.5898L100.8 35.9998L93.6001 35.9998L93.6001 43.5898Z" fill="black"/>
</svg>
