<svg width="322" height="288" viewBox="0 0 322 288" fill="none" xmlns="http://www.w3.org/2000/svg">
<path d="M480.57 259.6H473.37V252.4H466.17V266.8H458.97V252.4H451.77V266.8H444.57V252.4H451.77V230.8H444.57V245.2H437.37V259.6H430.17V245.2H437.37V238H430.17V230.8H422.97V206.02H420.97C420.89 205.93 420.8 205.85 420.71 205.76C419.53 204.56 418.31 203.38 417.11 202.18L416.92 201.99C415.79 200.86 414.66 199.73 413.51 198.6C412.36 197.47 411.12 196.28 409.91 195.12C409.8 195.01 409.69 194.9 409.57 194.8C409.23 194.46 408.88 194.14 408.57 193.8V194.8H401.37V166H394.17V194.8H386.97V166H379.77V151.6H372.57V166H365.37V151.6H372.57V144.4H365.37V137.2H358.17V130H350.97V137.2H343.77V130H336.57V115.6H329.37V122.8H322.17V115.6H314.97V108.4H307.77V99.71H305.54V97.59H301.94V99.71H300.57V108.4H293.37V99.71H283.94V82.6H294.74V94H298.34V82.6H309.14V94H312.74V82.6H323.54V94H327.14V82.6H337.94V94H341.54V82.6H352.34V94H355.94V82.6H366.74V94H370.34V82.6H395.54V94H399.14V82.6H408.57V72.4H415.77V58H422.97V50.8H415.77V36.4H408.57V65.2H401.37V79.6H394.17V65.2H386.97V79.6H379.77V65.2H372.57V79.6H365.37V65.2H358.17V79.6H350.97V65.2H343.77V36.4H336.57V50.8H329.37V36.4H322.17V7.60001H314.97V22H307.77V7.60001H300.57V0H178.17V7.60001H170.97V14.8H178.17V29.2H170.97V36.4H178.17V50.8H170.97V43.6H163.77V36.4H156.57V50.8H149.37V43.6H142.17V29.2H134.97V43.6H127.77V29.2H120.57V43.6H113.37V36.4H106.17V22H98.97V36.4H91.77V22H84.57V36.4H77.37V22H70.17V50.8H62.97V22H70.17V7.60001H77.37V0H0V94H5.37V22H12.57V94H19.77V22H26.97V94H34.17V22H41.37V94H48.57V86.8H55.77V94H62.97V101.2H70.17V94H77.37V101.2H84.57V94H91.77V101.2H98.97V94H106.17V101.2H113.37V94H120.57V137.2H127.77V94H134.97V137.2H142.17V94H149.37V137.2H156.57V94H163.77V137.2H170.97V94H178.17V130H185.37V115.6H192.57V130H185.37V137.2H192.57V151.6H199.77V122.8H206.97V151.6H214.17V122.8H221.37V144.4H228.57V130H235.77V144.4H228.57V151.6H235.77V166H242.97V137.2H250.17V166H257.37V137.2H264.57V158.8H271.77V144.4H278.97V158.8H271.77V166H278.97V180.4H286.17V151.6H293.37V180.4H300.57V151.6H307.77V173.2H314.97V158.8H322.17V173.2H329.37V158.8H336.57V173.2H329.37V180.4H336.57V230.8H343.77V274H336.57V238H329.37V216.4H322.17V245.2H329.37V274H322.17V252.4H314.97V281.2H307.77V252.4H300.57V281.2H293.37V252.4H286.17V281.2H278.97V252.4H271.77V281.2H264.57V259.6H257.37V287.2H487.77V266.8H480.57V259.6ZM55.77 79.6H48.57V22H55.77V79.6ZM192.57 79.6H185.37V50.8H192.57V79.6ZM214.17 79.6H206.97V72.4H199.77V58H206.97V65.2H214.17V79.6ZM251.54 85.71L250.17 85.06V86.8H242.97V79.6H235.77V94H228.57V79.6H221.37V65.2H228.57V79.6H235.77V65.2H242.97V72.4H250.17V82.6H251.54V85.71ZM265.94 92.76C264.74 92.15 263.55 91.53 262.34 90.93V83.19H258.74V89.19L255.14 87.44V82.62H265.94V92.76ZM273.14 96.46C271.95 95.83 270.75 95.2 269.54 94.58V82.58H273.14V96.46ZM280.34 99.71H279.34L276.78 98.36V82.6H280.38L280.34 99.71ZM386.97 274H379.77V202H372.57V274H365.37V202H358.17V274H350.97V223.6H343.77V166H350.97V202H358.17V173.2H365.37V202H372.57V173.2H379.77V202H386.97V274ZM401.37 274H394.17V202H401.37V274ZM422.97 252.4H415.77V266.8H408.57V252.4H415.77V245.2H408.57V202H415.77V238H422.97V252.4Z" fill="white"/>
</svg>
