<svg width="193" height="184" viewBox="0 0 193 184" fill="none" xmlns="http://www.w3.org/2000/svg">
<path d="M0 29.7664V0.510282H25.6413C27.2817 0.510282 28.7638 0.822121 30.0875 1.4458C31.4401 2.04112 32.5049 2.87742 33.2819 3.95468C34.0877 5.03194 34.4906 6.27929 34.4906 7.69674C34.4906 9.11419 34.246 10.2765 33.7568 11.1837C33.2675 12.0908 32.6056 12.8137 31.7711 13.3524C30.9653 13.8626 30.0732 14.2453 29.0947 14.5005V14.6706C30.2171 14.8974 31.2387 15.2943 32.1596 15.8612C33.0805 16.3999 33.8143 17.1653 34.3611 18.1575C34.9079 19.1497 35.1813 20.4254 35.1813 21.9846C35.1813 23.5438 34.764 24.9046 33.9294 26.0669C33.1236 27.2292 32.0157 28.1363 30.6056 28.7884C29.1954 29.4404 27.627 29.7664 25.9003 29.7664H0ZM10.6623 22.9626H21.6268C22.4038 22.9626 23.0369 22.7359 23.5261 22.2823C24.0154 21.8287 24.26 21.1483 24.26 20.2411C24.26 19.8159 24.1449 19.4332 23.9146 19.093C23.7132 18.7245 23.411 18.441 23.0081 18.2425C22.6052 18.0441 22.1448 17.9449 21.6268 17.9449H10.6623V22.9626ZM10.6623 11.9066H20.9361C21.4829 11.9066 21.9433 11.8073 22.3174 11.6089C22.7203 11.3821 23.0225 11.0703 23.224 10.6734C23.4542 10.2765 23.5693 9.78039 23.5693 9.18506C23.5693 8.56138 23.3103 8.03693 22.7923 7.61169C22.2743 7.15811 21.6556 6.93132 20.9361 6.93132H10.6623V11.9066Z" fill="black"/>
<path d="M40.132 29.7664V0.510282H50.7943V21.7295H70.0469V29.7664H40.132Z" fill="black"/>
<path d="M71.2181 29.7664L85.5928 0.510282H97.3343L111.709 29.7664H100.27L98.4998 25.8968H83.9525L82.2258 29.7664H71.2181ZM87.19 18.6253H95.2623L93.1903 13.6925C93.1039 13.4658 92.9888 13.1681 92.8449 12.7996C92.701 12.4027 92.5427 11.9633 92.3701 11.4813C92.1974 10.9994 92.0247 10.5175 91.8521 10.0355C91.7082 9.5536 91.5643 9.11419 91.4204 8.7173H91.1182C90.9456 9.19923 90.7441 9.75204 90.5139 10.3757C90.2837 10.9994 90.0534 11.6089 89.8232 12.2042C89.6218 12.7996 89.4347 13.2957 89.262 13.6925L87.19 18.6253Z" fill="black"/>
<path d="M131.353 30.2767C127.065 30.2767 123.511 29.7097 120.69 28.5757C117.87 27.4134 115.755 25.7125 114.345 23.4729C112.964 21.2334 112.273 18.4552 112.273 15.1383C112.273 10.2907 113.899 6.56278 117.151 3.95468C120.403 1.31823 125.165 0 131.439 0C134.892 0 137.929 0.53863 140.547 1.61589C143.166 2.6648 145.209 4.13895 146.677 6.03833C148.174 7.90936 148.922 10.0781 148.922 12.5444H138.562C138.562 11.5238 138.26 10.6167 137.655 9.82291C137.051 9.02914 136.202 8.40546 135.108 7.95188C134.015 7.4983 132.734 7.2715 131.266 7.2715C129.425 7.2715 127.899 7.59752 126.691 8.24954C125.511 8.90157 124.633 9.78039 124.058 10.886C123.511 11.9916 123.237 13.2248 123.237 14.5855V15.6486C123.237 16.9527 123.511 18.1717 124.058 19.3056C124.633 20.4112 125.496 21.3042 126.648 21.9846C127.799 22.665 129.266 23.0052 131.051 23.0052C132.691 23.0052 134.087 22.7926 135.238 22.3673C136.418 21.9421 137.31 21.3468 137.914 20.5813C138.547 19.8159 138.864 18.9229 138.864 17.9024H148.922C148.922 20.2837 148.217 22.4098 146.807 24.2809C145.425 26.1519 143.425 27.6261 140.806 28.7033C138.188 29.7522 135.036 30.2767 131.353 30.2767Z" fill="black"/>
<path d="M154.078 29.7664V0.510282H164.741V13.4374L179.115 0.510282H192.324L179.202 12.4594L192.67 29.7664H179.676L171.345 18.7528L164.741 24.0257V29.7664H154.078Z" fill="black"/>
<path d="M192.67 29.3594H0V140.994L192.67 184V29.3594Z" fill="black"/>
<path d="M18.5428 70.6458L10.092 41.2866H20.6346L24.0651 54.302C24.2604 54.9847 24.4277 55.6533 24.5672 56.3076C24.7066 56.9619 24.8321 57.5594 24.9437 58.0999C25.0552 58.612 25.1389 59.0245 25.1947 59.3374H25.4875C25.5433 59.0245 25.6131 58.6546 25.6967 58.2279C25.7804 57.8012 25.8641 57.3602 25.9477 56.905C26.0314 56.4499 26.129 55.9947 26.2406 55.5395C26.3521 55.0843 26.4498 54.6718 26.5334 54.302L29.7966 41.2866H42.3891L45.6105 54.302C45.7499 54.814 45.8754 55.383 45.987 56.0089C46.1264 56.6063 46.2519 57.2037 46.3635 57.8012C46.4751 58.3986 46.5727 58.9107 46.6564 59.3374H46.9492C47.005 58.996 47.0747 58.612 47.1584 58.1852C47.27 57.7585 47.3676 57.3175 47.4512 56.8624C47.5628 56.4072 47.6744 55.9662 47.7859 55.5395C47.8975 55.0843 47.9951 54.6718 48.0788 54.302L51.5511 41.2866H61.1315L52.6807 70.6458H40.7994L36.6577 54.1313C36.5461 53.6476 36.4206 53.164 36.2811 52.6804C36.1696 52.1968 36.072 51.7558 35.9883 51.3575C35.9046 50.9592 35.8349 50.6463 35.7791 50.4187H35.4863C35.4026 50.7601 35.305 51.1584 35.1934 51.6136C35.0818 52.0687 34.9703 52.5239 34.8587 52.9791C34.775 53.4058 34.6914 53.7899 34.6077 54.1313L30.4241 70.6458H18.5428Z" fill="white"/>
<path d="M58.7534 70.6458L72.6846 41.2866H84.0639L97.9952 70.6458H86.9088L85.1935 66.7626H71.0949L69.4215 70.6458H58.7534ZM74.2326 59.4654H82.0558L80.0477 54.5153C79.964 54.2877 79.8525 53.989 79.713 53.6192C79.5736 53.2209 79.4202 52.78 79.2528 52.2963C79.0855 51.8127 78.9182 51.3291 78.7508 50.8454C78.6114 50.3618 78.4719 49.9208 78.3325 49.5226H78.0396C77.8723 50.0062 77.677 50.5609 77.4539 51.1868C77.2308 51.8127 77.0077 52.4243 76.7845 53.0218C76.5893 53.6192 76.408 54.117 76.2407 54.5153L74.2326 59.4654Z" fill="white"/>
<path d="M101.43 70.6458V41.2866H111.763V62.5806H130.422V70.6458H101.43Z" fill="white"/>
<path d="M134.318 70.6458V41.2866H144.652V62.5806H163.31V70.6458H134.318Z" fill="white"/>
</svg>
