<svg width="960" height="60" viewBox="0 0 960 60" fill="none" xmlns="http://www.w3.org/2000/svg">
<path d="M942 0H962V20H942V0Z" fill="white"/>
<path d="M514 0H534V20H514V0Z" fill="white"/>
<path d="M751 0H771V20H751V0Z" fill="white"/>
<path d="M323 0H343V20H323V0Z" fill="white"/>
<path d="M942 40H962V60H942V40Z" fill="white"/>
<path d="M514 40H534V60H514V40Z" fill="white"/>
<path d="M751 40H771V60H751V40Z" fill="white"/>
<path d="M922 20H942V40H922V20Z" fill="white"/>
<path d="M494 20H514V40H494V20Z" fill="white"/>
<path d="M699 0H718V20H699V0Z" fill="white"/>
<path d="M251 0H290V20H251V0Z" fill="white"/>
<path d="M837 0H857V20H837V0Z" fill="white"/>
<path d="M409 0H429V20H409V0Z" fill="white"/>
<path d="M699 40H718V60H699V40Z" fill="white"/>
<path d="M271 40H290V60H271V40Z" fill="white"/>
<path d="M784 40H804V60H784V40Z" fill="white"/>
<path d="M356 40H376V60H356V40Z" fill="white"/>
<path d="M824 20H837V40H824V20Z" fill="white"/>
<path d="M804 0H824V20H804V0Z" fill="white"/>
<path d="M376 0H396V20H376V0Z" fill="white"/>
<path d="M659 0H679V20H659V0Z" fill="white"/>
<path d="M231 0H251V20H231V0Z" fill="white"/>
<path d="M620 0H670V20H620V0Z" fill="white"/>
<path d="M192 0H211V20H192V0Z" fill="white"/>
<path d="M567 0H587V20H567V0Z" fill="white"/>
<path d="M139 0H159V20H139V0Z" fill="white"/>
<path d="M93 0H113V20H93V0Z" fill="white"/>
<path d="M659 40H679V60H659V40Z" fill="white"/>
<path d="M231 40H251V60H231V40Z" fill="white"/>
<path d="M620 40H639V60H620V40Z" fill="white"/>
<path d="M679 20H699V40H679V20Z" fill="white"/>
<path d="M639 20H659V40H639V20Z" fill="white"/>
<path d="M211 20H231V40H211V20Z" fill="white"/>
<path d="M73 20H93V40H73V20Z" fill="white"/>
<path d="M0 20H20V40H0V20Z" fill="white"/>
<path d="M890 0H922V20H890V0Z" fill="white"/>
<path d="M462 0H494V20H462V0Z" fill="white"/>
<path d="M587 20H620V40H587V20Z" fill="white"/>
<path d="M159 20H192V40H159V20Z" fill="white"/>
<path d="M771 20H804V40H771V20Z" fill="white"/>
<path d="M343 20H376V40H343V20Z" fill="white"/>
<path d="M890 40H922V60H890V40Z" fill="white"/>
<path d="M462 40H494V60H462V40Z" fill="white"/>
<path d="M718 20H751V40H718V20Z" fill="white"/>
<path d="M290 20H323V40H290V20Z" fill="white"/>
<path d="M857 20H890V40H857V20Z" fill="white"/>
<path d="M429 20H462V40H429V20Z" fill="white"/>
<path d="M534 20H567V40H534V20Z" fill="white"/>
<path d="M106 20H139V40H106V20Z" fill="white"/>
<path d="M40 0H73V20H40V0Z" fill="white"/>
<path d="M824 40H857V60H824V40Z" fill="white"/>
<path d="M567 40H600V60H567V40Z" fill="white"/>
</svg>
