<svg width="839" height="287" viewBox="0 0 839 287" fill="none" xmlns="http://www.w3.org/2000/svg">
<path d="M2 196.135H199.595C233.051 196.135 265.133 182.829 288.769 159.151L303.349 144.545C352.573 95.2337 432.474 95.2336 481.698 144.545L512.783 175.685C562.007 224.997 641.908 224.997 691.132 175.685L777.331 89.3331C826.555 40.0215 906.456 40.0215 955.68 89.3331L1151 285" stroke="white" stroke-width="3" stroke-linecap="round"/>
<path d="M727.477 114C727.477 113.448 727.029 113 726.477 113L717.477 113C716.924 113 716.477 113.448 716.477 114C716.477 114.552 716.924 115 717.477 115L725.477 115L725.477 123C725.477 123.552 725.924 124 726.477 124C727.029 124 727.477 123.552 727.477 123L727.477 114ZM689.707 152.184L727.184 114.707L725.77 113.293L688.293 150.77L689.707 152.184Z" fill="white"/>
<circle cx="708" cy="133" r="7" fill="white"/>
</svg>
