<svg width="100" height="96" viewBox="0 0 100 96" fill="none" xmlns="http://www.w3.org/2000/svg">
<path d="M0 15.4494V0.264848H13.3084C14.1598 0.264848 14.929 0.426699 15.6161 0.750402C16.3181 1.05939 16.8708 1.49345 17.2741 2.05257C17.6923 2.61169 17.9014 3.2591 17.9014 3.99478C17.9014 4.73047 17.7744 5.33373 17.5205 5.80457C17.2666 6.27541 16.9231 6.65062 16.4899 6.93018C16.0717 7.19502 15.6087 7.39366 15.1008 7.52608V7.61437C15.6833 7.73208 16.2136 7.93807 16.6916 8.23234C17.1695 8.5119 17.5504 8.90918 17.8342 9.42416C18.118 9.93914 18.2599 10.6013 18.2599 11.4105C18.2599 12.2198 18.0433 12.926 17.6101 13.5293C17.1919 14.1326 16.6169 14.6034 15.885 14.9418C15.1531 15.2802 14.3391 15.4494 13.4429 15.4494H0ZM5.53398 11.9181H11.2248C11.6281 11.9181 11.9567 11.8004 12.2106 11.565C12.4645 11.3296 12.5915 10.9765 12.5915 10.5056C12.5915 10.2849 12.5317 10.0863 12.4122 9.90971C12.3077 9.71843 12.1509 9.57129 11.9417 9.4683C11.7326 9.3653 11.4936 9.3138 11.2248 9.3138H5.53398V11.9181ZM5.53398 6.17978H10.8663C11.1501 6.17978 11.3891 6.12828 11.5833 6.02528C11.7924 5.90757 11.9492 5.74572 12.0538 5.53973C12.1733 5.33373 12.233 5.07624 12.233 4.76726C12.233 4.44355 12.0986 4.17135 11.8297 3.95064C11.5609 3.71522 11.2397 3.59751 10.8663 3.59751H5.53398V6.17978Z" fill="black"/>
<path d="M20.8294 15.4494V0.264848H26.3634V11.2781H36.3559V15.4494H20.8294Z" fill="black"/>
<path d="M36.9638 15.4494L44.4246 0.264848H50.5187L57.9795 15.4494H52.0422L51.1236 13.441H43.5732L42.6771 15.4494H36.9638ZM45.2536 9.66693H49.4433L48.3679 7.10674C48.3231 6.98903 48.2633 6.83454 48.1886 6.64326C48.1139 6.43727 48.0318 6.2092 47.9422 5.95907C47.8526 5.70894 47.7629 5.4588 47.6733 5.20867C47.5986 4.95853 47.5239 4.73047 47.4493 4.52448H47.2924C47.2028 4.77461 47.0983 5.06153 46.9788 5.38523C46.8593 5.70894 46.7398 6.02528 46.6203 6.33427C46.5157 6.64326 46.4186 6.90075 46.329 7.10674L45.2536 9.66693Z" fill="black"/>
<path d="M68.1751 15.7143C65.9495 15.7143 64.1049 15.42 62.6411 14.8315C61.1773 14.2282 60.0795 13.3454 59.3476 12.183C58.6306 11.0206 58.2722 9.57865 58.2722 7.85714C58.2722 5.34109 59.1161 3.40623 60.8039 2.05257C62.4917 0.684189 64.9637 0 68.2199 0C70.0123 0 71.5881 0.279561 72.9473 0.838683C74.3065 1.38309 75.367 2.14821 76.1288 3.13403C76.9055 4.10514 77.2938 5.23074 77.2938 6.51083H71.9167C71.9167 5.98114 71.7598 5.5103 71.4462 5.09831C71.1325 4.68633 70.6919 4.36263 70.1243 4.12721C69.5567 3.89179 68.892 3.77408 68.1303 3.77408C67.1743 3.77408 66.3827 3.94328 65.7554 4.2817C65.143 4.62012 64.6874 5.07624 64.3887 5.65008C64.1049 6.22392 63.963 6.86396 63.963 7.57022V8.12199C63.963 8.79882 64.1049 9.43151 64.3887 10.0201C64.6874 10.5939 65.1355 11.0574 65.733 11.4105C66.3304 11.7636 67.0922 11.9402 68.0182 11.9402C68.8696 11.9402 69.594 11.8299 70.1915 11.6091C70.8039 11.3884 71.2669 11.0795 71.5806 10.6822C71.9092 10.2849 72.0735 9.82143 72.0735 9.29173H77.2938C77.2938 10.5277 76.9279 11.6312 76.196 12.6023C75.479 13.5734 74.4409 14.3385 73.0817 14.8977C71.7225 15.4421 70.087 15.7143 68.1751 15.7143Z" fill="black"/>
<path d="M79.9701 15.4494V0.264848H85.5041V6.97432L92.9649 0.264848H99.8208L93.0097 6.46669L100 15.4494H93.2562L88.932 9.73315L85.5041 12.4699V15.4494H79.9701Z" fill="black"/>
<path d="M100 15.2381H0V73.1792L100 95.5V15.2381Z" fill="black"/>
<path d="M9.62419 36.6667L5.23804 21.4286H10.7099L12.4904 28.1838C12.5917 28.5382 12.6786 28.8852 12.751 29.2248C12.8233 29.5644 12.8885 29.8745 12.9464 30.1551C13.0043 30.4208 13.0477 30.6349 13.0767 30.7974H13.2287C13.2576 30.6349 13.2938 30.443 13.3372 30.2215C13.3807 30 13.4241 29.7712 13.4675 29.5349C13.5109 29.2987 13.5616 29.0624 13.6195 28.8262C13.6774 28.5899 13.7281 28.3758 13.7715 28.1838L15.4652 21.4286H22.001L23.6729 28.1838C23.7453 28.4496 23.8104 28.7449 23.8683 29.0698C23.9407 29.3799 24.0059 29.6899 24.0638 30C24.1217 30.3101 24.1723 30.5759 24.2158 30.7974H24.3678C24.3967 30.6202 24.4329 30.4208 24.4763 30.1994C24.5342 29.9779 24.5849 29.749 24.6283 29.5128C24.6862 29.2765 24.7441 29.0476 24.802 28.8262C24.8599 28.5899 24.9106 28.3758 24.954 28.1838L26.7563 21.4286H31.7287L27.3425 36.6667H21.1758L19.0262 28.0953C18.9683 27.8442 18.9032 27.5932 18.8308 27.3422C18.7729 27.0912 18.7222 26.8623 18.6788 26.6556C18.6354 26.4489 18.5992 26.2865 18.5702 26.1683H18.4182C18.3748 26.3455 18.3241 26.5523 18.2662 26.7885C18.2083 27.0248 18.1504 27.261 18.0925 27.4972C18.0491 27.7187 18.0057 27.9181 17.9622 28.0953L15.7909 36.6667H9.62419Z" fill="white"/>
<path d="M30.4944 36.6667L37.725 21.4286H43.6311L50.8618 36.6667H45.1077L44.2174 34.6512H36.8999L36.0314 36.6667H30.4944ZM38.5284 30.8638H42.5889L41.5466 28.2946C41.5032 28.1765 41.4453 28.0214 41.3729 27.8295C41.3005 27.6228 41.2209 27.3939 41.1341 27.1429C41.0472 26.8919 40.9604 26.6408 40.8735 26.3898C40.8011 26.1388 40.7287 25.9099 40.6564 25.7032H40.5044C40.4175 25.9542 40.3162 26.2422 40.2004 26.567C40.0846 26.8919 39.9688 27.2093 39.853 27.5194C39.7516 27.8295 39.6575 28.0879 39.5707 28.2946L38.5284 30.8638Z" fill="white"/>
<path d="M52.6445 36.6667V21.4286H58.0078V32.4806H67.6921V36.6667H52.6445Z" fill="white"/>
<path d="M69.7143 36.6667V21.4286H75.0776V32.4806H84.7618V36.6667H69.7143Z" fill="white"/>
</svg>
