<svg width="720" height="122" viewBox="0 0 720 122" fill="none" xmlns="http://www.w3.org/2000/svg">
<g clip-path="url(#clip0_35_2541)">
<path d="M-5.68248e-06 0L0 122L15.3846 122L15.3846 -6.31099e-07L-5.68248e-06 0Z" fill="black"/>
<path d="M16.9231 0L16.9231 122L30.3231 122L30.3231 -5.49687e-07L16.9231 0Z" fill="black"/>
<path d="M33.8462 0L33.8462 122L45.277 122L45.277 -4.68907e-07L33.8462 0Z" fill="black"/>
<path d="M50.7693 0L50.7693 122L60.2154 122L60.2154 -3.87495e-07L50.7693 0Z" fill="black"/>
<path d="M67.6924 0L67.6924 122L75.1693 122L75.1693 -3.06714e-07L67.6924 0Z" fill="black"/>
<path d="M84.6155 0L84.6155 122L90.1078 122L90.1078 -2.25302e-07L84.6155 0Z" fill="black"/>
<path d="M101.539 0L101.539 122L105.062 122L105.062 -1.44522e-07L101.539 0Z" fill="black"/>
<path d="M118.461 0L118.461 122L120 122L120 -6.31099e-08L118.461 0Z" fill="black"/>
</g>
<g clip-path="url(#clip1_35_2541)">
<path d="M240 0L240 122L255.385 122L255.385 -6.31099e-07L240 0Z" fill="black"/>
<path d="M256.923 0L256.923 122L270.323 122L270.323 -5.49687e-07L256.923 0Z" fill="black"/>
<path d="M273.846 0L273.846 122L285.277 122L285.277 -4.68907e-07L273.846 0Z" fill="black"/>
<path d="M290.769 0L290.769 122L300.215 122L300.215 -3.87495e-07L290.769 0Z" fill="black"/>
<path d="M307.692 0L307.692 122L315.169 122L315.169 -3.06714e-07L307.692 0Z" fill="black"/>
<path d="M324.615 0L324.615 122L330.108 122L330.108 -2.25302e-07L324.615 0Z" fill="black"/>
<path d="M341.539 0L341.539 122L345.062 122L345.062 -1.44522e-07L341.539 0Z" fill="black"/>
<path d="M358.461 0L358.461 122L360 122L360 -6.31099e-08L358.461 0Z" fill="black"/>
</g>
<g clip-path="url(#clip2_35_2541)">
<path d="M480 0L480 122L495.385 122L495.385 -6.31099e-07L480 0Z" fill="black"/>
<path d="M496.923 0L496.923 122L510.323 122L510.323 -5.49687e-07L496.923 0Z" fill="black"/>
<path d="M513.846 0L513.846 122L525.277 122L525.277 -4.68907e-07L513.846 0Z" fill="black"/>
<path d="M530.769 0L530.769 122L540.215 122L540.215 -3.87495e-07L530.769 0Z" fill="black"/>
<path d="M547.692 0L547.692 122L555.169 122L555.169 -3.06714e-07L547.692 0Z" fill="black"/>
<path d="M564.615 0L564.615 122L570.108 122L570.108 -2.25302e-07L564.615 0Z" fill="black"/>
<path d="M581.539 0L581.539 122L585.062 122L585.062 -1.44522e-07L581.539 0Z" fill="black"/>
<path d="M598.461 0L598.461 122L600 122L600 -6.31099e-08L598.461 0Z" fill="black"/>
</g>
<g clip-path="url(#clip3_35_2541)">
<path d="M120 0L120 122L135.385 122L135.385 -6.31099e-07L120 0Z" fill="black"/>
<path d="M136.923 0L136.923 122L150.323 122L150.323 -5.49687e-07L136.923 0Z" fill="black"/>
<path d="M153.846 0L153.846 122L165.277 122L165.277 -4.68907e-07L153.846 0Z" fill="black"/>
<path d="M170.769 0L170.769 122L180.215 122L180.215 -3.87495e-07L170.769 0Z" fill="black"/>
<path d="M187.692 0L187.692 122L195.169 122L195.169 -3.06714e-07L187.692 0Z" fill="black"/>
<path d="M204.615 0L204.615 122L210.108 122L210.108 -2.25302e-07L204.615 0Z" fill="black"/>
<path d="M221.539 0L221.539 122L225.062 122L225.062 -1.44522e-07L221.539 0Z" fill="black"/>
<path d="M238.461 0L238.461 122L240 122L240 -6.31099e-08L238.461 0Z" fill="black"/>
</g>
<g clip-path="url(#clip4_35_2541)">
<path d="M360 0L360 122L375.385 122L375.385 -6.31099e-07L360 0Z" fill="black"/>
<path d="M376.923 0L376.923 122L390.323 122L390.323 -5.49687e-07L376.923 0Z" fill="black"/>
<path d="M393.846 0L393.846 122L405.277 122L405.277 -4.68907e-07L393.846 0Z" fill="black"/>
<path d="M410.769 0L410.769 122L420.215 122L420.215 -3.87495e-07L410.769 0Z" fill="black"/>
<path d="M427.692 0L427.692 122L435.169 122L435.169 -3.06714e-07L427.692 0Z" fill="black"/>
<path d="M444.615 0L444.615 122L450.108 122L450.108 -2.25302e-07L444.615 0Z" fill="black"/>
<path d="M461.539 0L461.539 122L465.062 122L465.062 -1.44522e-07L461.539 0Z" fill="black"/>
<path d="M478.461 0L478.461 122L480 122L480 -6.31099e-08L478.461 0Z" fill="black"/>
</g>
<g clip-path="url(#clip5_35_2541)">
<path d="M600 0L600 122L615.385 122L615.385 -6.31099e-07L600 0Z" fill="black"/>
<path d="M616.923 0L616.923 122L630.323 122L630.323 -5.49687e-07L616.923 0Z" fill="black"/>
<path d="M633.846 0L633.846 122L645.277 122L645.277 -4.68907e-07L633.846 0Z" fill="black"/>
<path d="M650.769 0L650.769 122L660.215 122L660.215 -3.87495e-07L650.769 0Z" fill="black"/>
<path d="M667.692 0L667.692 122L675.169 122L675.169 -3.06714e-07L667.692 0Z" fill="black"/>
<path d="M684.615 0L684.615 122L690.108 122L690.108 -2.25302e-07L684.615 0Z" fill="black"/>
<path d="M701.539 0L701.539 122L705.062 122L705.062 -1.44522e-07L701.539 0Z" fill="black"/>
<path d="M718.461 0L718.461 122L720 122L720 -6.31099e-08L718.461 0Z" fill="black"/>
</g>
<defs>
<clipPath id="clip0_35_2541">
<rect width="122" height="120" fill="white" transform="translate(0 122) rotate(-90)"/>
</clipPath>
<clipPath id="clip1_35_2541">
<rect width="122" height="120" fill="white" transform="translate(240 122) rotate(-90)"/>
</clipPath>
<clipPath id="clip2_35_2541">
<rect width="122" height="120" fill="white" transform="translate(480 122) rotate(-90)"/>
</clipPath>
<clipPath id="clip3_35_2541">
<rect width="122" height="120" fill="white" transform="translate(120 122) rotate(-90)"/>
</clipPath>
<clipPath id="clip4_35_2541">
<rect width="122" height="120" fill="white" transform="translate(360 122) rotate(-90)"/>
</clipPath>
<clipPath id="clip5_35_2541">
<rect width="122" height="120" fill="white" transform="translate(600 122) rotate(-90)"/>
</clipPath>
</defs>
</svg>
