<svg width="484" height="613" viewBox="0 0 484 613" fill="none" xmlns="http://www.w3.org/2000/svg">
<g opacity="0.6" clip-path="url(#clip0_35_2429)">
<path d="M93.3726 197.3L60.5471 219.159V175.441L93.3726 153.581V197.3Z" stroke="white" stroke-miterlimit="10"/>
<path d="M126.198 175.44L93.3726 197.3V153.581L126.198 131.721V175.44Z" stroke="white" stroke-miterlimit="10"/>
<path d="M159.023 153.581L126.198 175.44V131.722L159.023 109.862V153.581Z" stroke="white" stroke-miterlimit="10"/>
<path d="M191.849 131.721L159.023 153.581V109.862L191.849 88.0024V131.721Z" stroke="white" stroke-miterlimit="10"/>
<path d="M224.675 109.862L191.849 131.721V88.0025L224.675 66.1431V109.862Z" stroke="white" stroke-miterlimit="10"/>
<path d="M257.5 88.0026L224.675 109.862V66.1432L257.5 44.2837V88.0026Z" stroke="white" stroke-miterlimit="10"/>
<path d="M290.325 66.143L257.5 88.0024V44.2835L290.325 22.4241V66.143Z" stroke="white" stroke-miterlimit="10"/>
<path d="M323.151 44.2836L290.325 66.1431V22.4242L323.151 0.564697V44.2836Z" stroke="white" stroke-miterlimit="10"/>
<path d="M93.3726 241.019L60.5471 262.878V219.159L93.3726 197.3V241.019Z" stroke="white" stroke-miterlimit="10"/>
<path d="M126.198 219.159L93.3726 241.019V197.3L126.198 175.44V219.159Z" stroke="white" stroke-miterlimit="10"/>
<path d="M159.023 197.3L126.198 219.159V175.441L159.023 153.581V197.3Z" stroke="white" stroke-miterlimit="10"/>
<path d="M191.849 175.44L159.023 197.3V153.581L191.849 131.721V175.44Z" stroke="white" stroke-miterlimit="10"/>
<path d="M224.675 153.581L191.849 175.44V131.722L224.675 109.862V153.581Z" stroke="white" stroke-miterlimit="10"/>
<path d="M257.5 131.721L224.675 153.581V109.862L257.5 88.0024V131.721Z" stroke="white" stroke-miterlimit="10"/>
<path d="M290.325 109.862L257.5 131.721V88.0025L290.325 66.1431V109.862Z" stroke="white" stroke-miterlimit="10"/>
<path d="M323.151 88.0026L290.325 109.862V66.1432L323.151 44.2837V88.0026Z" stroke="white" stroke-miterlimit="10"/>
<path d="M93.3726 284.738L60.5471 306.597V262.878L93.3726 241.019V284.738Z" stroke="white" stroke-miterlimit="10"/>
<path d="M126.198 262.878L93.3726 284.738V241.019L126.198 219.159V262.878Z" stroke="white" stroke-miterlimit="10"/>
<path d="M159.023 241.019L126.198 262.878V219.159L159.023 197.3V241.019Z" stroke="white" stroke-miterlimit="10"/>
<path d="M191.849 219.159L159.023 241.019V197.3L191.849 175.44V219.159Z" stroke="white" stroke-miterlimit="10"/>
<path d="M224.675 197.3L191.849 219.159V175.441L224.675 153.581V197.3Z" stroke="white" stroke-miterlimit="10"/>
<path d="M257.5 175.44L224.675 197.3V153.581L257.5 131.721V175.44Z" stroke="white" stroke-miterlimit="10"/>
<path d="M290.325 153.581L257.5 175.44V131.722L290.325 109.862V153.581Z" stroke="white" stroke-miterlimit="10"/>
<path d="M323.151 131.721L290.325 153.581V109.862L323.151 88.0024V131.721Z" stroke="white" stroke-miterlimit="10"/>
<path d="M93.3726 328.457L60.5471 350.316V306.597L93.3726 284.738V328.457Z" stroke="white" stroke-miterlimit="10"/>
<path d="M126.198 306.597L93.3726 328.457V284.738L126.198 262.878V306.597Z" stroke="white" stroke-miterlimit="10"/>
<path d="M159.023 284.738L126.198 306.597V262.878L159.023 241.019V284.738Z" stroke="white" stroke-miterlimit="10"/>
<path d="M191.849 262.878L159.023 284.738V241.019L191.849 219.159V262.878Z" stroke="white" stroke-miterlimit="10"/>
<path d="M224.675 241.019L191.849 262.878V219.159L224.675 197.3V241.019Z" stroke="white" stroke-miterlimit="10"/>
<path d="M257.5 219.159L224.675 241.019V197.3L257.5 175.44V219.159Z" stroke="white" stroke-miterlimit="10"/>
<path d="M290.325 197.3L257.5 219.159V175.441L290.325 153.581V197.3Z" stroke="white" stroke-miterlimit="10"/>
<path d="M323.151 175.44L290.325 197.3V153.581L323.151 131.721V175.44Z" stroke="white" stroke-miterlimit="10"/>
<path d="M93.3726 372.175L60.5471 394.035V350.316L93.3726 328.457V372.175Z" stroke="white" stroke-miterlimit="10"/>
<path d="M126.198 350.316L93.3726 372.176V328.457L126.198 306.597V350.316Z" stroke="white" stroke-miterlimit="10"/>
<path d="M159.023 328.457L126.198 350.316V306.597L159.023 284.738V328.457Z" stroke="white" stroke-miterlimit="10"/>
<path d="M191.849 306.597L159.023 328.457V284.738L191.849 262.878V306.597Z" stroke="white" stroke-miterlimit="10"/>
<path d="M224.675 284.738L191.849 306.597V262.878L224.675 241.019V284.738Z" stroke="white" stroke-miterlimit="10"/>
<path d="M257.5 262.878L224.675 284.738V241.019L257.5 219.159V262.878Z" stroke="white" stroke-miterlimit="10"/>
<path d="M290.325 241.019L257.5 262.878V219.159L290.325 197.3V241.019Z" stroke="white" stroke-miterlimit="10"/>
<path d="M323.151 219.159L290.325 241.019V197.3L323.151 175.44V219.159Z" stroke="white" stroke-miterlimit="10"/>
<path d="M93.3726 415.894L60.5471 437.754V394.035L93.3726 372.176V415.894Z" stroke="white" stroke-miterlimit="10"/>
<path d="M126.198 394.035L93.3726 415.895V372.176L126.198 350.316V394.035Z" stroke="white" stroke-miterlimit="10"/>
<path d="M159.023 372.175L126.198 394.035V350.316L159.023 328.457V372.175Z" stroke="white" stroke-miterlimit="10"/>
<path d="M191.849 350.316L159.023 372.176V328.457L191.849 306.597V350.316Z" stroke="white" stroke-miterlimit="10"/>
<path d="M224.675 328.457L191.849 350.316V306.597L224.675 284.738V328.457Z" stroke="white" stroke-miterlimit="10"/>
<path d="M257.5 306.597L224.675 328.457V284.738L257.5 262.878V306.597Z" stroke="white" stroke-miterlimit="10"/>
<path d="M290.325 284.738L257.5 306.597V262.878L290.325 241.019V284.738Z" stroke="white" stroke-miterlimit="10"/>
<path d="M323.151 262.878L290.325 284.738V241.019L323.151 219.159V262.878Z" stroke="white" stroke-miterlimit="10"/>
<path d="M93.3726 459.613L60.5471 481.473V437.754L93.3726 415.895V459.613Z" stroke="white" stroke-miterlimit="10"/>
<path d="M126.198 437.754L93.3726 459.613V415.894L126.198 394.035V437.754Z" stroke="white" stroke-miterlimit="10"/>
<path d="M159.023 415.894L126.198 437.754V394.035L159.023 372.176V415.894Z" stroke="white" stroke-miterlimit="10"/>
<path d="M191.849 394.035L159.023 415.895V372.176L191.849 350.316V394.035Z" stroke="white" stroke-miterlimit="10"/>
<path d="M224.675 372.175L191.849 394.035V350.316L224.675 328.457V372.175Z" stroke="white" stroke-miterlimit="10"/>
<path d="M257.5 350.316L224.675 372.176V328.457L257.5 306.597V350.316Z" stroke="white" stroke-miterlimit="10"/>
<path d="M290.325 328.457L257.5 350.316V306.597L290.325 284.738V328.457Z" stroke="white" stroke-miterlimit="10"/>
<path d="M323.151 306.597L290.325 328.457V284.738L323.151 262.878V306.597Z" stroke="white" stroke-miterlimit="10"/>
<path d="M93.3726 503.332L60.5471 525.192V481.473L93.3726 459.613V503.332Z" stroke="white" stroke-miterlimit="10"/>
<path d="M126.198 481.473L93.3726 503.332V459.613L126.198 437.754V481.473Z" stroke="white" stroke-miterlimit="10"/>
<path d="M159.023 459.613L126.198 481.473V437.754L159.023 415.895V459.613Z" stroke="white" stroke-miterlimit="10"/>
<path d="M191.849 437.754L159.023 459.613V415.894L191.849 394.035V437.754Z" stroke="white" stroke-miterlimit="10"/>
<path d="M224.675 415.894L191.849 437.754V394.035L224.675 372.176V415.894Z" stroke="white" stroke-miterlimit="10"/>
<path d="M257.5 394.035L224.675 415.895V372.176L257.5 350.316V394.035Z" stroke="white" stroke-miterlimit="10"/>
<path d="M290.325 372.175L257.5 394.035V350.316L290.325 328.457V372.175Z" stroke="white" stroke-miterlimit="10"/>
<path d="M323.151 350.316L290.325 372.176V328.457L323.151 306.597V350.316Z" stroke="white" stroke-miterlimit="10"/>
<path d="M126.198 525.198L93.3726 547.057L60.5471 525.198L93.3726 503.344L126.198 525.198Z" stroke="white" stroke-miterlimit="10"/>
<path d="M159.024 503.345L126.198 525.198L93.3726 503.345L126.198 481.485L159.024 503.345Z" stroke="white" stroke-miterlimit="10"/>
<path d="M191.849 481.485L159.023 503.344L126.198 481.485L159.023 459.625L191.849 481.485Z" stroke="white" stroke-miterlimit="10"/>
<path d="M224.674 459.626L191.849 481.485L159.023 459.626L191.849 437.766L224.674 459.626Z" stroke="white" stroke-miterlimit="10"/>
<path d="M257.5 437.766L224.675 459.625L191.849 437.766L224.675 415.913L257.5 437.766Z" stroke="white" stroke-miterlimit="10"/>
<path d="M290.326 415.913L257.5 437.766L224.675 415.913L257.5 394.053L290.326 415.913Z" stroke="white" stroke-miterlimit="10"/>
<path d="M323.151 394.053L290.325 415.913L257.5 394.053L290.325 372.194L323.151 394.053Z" stroke="white" stroke-miterlimit="10"/>
<path d="M355.976 372.194L323.151 394.053L290.325 372.194L323.151 350.334L355.976 372.194Z" stroke="white" stroke-miterlimit="10"/>
<path d="M159.024 547.057L126.198 568.917L93.3726 547.057L126.198 525.198L159.024 547.057Z" stroke="white" stroke-miterlimit="10"/>
<path d="M191.849 525.198L159.023 547.057L126.198 525.198L159.023 503.344L191.849 525.198Z" stroke="white" stroke-miterlimit="10"/>
<path d="M224.674 503.345L191.849 525.198L159.023 503.345L191.849 481.485L224.674 503.345Z" stroke="white" stroke-miterlimit="10"/>
<path d="M257.5 481.485L224.675 503.344L191.849 481.485L224.675 459.625L257.5 481.485Z" stroke="white" stroke-miterlimit="10"/>
<path d="M290.326 459.626L257.5 481.485L224.675 459.626L257.5 437.766L290.326 459.626Z" stroke="white" stroke-miterlimit="10"/>
<path d="M323.151 437.766L290.325 459.625L257.5 437.766L290.325 415.913L323.151 437.766Z" stroke="white" stroke-miterlimit="10"/>
<path d="M355.976 415.913L323.151 437.766L290.325 415.913L323.151 394.053L355.976 415.913Z" stroke="white" stroke-miterlimit="10"/>
<path d="M388.802 394.053L355.976 415.913L323.151 394.053L355.976 372.194L388.802 394.053Z" stroke="white" stroke-miterlimit="10"/>
<path d="M191.849 568.917L159.023 590.776L126.198 568.917L159.023 547.057L191.849 568.917Z" stroke="white" stroke-miterlimit="10"/>
<path d="M224.674 547.057L191.849 568.917L159.023 547.057L191.849 525.198L224.674 547.057Z" stroke="white" stroke-miterlimit="10"/>
<path d="M257.5 525.198L224.675 547.057L191.849 525.198L224.675 503.344L257.5 525.198Z" stroke="white" stroke-miterlimit="10"/>
<path d="M290.326 503.345L257.5 525.198L224.675 503.345L257.5 481.485L290.326 503.345Z" stroke="white" stroke-miterlimit="10"/>
<path d="M323.151 481.485L290.325 503.344L257.5 481.485L290.325 459.625L323.151 481.485Z" stroke="white" stroke-miterlimit="10"/>
<path d="M355.976 459.626L323.151 481.485L290.325 459.626L323.151 437.766L355.976 459.626Z" stroke="white" stroke-miterlimit="10"/>
<path d="M388.802 437.766L355.976 459.625L323.151 437.766L355.976 415.913L388.802 437.766Z" stroke="white" stroke-miterlimit="10"/>
<path d="M421.628 415.913L388.802 437.766L355.977 415.913L388.802 394.053L421.628 415.913Z" stroke="white" stroke-miterlimit="10"/>
<path d="M224.674 590.776L191.849 612.63L159.023 590.776L191.849 568.917L224.674 590.776Z" stroke="white" stroke-miterlimit="10"/>
<path d="M257.5 568.917L224.675 590.776L191.849 568.917L224.675 547.057L257.5 568.917Z" stroke="white" stroke-miterlimit="10"/>
<path d="M290.326 547.057L257.5 568.917L224.675 547.057L257.5 525.198L290.326 547.057Z" stroke="white" stroke-miterlimit="10"/>
<path d="M323.151 525.198L290.325 547.057L257.5 525.198L290.325 503.344L323.151 525.198Z" stroke="white" stroke-miterlimit="10"/>
<path d="M355.976 503.345L323.151 525.198L290.325 503.345L323.151 481.485L355.976 503.345Z" stroke="white" stroke-miterlimit="10"/>
<path d="M388.802 481.485L355.976 503.344L323.151 481.485L355.976 459.625L388.802 481.485Z" stroke="white" stroke-miterlimit="10"/>
<path d="M421.628 459.626L388.802 481.485L355.977 459.626L388.802 437.766L421.628 459.626Z" stroke="white" stroke-miterlimit="10"/>
<path d="M454.453 437.766L421.627 459.625L388.802 437.766L421.627 415.913L454.453 437.766Z" stroke="white" stroke-miterlimit="10"/>
<path d="M356.207 66.3739L323.455 44.5873V0.868408L356.207 22.655V66.3739Z" stroke="white" stroke-miterlimit="10"/>
<path d="M388.954 88.1542L356.208 66.3737V22.6548L388.954 44.4353V88.1542Z" stroke="white" stroke-miterlimit="10"/>
<path d="M421.706 109.941L388.954 88.1545V44.4355L421.706 66.2221V109.941Z" stroke="white" stroke-miterlimit="10"/>
<path d="M454.453 131.721L421.707 109.941V66.2219L454.453 88.0024V131.721Z" stroke="white" stroke-miterlimit="10"/>
<path d="M356.207 110.093L323.455 88.3061V44.5872L356.207 66.3738V110.093Z" stroke="white" stroke-miterlimit="10"/>
<path d="M388.954 131.873L356.208 110.093V66.3738L388.954 88.1543V131.873Z" stroke="white" stroke-miterlimit="10"/>
<path d="M421.706 153.66L388.954 131.873V88.1543L421.706 109.941V153.66Z" stroke="white" stroke-miterlimit="10"/>
<path d="M454.453 175.44L421.707 153.66V109.941L454.453 131.721V175.44Z" stroke="white" stroke-miterlimit="10"/>
<path d="M356.207 153.812L323.455 132.025V88.3062L356.207 110.093V153.812Z" stroke="white" stroke-miterlimit="10"/>
<path d="M388.954 175.592L356.208 153.812V110.093L388.954 131.873V175.592Z" stroke="white" stroke-miterlimit="10"/>
<path d="M421.706 197.379L388.954 175.592V131.873L421.706 153.66V197.379Z" stroke="white" stroke-miterlimit="10"/>
<path d="M454.453 219.159L421.707 197.379V153.66L454.453 175.44V219.159Z" stroke="white" stroke-miterlimit="10"/>
<path d="M356.207 197.531L323.455 175.744V132.025L356.207 153.812V197.531Z" stroke="white" stroke-miterlimit="10"/>
<path d="M388.954 219.311L356.208 197.531V153.812L388.954 175.592V219.311Z" stroke="white" stroke-miterlimit="10"/>
<path d="M421.706 241.098L388.954 219.311V175.592L421.706 197.379V241.098Z" stroke="white" stroke-miterlimit="10"/>
<path d="M454.453 262.878L421.707 241.098V197.379L454.453 219.159V262.878Z" stroke="white" stroke-miterlimit="10"/>
<path d="M356.207 241.249L323.455 219.463V175.744L356.207 197.53V241.249Z" stroke="white" stroke-miterlimit="10"/>
<path d="M388.954 263.03L356.208 241.249V197.531L388.954 219.311V263.03Z" stroke="white" stroke-miterlimit="10"/>
<path d="M421.706 284.817L388.954 263.03V219.311L421.706 241.098V284.817Z" stroke="white" stroke-miterlimit="10"/>
<path d="M454.453 306.597L421.707 284.817V241.098L454.453 262.878V306.597Z" stroke="white" stroke-miterlimit="10"/>
<path d="M356.207 284.968L323.455 263.182V219.463L356.207 241.249V284.968Z" stroke="white" stroke-miterlimit="10"/>
<path d="M388.954 306.749L356.208 284.968V241.25L388.954 263.03V306.749Z" stroke="white" stroke-miterlimit="10"/>
<path d="M421.706 328.536L388.954 306.749V263.03L421.706 284.817V328.536Z" stroke="white" stroke-miterlimit="10"/>
<path d="M454.453 350.316L421.707 328.536V284.817L454.453 306.597V350.316Z" stroke="white" stroke-miterlimit="10"/>
<path d="M356.207 328.687L323.455 306.901V263.182L356.207 284.968V328.687Z" stroke="white" stroke-miterlimit="10"/>
<path d="M388.954 350.468L356.208 328.687V284.969L388.954 306.749V350.468Z" stroke="white" stroke-miterlimit="10"/>
<path d="M421.706 372.255L388.954 350.468V306.749L421.706 328.536V372.255Z" stroke="white" stroke-miterlimit="10"/>
<path d="M454.453 394.035L421.707 372.255V328.536L454.453 350.316V394.035Z" stroke="white" stroke-miterlimit="10"/>
<path d="M356.207 372.406L323.455 350.62V306.901L356.207 328.687V372.406Z" stroke="white" stroke-miterlimit="10"/>
<path d="M388.954 394.187L356.208 372.406V328.687L388.954 350.468V394.187Z" stroke="white" stroke-miterlimit="10"/>
<path d="M421.706 415.973L388.954 394.187V350.468L421.706 372.254V415.973Z" stroke="white" stroke-miterlimit="10"/>
<path d="M454.453 437.754L421.707 415.973V372.254L454.453 394.035V437.754Z" stroke="white" stroke-miterlimit="10"/>
</g>
<g clip-path="url(#clip1_35_2429)">
<path d="M8.89993 335.36C8.89007 334.581 8.65005 333.822 8.21006 333.179C7.77008 332.536 7.14978 332.038 6.4272 331.747C5.70462 331.455 4.91203 331.384 4.14913 331.542C3.38623 331.7 2.68709 332.08 2.13966 332.635C1.59224 333.189 1.22097 333.893 1.07257 334.658C0.924164 335.423 1.00525 336.214 1.30563 336.933C1.60601 337.652 2.11227 338.266 2.76071 338.698C3.40916 339.13 4.17083 339.36 4.94993 339.36C5.47288 339.36 5.99064 339.256 6.47317 339.055C6.95569 338.853 7.39338 338.558 7.76083 338.186C8.12828 337.813 8.41819 337.372 8.61373 336.887C8.80927 336.402 8.90655 335.883 8.89993 335.36Z" fill="white"/>
<path d="M16.8099 319.56C16.7968 320.612 16.3695 321.617 15.6208 322.356C14.8721 323.095 13.8622 323.51 12.8099 323.51C11.7577 323.51 10.7477 323.095 9.99902 322.356C9.25029 321.617 8.82307 320.612 8.80992 319.56C8.80992 318.779 8.57825 318.015 8.14422 317.365C7.71019 316.716 7.09328 316.21 6.37151 315.911C5.64974 315.612 4.85553 315.533 4.0893 315.686C3.32308 315.838 2.61926 316.214 2.06684 316.767C1.51442 317.319 1.13822 318.023 0.985811 318.789C0.8334 319.556 0.911622 320.35 1.21059 321.072C1.50955 321.793 2.01584 322.41 2.66541 322.844C3.31499 323.278 4.07868 323.51 4.85991 323.51C5.90349 323.523 6.90067 323.943 7.63865 324.681C8.37662 325.419 8.79695 326.416 8.80992 327.46C8.80992 328.521 9.23134 329.538 9.98149 330.288C10.7316 331.039 11.749 331.46 12.8099 331.46C13.8622 331.46 14.8721 331.874 15.6208 332.614C16.3695 333.353 16.7968 334.358 16.8099 335.41C16.8 336.203 17.0261 336.981 17.4596 337.646C17.893 338.31 18.5142 338.831 19.2442 339.141C19.9742 339.451 20.78 339.538 21.5592 339.389C22.3384 339.24 23.0558 338.863 23.6202 338.306C24.1846 337.749 24.5706 337.036 24.729 336.259C24.8874 335.482 24.8112 334.675 24.51 333.941C24.2087 333.207 23.6961 332.579 23.0373 332.138C22.3785 331.696 21.6032 331.46 20.8099 331.46C19.7623 331.46 18.7576 331.044 18.0168 330.303C17.2761 329.562 16.8599 328.558 16.8599 327.51C16.8599 326.462 17.2761 325.458 18.0168 324.717C18.7576 323.976 19.7623 323.56 20.8099 323.56C21.6032 323.56 22.3785 323.324 23.0373 322.882C23.6961 322.44 24.2087 321.813 24.51 321.079C24.8112 320.345 24.8874 319.538 24.729 318.761C24.5706 317.984 24.1846 317.271 23.6202 316.714C23.0558 316.156 22.3384 315.779 21.5592 315.631C20.78 315.482 19.9742 315.569 19.2442 315.879C18.5142 316.189 17.893 316.71 17.4596 317.374C17.0261 318.039 16.8 318.817 16.8099 319.61L16.8099 319.56Z" fill="white"/>
<path d="M16.8101 303.75C16.8101 304.541 17.0447 305.314 17.4842 305.972C17.9237 306.63 18.5484 307.143 19.2793 307.446C20.0102 307.748 20.8145 307.827 21.5904 307.673C22.3663 307.519 23.0791 307.138 23.6385 306.578C24.1979 306.019 24.5789 305.306 24.7332 304.53C24.8875 303.754 24.8083 302.95 24.5056 302.219C24.2028 301.488 23.6901 300.864 23.0323 300.424C22.3745 299.985 21.6012 299.75 20.8101 299.75C19.7492 299.75 18.7318 300.171 17.9816 300.922C17.2315 301.672 16.8101 302.689 16.8101 303.75Z" fill="white"/>
<path d="M8.9 287.95C8.9 287.169 8.66834 286.405 8.23431 285.756C7.80027 285.106 7.18337 284.6 6.4616 284.301C5.73983 284.002 4.94562 283.924 4.17939 284.076C3.41317 284.228 2.70935 284.605 2.15693 285.157C1.60451 285.709 1.22831 286.413 1.0759 287.18C0.923488 287.946 1.00171 288.74 1.30068 289.462C1.59964 290.184 2.10593 290.8 2.7555 291.234C3.40507 291.668 4.16876 291.9 4.95 291.9C5.9976 291.9 7.0023 291.484 7.74307 290.743C8.48384 290.002 8.9 288.998 8.9 287.95Z" fill="white"/>
<path d="M16.8099 287.95C16.7968 289.002 16.3696 290.007 15.6208 290.746C14.8721 291.486 13.8622 291.9 12.8099 291.9C11.7491 291.9 10.7317 292.321 9.98151 293.072C9.23137 293.822 8.80994 294.839 8.80994 295.9C8.79698 296.944 8.37665 297.941 7.63867 298.679C6.9007 299.417 5.90352 299.837 4.85994 299.85C3.91352 299.993 3.04982 300.471 2.42566 301.197C1.80149 301.922 1.45825 302.848 1.45825 303.805C1.45825 304.762 1.80149 305.688 2.42566 306.413C3.04982 307.139 3.91352 307.617 4.85994 307.76C5.38328 307.759 5.90165 307.861 6.38478 308.063C6.86792 308.264 7.30614 308.559 7.67387 308.932C8.04159 309.304 8.33144 309.746 8.5265 310.231C8.72156 310.717 8.81792 311.237 8.80994 311.76C8.80994 312.551 9.04454 313.324 9.48406 313.982C9.92359 314.64 10.5483 315.153 11.2792 315.456C12.0101 315.758 12.8144 315.837 13.5903 315.683C14.3662 315.529 15.079 315.148 15.6384 314.588C16.1978 314.029 16.5787 313.316 16.7331 312.54C16.8874 311.764 16.8082 310.96 16.5055 310.229C16.2027 309.498 15.69 308.874 15.0322 308.434C14.3744 307.995 13.6011 307.76 12.8099 307.76C12.2406 307.846 11.6593 307.808 11.1058 307.649C10.5524 307.49 10.0399 307.213 9.6033 306.838C9.16671 306.462 8.81634 305.997 8.57616 305.473C8.33597 304.95 8.21163 304.381 8.21163 303.805C8.21163 303.229 8.33597 302.66 8.57616 302.137C8.81634 301.613 9.16671 301.148 9.6033 300.772C10.0399 300.397 10.5524 300.12 11.1058 299.961C11.6593 299.802 12.2406 299.764 12.8099 299.85C13.8622 299.85 14.8721 299.436 15.6208 298.696C16.3696 297.957 16.7968 296.952 16.8099 295.9C16.8099 294.839 17.2314 293.822 17.9815 293.072C18.7317 292.321 19.7491 291.9 20.8099 291.9C21.589 291.89 22.3477 291.65 22.9907 291.21C23.6336 290.77 24.1321 290.15 24.4234 289.427C24.7147 288.705 24.7859 287.912 24.6278 287.149C24.4698 286.386 24.0897 285.687 23.5354 285.14C22.981 284.592 22.2772 284.221 21.5123 284.073C20.7475 283.924 19.9559 284.005 19.237 284.306C18.5182 284.606 17.9042 285.112 17.4723 285.761C17.0405 286.409 16.81 287.171 16.8099 287.95Z" fill="white"/>
</g>
<path d="M170.501 223.044V209.304H181.121C181.854 209.304 182.507 209.451 183.081 209.744C183.667 210.024 184.127 210.418 184.461 210.924C184.794 211.431 184.961 212.024 184.961 212.704C184.961 213.224 184.861 213.698 184.661 214.124C184.461 214.551 184.187 214.911 183.841 215.204C183.507 215.484 183.127 215.698 182.701 215.844V215.924C183.207 216.031 183.661 216.238 184.061 216.544C184.461 216.838 184.774 217.218 185.001 217.684C185.227 218.138 185.341 218.664 185.341 219.264C185.341 220.118 185.147 220.824 184.761 221.384C184.387 221.944 183.881 222.364 183.241 222.644C182.614 222.911 181.907 223.044 181.121 223.044H170.501ZM173.541 220.504H180.501C181.007 220.504 181.421 220.378 181.741 220.124C182.061 219.871 182.221 219.471 182.221 218.924C182.221 218.604 182.154 218.324 182.021 218.084C181.887 217.831 181.687 217.638 181.421 217.504C181.154 217.371 180.807 217.304 180.381 217.304H173.541V220.504ZM173.541 214.824H180.141C180.514 214.824 180.827 214.764 181.081 214.644C181.334 214.511 181.527 214.331 181.661 214.104C181.794 213.878 181.861 213.631 181.861 213.364C181.861 212.858 181.714 212.478 181.421 212.224C181.127 211.971 180.741 211.844 180.261 211.844H173.541V214.824ZM193.071 223.044V211.984H186.971V209.304H202.211V211.984H196.111V223.044H193.071ZM211.993 223.284C210.139 223.284 208.586 223.018 207.333 222.484C206.079 221.938 205.139 221.138 204.513 220.084C203.886 219.018 203.573 217.711 203.573 216.164C203.573 213.898 204.293 212.151 205.733 210.924C207.173 209.684 209.253 209.064 211.973 209.064C213.519 209.064 214.879 209.284 216.053 209.724C217.239 210.164 218.159 210.798 218.813 211.624C219.479 212.451 219.813 213.451 219.813 214.624H216.833C216.833 213.958 216.626 213.404 216.213 212.964C215.799 212.511 215.226 212.171 214.493 211.944C213.759 211.718 212.899 211.604 211.913 211.604C210.846 211.604 209.919 211.778 209.133 212.124C208.359 212.458 207.759 212.944 207.333 213.584C206.906 214.224 206.693 214.998 206.693 215.904V216.404C206.693 217.324 206.906 218.111 207.333 218.764C207.759 219.404 208.366 219.898 209.153 220.244C209.939 220.578 210.866 220.744 211.933 220.744C212.959 220.744 213.839 220.638 214.573 220.424C215.319 220.198 215.893 219.864 216.293 219.424C216.706 218.971 216.913 218.418 216.913 217.764H219.833C219.833 218.911 219.506 219.898 218.853 220.724C218.199 221.551 217.286 222.184 216.113 222.624C214.939 223.064 213.566 223.284 211.993 223.284Z" fill="white"/>
<path d="M373.501 282.044V268.304H384.121C384.854 268.304 385.507 268.451 386.081 268.744C386.667 269.024 387.127 269.418 387.461 269.924C387.794 270.431 387.961 271.024 387.961 271.704C387.961 272.224 387.861 272.698 387.661 273.124C387.461 273.551 387.187 273.911 386.841 274.204C386.507 274.484 386.127 274.698 385.701 274.844V274.924C386.207 275.031 386.661 275.238 387.061 275.544C387.461 275.838 387.774 276.218 388.001 276.684C388.227 277.138 388.341 277.664 388.341 278.264C388.341 279.118 388.147 279.824 387.761 280.384C387.387 280.944 386.881 281.364 386.241 281.644C385.614 281.911 384.907 282.044 384.121 282.044H373.501ZM376.541 279.504H383.501C384.007 279.504 384.421 279.378 384.741 279.124C385.061 278.871 385.221 278.471 385.221 277.924C385.221 277.604 385.154 277.324 385.021 277.084C384.887 276.831 384.687 276.638 384.421 276.504C384.154 276.371 383.807 276.304 383.381 276.304H376.541V279.504ZM376.541 273.824H383.141C383.514 273.824 383.827 273.764 384.081 273.644C384.334 273.511 384.527 273.331 384.661 273.104C384.794 272.878 384.861 272.631 384.861 272.364C384.861 271.858 384.714 271.478 384.421 271.224C384.127 270.971 383.741 270.844 383.261 270.844H376.541V273.824ZM399.211 282.284C397.358 282.284 395.805 282.018 394.551 281.484C393.298 280.938 392.358 280.138 391.731 279.084C391.105 278.018 390.791 276.711 390.791 275.164C390.791 272.898 391.511 271.151 392.951 269.924C394.391 268.684 396.471 268.064 399.191 268.064C400.738 268.064 402.098 268.284 403.271 268.724C404.458 269.164 405.378 269.798 406.031 270.624C406.698 271.451 407.031 272.451 407.031 273.624H404.051C404.051 272.958 403.845 272.404 403.431 271.964C403.018 271.511 402.445 271.171 401.711 270.944C400.978 270.718 400.118 270.604 399.131 270.604C398.065 270.604 397.138 270.778 396.351 271.124C395.578 271.458 394.978 271.944 394.551 272.584C394.125 273.224 393.911 273.998 393.911 274.904V275.404C393.911 276.324 394.125 277.111 394.551 277.764C394.978 278.404 395.585 278.898 396.371 279.244C397.158 279.578 398.085 279.744 399.151 279.744C400.178 279.744 401.058 279.638 401.791 279.424C402.538 279.198 403.111 278.864 403.511 278.424C403.925 277.971 404.131 277.418 404.131 276.764H407.051C407.051 277.911 406.725 278.898 406.071 279.724C405.418 280.551 404.505 281.184 403.331 281.624C402.158 282.064 400.785 282.284 399.211 282.284ZM410.317 282.044V268.304H413.357V273.704H422.697V268.304H425.737V282.044H422.697V276.384H413.357V282.044H410.317Z" fill="white"/>
<path d="M125.501 351.044V337.304H139.401V339.844H128.541V342.784H138.201V345.324H128.541V348.504H139.561V351.044H125.501ZM147.505 351.044V339.984H141.405V337.304H156.645V339.984H150.545V351.044H147.505ZM159.114 351.044V337.304H162.154V342.704H171.494V337.304H174.534V351.044H171.494V345.384H162.154V351.044H159.114Z" fill="white"/>
<path d="M250.301 290.044L256.741 282.924L250.881 276.304H254.821L258.641 280.844H258.881L262.801 276.304H266.481L260.641 282.784L267.101 290.044H263.161L258.721 284.844H258.481L253.981 290.044H250.301ZM269.782 290.044V276.304H272.822V287.364H281.542V290.044H269.782ZM284.079 290.044V276.304H288.799L291.939 283.364C292.032 283.578 292.152 283.878 292.299 284.264C292.459 284.638 292.619 285.038 292.779 285.464C292.952 285.878 293.106 286.258 293.239 286.604H293.379C293.499 286.298 293.639 285.944 293.799 285.544C293.959 285.144 294.119 284.751 294.279 284.364C294.439 283.978 294.572 283.658 294.679 283.404L297.819 276.304H302.439V290.044H299.399V281.644C299.399 281.418 299.399 281.164 299.399 280.884C299.412 280.604 299.426 280.331 299.439 280.064C299.452 279.784 299.466 279.544 299.479 279.344H299.319C299.252 279.544 299.166 279.784 299.059 280.064C298.952 280.344 298.846 280.624 298.739 280.904C298.632 281.184 298.532 281.431 298.439 281.644L294.699 290.044H291.739L287.979 281.644C287.859 281.378 287.739 281.104 287.619 280.824C287.512 280.531 287.412 280.258 287.319 280.004C287.239 279.738 287.166 279.518 287.099 279.344H286.939C286.952 279.504 286.959 279.718 286.959 279.984C286.972 280.238 286.979 280.511 286.979 280.804C286.992 281.084 286.999 281.364 286.999 281.644V290.044H284.079Z" fill="white"/>
<path d="M345.201 144.284C344.161 144.284 343.187 144.218 342.281 144.084C341.374 143.964 340.581 143.744 339.901 143.424C339.221 143.091 338.687 142.631 338.301 142.044C337.927 141.458 337.741 140.704 337.741 139.784C337.741 139.758 337.741 139.724 337.741 139.684C337.741 139.644 337.747 139.611 337.761 139.584H340.761C340.747 139.638 340.734 139.704 340.721 139.784C340.721 139.851 340.721 139.931 340.721 140.024C340.721 140.438 340.901 140.778 341.261 141.044C341.621 141.298 342.134 141.484 342.801 141.604C343.467 141.724 344.247 141.784 345.141 141.784C345.527 141.784 345.914 141.771 346.301 141.744C346.701 141.704 347.081 141.651 347.441 141.584C347.801 141.518 348.121 141.424 348.401 141.304C348.694 141.184 348.921 141.038 349.081 140.864C349.254 140.678 349.341 140.464 349.341 140.224C349.341 139.878 349.181 139.604 348.861 139.404C348.554 139.191 348.134 139.018 347.601 138.884C347.067 138.751 346.467 138.638 345.801 138.544C345.134 138.451 344.441 138.351 343.721 138.244C343.014 138.124 342.327 137.971 341.661 137.784C340.994 137.584 340.394 137.331 339.861 137.024C339.327 136.718 338.901 136.324 338.581 135.844C338.274 135.351 338.121 134.751 338.121 134.044C338.121 133.404 338.274 132.838 338.581 132.344C338.887 131.851 339.341 131.438 339.941 131.104C340.541 130.758 341.274 130.498 342.141 130.324C343.021 130.151 344.027 130.064 345.161 130.064C346.307 130.064 347.307 130.158 348.161 130.344C349.014 130.531 349.721 130.798 350.281 131.144C350.841 131.491 351.254 131.911 351.521 132.404C351.801 132.884 351.941 133.424 351.941 134.024V134.344H348.981V134.084C348.981 133.791 348.821 133.531 348.501 133.304C348.181 133.078 347.747 132.898 347.201 132.764C346.654 132.631 346.034 132.564 345.341 132.564C344.381 132.564 343.601 132.624 343.001 132.744C342.401 132.864 341.961 133.031 341.681 133.244C341.401 133.444 341.261 133.671 341.261 133.924C341.261 134.231 341.414 134.478 341.721 134.664C342.041 134.851 342.467 135.004 343.001 135.124C343.534 135.231 344.134 135.331 344.801 135.424C345.467 135.518 346.154 135.624 346.861 135.744C347.581 135.864 348.274 136.018 348.941 136.204C349.607 136.391 350.207 136.644 350.741 136.964C351.274 137.271 351.694 137.664 352.001 138.144C352.321 138.611 352.481 139.191 352.481 139.884C352.481 140.951 352.174 141.811 351.561 142.464C350.947 143.104 350.094 143.571 349.001 143.864C347.907 144.144 346.641 144.284 345.201 144.284ZM363.733 144.284C361.906 144.284 360.333 144.011 359.013 143.464C357.693 142.904 356.673 142.098 355.953 141.044C355.246 139.978 354.893 138.684 354.893 137.164C354.893 135.644 355.246 134.358 355.953 133.304C356.673 132.251 357.693 131.451 359.013 130.904C360.333 130.344 361.906 130.064 363.733 130.064C365.56 130.064 367.133 130.344 368.453 130.904C369.773 131.451 370.786 132.251 371.493 133.304C372.213 134.358 372.573 135.644 372.573 137.164C372.573 138.684 372.213 139.978 371.493 141.044C370.786 142.098 369.773 142.904 368.453 143.464C367.133 144.011 365.56 144.284 363.733 144.284ZM363.733 141.744C364.56 141.744 365.32 141.651 366.013 141.464C366.706 141.278 367.306 141.004 367.813 140.644C368.333 140.284 368.733 139.831 369.013 139.284C369.306 138.738 369.453 138.104 369.453 137.384V136.924C369.453 136.204 369.306 135.578 369.013 135.044C368.733 134.498 368.333 134.044 367.813 133.684C367.306 133.324 366.706 133.058 366.013 132.884C365.32 132.698 364.56 132.604 363.733 132.604C362.906 132.604 362.146 132.698 361.453 132.884C360.76 133.058 360.153 133.324 359.633 133.684C359.126 134.044 358.733 134.498 358.453 135.044C358.173 135.578 358.033 136.204 358.033 136.924V137.384C358.033 138.104 358.173 138.738 358.453 139.284C358.733 139.831 359.126 140.284 359.633 140.644C360.153 141.004 360.76 141.278 361.453 141.464C362.146 141.651 362.906 141.744 363.733 141.744ZM375.845 144.044V130.304H378.885V141.364H387.605V144.044H375.845Z" fill="white"/>
<path d="M347.041 408.044L353.921 394.304H357.361L364.241 408.044H360.901L359.601 405.384H351.461L350.161 408.044H347.041ZM352.661 402.924H358.401L356.801 399.564C356.734 399.418 356.634 399.204 356.501 398.924C356.381 398.631 356.254 398.338 356.121 398.044C356.001 397.738 355.887 397.478 355.781 397.264C355.687 397.038 355.634 396.918 355.621 396.904H355.461C355.341 397.171 355.201 397.478 355.041 397.824C354.894 398.171 354.747 398.504 354.601 398.824C354.467 399.144 354.354 399.398 354.261 399.584L352.661 402.924ZM366.665 408.044V394.304H373.985C375.665 394.304 377.105 394.571 378.305 395.104C379.518 395.624 380.445 396.398 381.085 397.424C381.738 398.438 382.065 399.691 382.065 401.184C382.065 402.664 381.738 403.918 381.085 404.944C380.445 405.958 379.518 406.731 378.305 407.264C377.105 407.784 375.665 408.044 373.985 408.044H366.665ZM369.705 405.504H373.825C374.558 405.504 375.232 405.418 375.845 405.244C376.472 405.071 377.012 404.818 377.465 404.484C377.932 404.138 378.292 403.711 378.545 403.204C378.798 402.684 378.925 402.084 378.925 401.404V400.944C378.925 400.264 378.798 399.671 378.545 399.164C378.292 398.644 377.932 398.218 377.465 397.884C377.012 397.538 376.472 397.278 375.845 397.104C375.232 396.931 374.558 396.844 373.825 396.844H369.705V405.504ZM383.076 408.044L389.956 394.304H393.396L400.276 408.044H396.936L395.636 405.384H387.496L386.196 408.044H383.076ZM388.696 402.924H394.436L392.836 399.564C392.769 399.418 392.669 399.204 392.536 398.924C392.416 398.631 392.289 398.338 392.156 398.044C392.036 397.738 391.923 397.478 391.816 397.264C391.723 397.038 391.669 396.918 391.656 396.904H391.496C391.376 397.171 391.236 397.478 391.076 397.824C390.929 398.171 390.783 398.504 390.636 398.824C390.503 399.144 390.389 399.398 390.296 399.584L388.696 402.924Z" fill="white"/>
<path d="M209.181 452.044V440.984H203.081V438.304H218.321V440.984H212.221V452.044H209.181ZM220.79 452.044V438.304H231.67C232.643 438.304 233.437 438.504 234.05 438.904C234.677 439.291 235.143 439.811 235.45 440.464C235.757 441.104 235.91 441.818 235.91 442.604C235.91 443.418 235.697 444.184 235.27 444.904C234.857 445.611 234.21 446.164 233.33 446.564L236.25 452.044H232.83L230.31 447.144H223.83V452.044H220.79ZM223.83 444.624H230.83C231.457 444.624 231.937 444.444 232.27 444.084C232.617 443.711 232.79 443.238 232.79 442.664C232.79 442.278 232.717 441.951 232.57 441.684C232.423 441.404 232.203 441.198 231.91 441.064C231.617 440.918 231.257 440.844 230.83 440.844H223.83V444.624ZM247.428 452.284C245.602 452.284 244.028 452.011 242.708 451.464C241.388 450.904 240.368 450.098 239.648 449.044C238.942 447.978 238.588 446.684 238.588 445.164C238.588 443.644 238.942 442.358 239.648 441.304C240.368 440.251 241.388 439.451 242.708 438.904C244.028 438.344 245.602 438.064 247.428 438.064C249.255 438.064 250.828 438.344 252.148 438.904C253.468 439.451 254.482 440.251 255.188 441.304C255.908 442.358 256.268 443.644 256.268 445.164C256.268 446.684 255.908 447.978 255.188 449.044C254.482 450.098 253.468 450.904 252.148 451.464C250.828 452.011 249.255 452.284 247.428 452.284ZM247.428 449.744C248.255 449.744 249.015 449.651 249.708 449.464C250.402 449.278 251.002 449.004 251.508 448.644C252.028 448.284 252.428 447.831 252.708 447.284C253.002 446.738 253.148 446.104 253.148 445.384V444.924C253.148 444.204 253.002 443.578 252.708 443.044C252.428 442.498 252.028 442.044 251.508 441.684C251.002 441.324 250.402 441.058 249.708 440.884C249.015 440.698 248.255 440.604 247.428 440.604C246.602 440.604 245.842 440.698 245.148 440.884C244.455 441.058 243.848 441.324 243.328 441.684C242.822 442.044 242.428 442.498 242.148 443.044C241.868 443.578 241.728 444.204 241.728 444.924V445.384C241.728 446.104 241.868 446.738 242.148 447.284C242.428 447.831 242.822 448.284 243.328 448.644C243.848 449.004 244.455 449.278 245.148 449.464C245.842 449.651 246.602 449.744 247.428 449.744ZM259.54 452.044V438.304H262.4L269.92 445.524C270.093 445.671 270.3 445.871 270.54 446.124C270.78 446.378 271.027 446.638 271.28 446.904C271.547 447.171 271.773 447.411 271.96 447.624H272.12C272.107 447.331 272.087 446.978 272.06 446.564C272.047 446.138 272.04 445.791 272.04 445.524V438.304H274.96V452.044H272.16L264.62 444.744C264.26 444.398 263.88 444.018 263.48 443.604C263.093 443.178 262.78 442.838 262.54 442.584H262.4C262.413 442.758 262.427 443.064 262.44 443.504C262.453 443.931 262.46 444.424 262.46 444.984V452.044H259.54Z" fill="white"/>
<circle cx="184.561" cy="445.044" r="7" fill="white"/>
<circle cx="330.561" cy="401.044" r="7" fill="white"/>
<circle cx="321.061" cy="485.544" r="4.5" fill="white"/>
<circle cx="205.061" cy="476.544" r="4.5" fill="white"/>
<circle cx="145.061" cy="489.544" r="4.5" fill="white"/>
<circle cx="136.061" cy="460.544" r="4.5" fill="white"/>
<circle cx="406.061" cy="348.544" r="4.5" fill="white"/>
<circle cx="433.061" cy="326.544" r="4.5" fill="white"/>
<circle cx="374.061" cy="189.544" r="4.5" fill="white"/>
<circle cx="245.061" cy="205.544" r="4.5" fill="white"/>
<circle cx="191.061" cy="137.544" r="4.5" fill="white"/>
<circle cx="109.061" cy="205.544" r="4.5" fill="white"/>
<circle cx="114.061" cy="245.544" r="4.5" fill="white"/>
<circle cx="107.561" cy="344.044" r="7" fill="white"/>
<circle cx="152.561" cy="216.044" r="7" fill="white"/>
<circle cx="320.561" cy="137.044" r="7" fill="white"/>
<circle cx="355.561" cy="275.044" r="7" fill="white"/>
<circle cx="233.561" cy="283.044" r="7" fill="white"/>
<line x1="153.192" y1="216.269" x2="234.192" y2="282.269" stroke="white" stroke-width="2"/>
<line x1="152.135" y1="215.139" x2="320.135" y2="136.139" stroke="white" stroke-width="2"/>
<line x1="234.336" y1="281.413" x2="331.336" y2="400.413" stroke="white" stroke-width="2"/>
<line x1="356.542" y1="275.239" x2="331.542" y2="401.239" stroke="white" stroke-width="2"/>
<line x1="108.356" y1="343.438" x2="185.356" y2="444.438" stroke="white" stroke-width="2"/>
<line x1="234.518" y1="282.332" x2="185.518" y2="445.332" stroke="white" stroke-width="2"/>
<line x1="153.28" y1="216.349" x2="331.28" y2="400.349" stroke="white" stroke-width="2"/>
<line x1="108.613" y1="343.726" x2="151.613" y2="215.726" stroke="white" stroke-width="2"/>
<line x1="321.53" y1="136.799" x2="356.53" y2="274.799" stroke="white" stroke-width="2"/>
<line x1="183.858" y1="444.333" x2="354.858" y2="275.333" stroke="white" stroke-width="2"/>
<line x1="321.56" y1="137.007" x2="331.56" y2="401.007" stroke="white" stroke-width="2"/>
<line x1="321.418" y1="137.559" x2="234.418" y2="282.559" stroke="white" stroke-width="2"/>
<path d="M321.064 485.992L330.064 400.992M321.064 485.992L205.561 476.044M321.064 485.992L233.561 284.044" stroke="white"/>
<path d="M145.101 489.85L233.101 281.85M145.101 489.85L186.061 444.545M145.101 489.85L204.561 477.545M145.101 489.85L136.561 460.044M233.101 281.85L246.061 204.544M233.101 281.85L375.561 189.544M233.101 281.85L114.561 246.544M186.061 444.545L136.561 460.044M186.061 444.545L204.561 477.545M186.061 444.545L432.561 326.544M204.561 477.545L136.561 460.044M204.561 477.545L107.061 345.044M136.561 460.044L107.061 345.044M107.061 345.044L114.561 246.544M114.561 246.544L153.061 216.044M114.561 246.544L110.061 204.544M153.061 216.044L110.061 204.544M153.061 216.044L191.061 137.544M110.061 204.544L191.061 137.544M110.061 204.544L246.061 204.544M110.061 204.544C113.661 201.567 252.227 158.637 321.061 137.544M191.061 137.544L246.061 204.544M191.061 137.544L321.061 137.544M191.061 137.544L375.561 189.544M246.061 204.544L321.061 137.544M246.061 204.544C281.894 227.378 353.961 273.544 355.561 275.544M246.061 204.544L375.561 189.544M321.061 137.544L375.561 189.544M375.561 189.544L355.561 275.544M330.061 401.044L406.061 349.044M406.061 349.044L432.561 326.544M406.061 349.044L355.561 275.544M432.561 326.544L355.561 275.544" stroke="white"/>
<g clip-path="url(#clip2_35_2429)">
<path d="M8.53998 228.29C8.53998 229.425 8.08906 230.514 7.2864 231.316C6.48374 232.119 5.39511 232.57 4.25998 232.57C3.41348 232.57 2.58598 232.821 1.88214 233.291C1.1783 233.761 0.629721 234.43 0.305778 235.212C-0.018165 235.994 -0.102924 236.855 0.0622211 237.685C0.227366 238.515 0.634997 239.278 1.23357 239.876C1.83213 240.475 2.59476 240.882 3.425 241.048C4.25523 241.213 5.1158 241.128 5.89787 240.804C6.67993 240.48 7.34838 239.932 7.81867 239.228C8.28896 238.524 8.53998 237.696 8.53998 236.85C8.51198 236.271 8.6018 235.693 8.804 235.15C9.00621 234.607 9.31658 234.11 9.7163 233.691C10.116 233.271 10.5968 232.937 11.1294 232.709C11.6621 232.481 12.2355 232.363 12.815 232.363C13.3945 232.363 13.9679 232.481 14.5005 232.709C15.0332 232.937 15.5139 233.271 15.9137 233.691C16.3134 234.11 16.6238 234.607 16.826 235.15C17.0282 235.693 17.118 236.271 17.09 236.85C17.09 237.696 17.341 238.524 17.8113 239.228C18.2816 239.932 18.95 240.48 19.7321 240.804C20.5142 241.128 21.3747 241.213 22.205 241.048C23.0352 240.882 23.7978 240.475 24.3964 239.876C24.995 239.278 25.4026 238.515 25.5677 237.685C25.7329 236.855 25.6481 235.994 25.3242 235.212C25.0002 234.43 24.4517 233.761 23.7478 233.291C23.044 232.821 22.2165 232.57 21.37 232.57C20.8079 232.57 20.2514 232.459 19.7321 232.244C19.2128 232.029 18.741 231.714 18.3436 231.316C17.9461 230.919 17.6309 230.447 17.4158 229.928C17.2007 229.408 17.09 228.852 17.09 228.29C17.118 227.711 17.0282 227.133 16.826 226.59C16.6238 226.047 16.3134 225.55 15.9137 225.131C15.5139 224.711 15.0332 224.377 14.5005 224.149C13.9679 223.921 13.3945 223.803 12.815 223.803C12.2355 223.803 11.6621 223.921 11.1294 224.149C10.5968 224.377 10.116 224.711 9.7163 225.131C9.31658 225.55 9.00621 226.047 8.804 226.59C8.6018 227.133 8.51198 227.711 8.53998 228.29Z" fill="white"/>
<path d="M8.56 219.73C8.56 217.366 6.64378 215.45 4.28 215.45C1.91622 215.45 -2.90409e-07 217.366 -1.87085e-07 219.73C-8.37607e-08 222.094 1.91622 224.01 4.28 224.01C6.64378 224.01 8.56 222.094 8.56 219.73Z" fill="white"/>
<path d="M25.6701 219.73C25.6701 217.366 23.7539 215.45 21.3901 215.45C19.0263 215.45 17.1101 217.366 17.1101 219.73C17.1101 222.094 19.0263 224.01 21.3901 224.01C23.7539 224.01 25.6701 222.094 25.6701 219.73Z" fill="white"/>
<path d="M17.11 245.4C17.11 243.036 15.1938 241.12 12.83 241.12C10.4663 241.12 8.55005 243.036 8.55005 245.4C8.55005 247.764 10.4663 249.68 12.83 249.68C15.1938 249.68 17.11 247.764 17.11 245.4Z" fill="white"/>
<path d="M8.54003 194.06C8.53872 194.622 8.64819 195.178 8.86219 195.697C9.07619 196.216 9.39051 196.688 9.78715 197.086C10.1838 197.483 10.6549 197.799 11.1737 198.014C11.6924 198.229 12.2484 198.34 12.81 198.34C13.9452 198.34 15.0338 198.791 15.8364 199.594C16.6391 200.396 17.09 201.485 17.09 202.62C17.09 203.755 16.6391 204.844 15.8364 205.646C15.0338 206.449 13.9452 206.9 12.81 206.9C11.9635 206.9 11.136 207.151 10.4322 207.621C9.72835 208.092 9.17977 208.76 8.85583 209.542C8.53188 210.324 8.44713 211.185 8.61227 212.015C8.77741 212.845 9.18505 213.608 9.78361 214.206C10.3822 214.805 11.1448 215.213 11.975 215.378C12.8053 215.543 13.6658 215.458 14.4479 215.134C15.23 214.81 15.8984 214.262 16.3687 213.558C16.839 212.854 17.09 212.026 17.09 211.18C17.09 210.618 17.2007 210.061 17.4158 209.542C17.6309 209.023 17.9462 208.551 18.3436 208.154C18.741 207.756 19.2129 207.441 19.7321 207.226C20.2514 207.011 20.808 206.9 21.37 206.9C22.5052 206.9 23.5938 206.449 24.3964 205.646C25.1991 204.844 25.65 203.755 25.65 202.62C25.65 201.485 25.1991 200.396 24.3964 199.594C23.5938 198.791 22.5052 198.34 21.37 198.34C20.808 198.34 20.2514 198.229 19.7321 198.014C19.2129 197.799 18.741 197.484 18.3436 197.086C17.9462 196.689 17.6309 196.217 17.4158 195.698C17.2007 195.179 17.09 194.622 17.09 194.06C17.118 193.481 17.0282 192.903 16.826 192.36C16.6238 191.817 16.3134 191.32 15.9137 190.901C15.514 190.481 15.0332 190.147 14.5006 189.919C13.9679 189.691 13.3945 189.573 12.815 189.573C12.2356 189.573 11.6621 189.691 11.1295 189.919C10.5968 190.147 10.1161 190.481 9.71635 190.901C9.31663 191.32 9.00626 191.817 8.80405 192.36C8.60185 192.903 8.51203 193.481 8.54003 194.06Z" fill="white"/>
<path d="M8.53998 202.62C8.53998 201.773 8.28896 200.946 7.81867 200.242C7.34838 199.538 6.67993 198.99 5.89786 198.666C5.1158 198.342 4.25523 198.257 3.42499 198.422C2.59476 198.587 1.83213 198.995 1.23357 199.593C0.634997 200.192 0.227366 200.955 0.0622211 201.785C-0.102924 202.615 -0.018165 203.476 0.305778 204.258C0.629721 205.04 1.1783 205.708 1.88214 206.179C2.58598 206.649 3.41348 206.9 4.25998 206.9C5.39511 206.9 6.48374 206.449 7.2864 205.646C8.08906 204.844 8.53998 203.755 8.53998 202.62Z" fill="white"/>
<path d="M8.53997 185.51C8.54195 184.663 8.29262 183.835 7.82353 183.129C7.35444 182.424 6.68669 181.874 5.9048 181.549C5.12291 181.223 4.26203 181.137 3.43113 181.301C2.60023 181.465 1.83668 181.872 1.23711 182.47C0.637538 183.068 0.228912 183.831 0.0629556 184.661C-0.103001 185.492 -0.0188282 186.353 0.304819 187.136C0.628466 187.918 1.17704 188.587 1.88109 189.058C2.58515 189.529 3.41304 189.78 4.25997 189.78C5.39337 189.78 6.48049 189.33 7.28286 188.53C8.08523 187.729 8.53732 186.643 8.53997 185.51Z" fill="white"/>
<path d="M17.1101 185.51C17.1101 186.357 17.3611 187.184 17.8314 187.888C18.3017 188.592 18.9702 189.14 19.7522 189.464C20.5343 189.788 21.3949 189.873 22.2251 189.708C23.0553 189.543 23.818 189.135 24.4165 188.536C25.0151 187.938 25.4227 187.175 25.5879 186.345C25.753 185.515 25.6683 184.654 25.3443 183.872C25.0204 183.09 24.4718 182.422 23.768 181.951C23.0641 181.481 22.2366 181.23 21.3901 181.23C20.255 181.23 19.1663 181.681 18.3637 182.484C17.561 183.286 17.1101 184.375 17.1101 185.51Z" fill="white"/>
<path d="M17.11 168.39C17.1114 168.952 17.0016 169.51 16.7869 170.029C16.5723 170.549 16.2571 171.022 15.8594 171.419C15.4617 171.817 14.9894 172.132 14.4695 172.347C13.9496 172.561 13.3925 172.671 12.8301 172.67C11.9835 172.67 11.1561 172.921 10.4522 173.391C9.74837 173.862 9.19979 174.53 8.87585 175.312C8.5519 176.094 8.46714 176.955 8.63229 177.785C8.79743 178.615 9.20506 179.378 9.80363 179.976C10.4022 180.575 11.1648 180.983 11.9951 181.148C12.8253 181.313 13.6859 181.228 14.4679 180.904C15.25 180.58 15.9184 180.032 16.3887 179.328C16.859 178.624 17.1101 177.796 17.1101 176.95C17.11 175.815 17.561 174.726 18.3636 173.924C19.1663 173.121 20.2549 172.67 21.39 172.67C22.2366 172.67 23.0641 172.419 23.7679 171.949C24.4717 171.478 25.0203 170.81 25.3443 170.028C25.6682 169.246 25.753 168.385 25.5878 167.555C25.4227 166.725 25.015 165.962 24.4165 165.364C23.8179 164.765 23.0553 164.357 22.225 164.192C21.3948 164.027 20.5342 164.112 19.7522 164.436C18.9701 164.76 18.3017 165.308 17.8314 166.012C17.3611 166.716 17.11 167.543 17.11 168.39Z" fill="white"/>
<path d="M17.11 151.28C17.138 151.859 17.0482 152.437 16.8459 152.98C16.6437 153.523 16.3334 154.02 15.9336 154.439C15.5339 154.859 15.0532 155.193 14.5205 155.421C13.9879 155.649 13.4144 155.767 12.835 155.767C12.2555 155.767 11.6821 155.649 11.1494 155.421C10.6168 155.193 10.136 154.859 9.73629 154.439C9.33656 154.02 9.0262 153.523 8.82399 152.98C8.62179 152.437 8.53197 151.859 8.55997 151.28C8.55997 150.433 8.30895 149.606 7.83866 148.902C7.36837 148.198 6.69992 147.65 5.91785 147.326C5.13579 147.002 4.27522 146.917 3.44498 147.082C2.61475 147.247 1.85212 147.655 1.25355 148.254C0.654983 148.852 0.247356 149.615 0.0822109 150.445C-0.0829338 151.275 0.00182488 152.136 0.325768 152.918C0.649711 153.7 1.19829 154.368 1.90213 154.839C2.60597 155.309 3.43347 155.56 4.27997 155.56C5.4151 155.56 6.50373 156.011 7.30639 156.814C8.10905 157.616 8.55997 158.705 8.55997 159.84C8.55997 160.975 8.10905 162.064 7.30639 162.866C6.50373 163.669 5.4151 164.12 4.27997 164.12C3.4322 164.116 2.60235 164.364 1.89567 164.832C1.18898 165.301 0.637296 165.968 0.310578 166.751C-0.0161392 167.533 -0.10317 168.394 0.0605214 169.226C0.224213 170.058 0.631253 170.823 1.23002 171.423C1.82879 172.023 2.59231 172.432 3.42375 172.597C4.25519 172.763 5.11709 172.678 5.90015 172.353C6.68321 172.028 7.35214 171.478 7.82212 170.773C8.2921 170.067 8.54194 169.238 8.53997 168.39C8.53997 167.258 8.98985 166.171 9.79063 165.371C10.5914 164.57 11.6775 164.12 12.81 164.12C13.9451 164.12 15.0337 163.669 15.8364 162.866C16.639 162.064 17.09 160.975 17.09 159.84C17.09 159.278 17.2007 158.721 17.4158 158.202C17.6309 157.683 17.9461 157.211 18.3436 156.814C18.741 156.416 19.2128 156.101 19.7321 155.886C20.2514 155.671 20.8079 155.56 21.37 155.56C22.2165 155.56 23.044 155.309 23.7478 154.839C24.4517 154.368 25.0002 153.7 25.3242 152.918C25.6481 152.136 25.7329 151.275 25.5677 150.445C25.4026 149.615 24.995 148.852 24.3964 148.254C23.7978 147.655 23.0352 147.247 22.205 147.082C21.3747 146.917 20.5142 147.002 19.7321 147.326C18.95 147.65 18.2816 148.198 17.8113 148.902C17.341 149.606 17.09 150.433 17.09 151.28L17.11 151.28Z" fill="white"/>
</g>
<defs>
<clipPath id="clip0_35_2429">
<rect width="395" height="613" fill="white" transform="translate(60)"/>
</clipPath>
<clipPath id="clip1_35_2429">
<rect width="55.31" height="23.71" fill="white" transform="translate(1 339.31) rotate(-90)"/>
</clipPath>
<clipPath id="clip2_35_2429">
<rect width="102.68" height="25.67" fill="white" transform="translate(0 249.68) rotate(-90)"/>
</clipPath>
</defs>
</svg>
