<svg width="543" height="11" viewBox="0 0 543 11" fill="none" xmlns="http://www.w3.org/2000/svg">
<path d="M309 5.19615L318.75 10.3923V5.12755e-08L309 5.19615Z" fill="white"/>
<path d="M627 5.19615L636.75 10.3923L636.75 5.12755e-08L627 5.19615Z" fill="white"/>
<path d="M291 5.19615L300.75 10.3923V5.12755e-08L291 5.19615Z" fill="white"/>
<path d="M609 5.19615L618.75 10.3923V5.12755e-08L609 5.19615Z" fill="white"/>
<path d="M273 5.19615L282 10.3923V8.01147e-08L273 5.19615Z" fill="white"/>
<path d="M591 5.19615L600.75 10.3923V5.12755e-08L591 5.19615Z" fill="white"/>
<path d="M253 5.19615L262.75 10.3923V5.12755e-08L253 5.19615Z" fill="white"/>
<path d="M572 5.19615L581 10.3923V8.01147e-08L572 5.19615Z" fill="white"/>
<path d="M234 5.19615L243.75 10.3923V5.12755e-08L234 5.19615Z" fill="white"/>
<path d="M552 5.19615L561.75 10.3923V5.12755e-08L552 5.19615Z" fill="white"/>
<path d="M216 5.19615L224.25 10.3923V1.08954e-07L216 5.19615Z" fill="white"/>
<path d="M534 5.19615L543 10.3923V8.01147e-08L534 5.19615Z" fill="white"/>
<path d="M198 5.19615L207 10.3923V8.01147e-08L198 5.19615Z" fill="white"/>
<path d="M516 5.19615L525.75 10.3923V5.12755e-08L516 5.19615Z" fill="white"/>
<path d="M178 5.19615L187.75 10.3923V5.12755e-08L178 5.19615Z" fill="white"/>
<path d="M497 5.19615L506 10.3923V8.01147e-08L497 5.19615Z" fill="white"/>
<path d="M159 5.19615L169.5 10.3923V2.24354e-08L159 5.19615Z" fill="white"/>
<path d="M477 5.19615L487.5 10.3923V2.24354e-08L477 5.19615Z" fill="white"/>
<path d="M140 5.19615L149 10.3923V8.01147e-08L140 5.19615Z" fill="white"/>
<path d="M458 5.19615L467.75 10.3923V5.12755e-08L458 5.19615Z" fill="white"/>
<path d="M120 5.19615L130.5 10.3923V1.98961e-08L120 5.19615Z" fill="white"/>
<path d="M439 5.19615L448.75 10.3923V5.12755e-08L439 5.19615Z" fill="white"/>
<path d="M102 5.19615L111.75 10.3923V4.89172e-08L102 5.19615Z" fill="white"/>
<path d="M421 5.19615L430 10.3923V8.01147e-08L421 5.19615Z" fill="white"/>
<path d="M84 5.19615L94.5 10.3923V1.98961e-08L84 5.19615Z" fill="white"/>
<path d="M402 5.19615L412.5 10.3923V2.24354e-08L402 5.19615Z" fill="white"/>
<path d="M65 5.19615L74.75 10.3923V5.12755e-08L65 5.19615Z" fill="white"/>
<path d="M383 5.19615L393.5 10.3923V2.24354e-08L383 5.19615Z" fill="white"/>
<path d="M45 5.19615L55.5 10.3923V1.40644e-08L45 5.19615Z" fill="white"/>
<path d="M364 5.19615L373.75 10.3923V5.12755e-08L364 5.19615Z" fill="white"/>
<path d="M27 5.19615L36.75 10.3923V4.10446e-08L27 5.19615Z" fill="white"/>
<path d="M346 5.19615L355 10.3923V8.01147e-08L346 5.19615Z" fill="white"/>
<path d="M9 5.19615L18.75 10.3923V2.69465e-08L9 5.19615Z" fill="white"/>
<path d="M327 5.19615L336.75 10.3923V5.12755e-08L327 5.19615Z" fill="white"/>
<path d="M300 5.19615L309.75 10.3923V5.12755e-08L300 5.19615Z" fill="white"/>
<path d="M618 5.19615L627.75 10.3923L627.75 5.12755e-08L618 5.19615Z" fill="white"/>
<path d="M282 5.19615L291 10.3923V8.01147e-08L282 5.19615Z" fill="white"/>
<path d="M600 5.19615L609.75 10.3923V5.12755e-08L600 5.19615Z" fill="white"/>
<path d="M263 5.19615L272.75 10.3923V5.12755e-08L263 5.19615Z" fill="white"/>
<path d="M581 5.19615L591.5 10.3923V2.24354e-08L581 5.19615Z" fill="white"/>
<path d="M243 5.19615L253.5 10.3923V2.24354e-08L243 5.19615Z" fill="white"/>
<path d="M562 5.19615L571.75 10.3923V5.12755e-08L562 5.19615Z" fill="white"/>
<path d="M224 5.19615L234.5 10.3923V2.24354e-08L224 5.19615Z" fill="white"/>
<path d="M542 5.19615L552.5 10.3923V2.24354e-08L542 5.19615Z" fill="white"/>
<path d="M207 5.19615L216 10.3923V8.01147e-08L207 5.19615Z" fill="white"/>
<path d="M525 5.19615L534.75 10.3923V5.12755e-08L525 5.19615Z" fill="white"/>
<path d="M188 5.19615L197.75 10.3923V5.12755e-08L188 5.19615Z" fill="white"/>
<path d="M506 5.19615L516.5 10.3923V2.24354e-08L506 5.19615Z" fill="white"/>
<path d="M169 5.19615L178.75 10.3923V5.12755e-08L169 5.19615Z" fill="white"/>
<path d="M488 5.19615L497 10.3923V8.01147e-08L488 5.19615Z" fill="white"/>
<path d="M149 5.19615L159.5 10.3923V2.24354e-08L149 5.19615Z" fill="white"/>
<path d="M467 5.19615L477.5 10.3923V2.24354e-08L467 5.19615Z" fill="white"/>
<path d="M131 5.19615L140 10.3923V8.01147e-08L131 5.19615Z" fill="white"/>
<path d="M449 5.19615L458.75 10.3923V5.12755e-08L449 5.19615Z" fill="white"/>
<path d="M111 5.19615L120.75 10.3923V4.89172e-08L111 5.19615Z" fill="white"/>
<path d="M430 5.19615L439 10.3923V8.01147e-08L430 5.19615Z" fill="white"/>
<path d="M94 5.19615L103 10.3923V7.79382e-08L94 5.19615Z" fill="white"/>
<path d="M413 5.19615L421.25 10.3923V1.08954e-07L413 5.19615Z" fill="white"/>
<path d="M75 5.19615L84.75 10.3923V4.89172e-08L75 5.19615Z" fill="white"/>
<path d="M393 5.19615L402.75 10.3923V5.12755e-08L393 5.19615Z" fill="white"/>
<path d="M56 5.19615L65 10.3923V8.01147e-08L56 5.19615Z" fill="white"/>
<path d="M374 5.19615L383.75 10.3923V5.12755e-08L374 5.19615Z" fill="white"/>
<path d="M36 5.19615L45.75 10.3923V4.3502e-08L36 5.19615Z" fill="white"/>
<path d="M355 5.19615L364 10.3923V8.01147e-08L355 5.19615Z" fill="white"/>
<path d="M18 5.19615L27.75 10.3923V3.72993e-08L18 5.19615Z" fill="white"/>
<path d="M336 5.19615L345.75 10.3923V5.12755e-08L336 5.19615Z" fill="white"/>
<path d="M0 5.19615L9.75 10.3923V0L0 5.19615Z" fill="white"/>
<path d="M318 5.19615L327.75 10.3923V5.12755e-08L318 5.19615Z" fill="white"/>
</svg>
