<svg width="544" height="12" viewBox="0 0 544 12" fill="none" xmlns="http://www.w3.org/2000/svg">
<path d="M234.75 5.99986L225 11.196V0.803711L234.75 5.99986Z" fill="white"/>
<path d="M-83.25 5.99986L-93 11.196L-93 0.803711L-83.25 5.99986Z" fill="white"/>
<path d="M252.75 5.99986L243 11.196V0.803711L252.75 5.99986Z" fill="white"/>
<path d="M-65.25 5.99986L-75 11.196V0.803711L-65.25 5.99986Z" fill="white"/>
<path d="M270.75 5.99986L261.75 11.196V0.803711L270.75 5.99986Z" fill="white"/>
<path d="M-47.25 5.99986L-57 11.196V0.803711L-47.25 5.99986Z" fill="white"/>
<path d="M290.75 5.99986L281 11.196V0.803711L290.75 5.99986Z" fill="white"/>
<path d="M-28.25 5.99986L-37.25 11.196V0.803711L-28.25 5.99986Z" fill="white"/>
<path d="M309.75 5.99986L300 11.196V0.803711L309.75 5.99986Z" fill="white"/>
<path d="M-8.25 5.99986L-18 11.196V0.803711L-8.25 5.99986Z" fill="white"/>
<path d="M327.75 5.99986L319.5 11.196V0.803711L327.75 5.99986Z" fill="white"/>
<path d="M9.75 5.99986L0.75 11.196V0.803711L9.75 5.99986Z" fill="white"/>
<path d="M345.75 5.99986L336.75 11.196V0.803711L345.75 5.99986Z" fill="white"/>
<path d="M27.75 5.99986L18 11.196V0.803711L27.75 5.99986Z" fill="white"/>
<path d="M365.75 5.99986L356 11.196V0.803711L365.75 5.99986Z" fill="white"/>
<path d="M46.75 5.99986L37.75 11.196V0.803711L46.75 5.99986Z" fill="white"/>
<path d="M384.75 5.99986L374.25 11.196V0.803711L384.75 5.99986Z" fill="white"/>
<path d="M66.75 5.99986L56.25 11.196V0.803711L66.75 5.99986Z" fill="white"/>
<path d="M403.75 5.99986L394.75 11.196V0.803711L403.75 5.99986Z" fill="white"/>
<path d="M85.75 5.99986L76 11.196V0.803711L85.75 5.99986Z" fill="white"/>
<path d="M423.75 5.99986L413.25 11.196V0.803711L423.75 5.99986Z" fill="white"/>
<path d="M104.75 5.99986L95 11.196V0.803711L104.75 5.99986Z" fill="white"/>
<path d="M441.75 5.99986L432 11.196V0.803711L441.75 5.99986Z" fill="white"/>
<path d="M122.75 5.99986L113.75 11.196V0.803711L122.75 5.99986Z" fill="white"/>
<path d="M459.75 5.99986L449.25 11.196V0.803711L459.75 5.99986Z" fill="white"/>
<path d="M141.75 5.99986L131.25 11.196V0.803711L141.75 5.99986Z" fill="white"/>
<path d="M478.75 5.99986L469 11.196V0.803711L478.75 5.99986Z" fill="white"/>
<path d="M160.75 5.99986L150.25 11.196V0.803711L160.75 5.99986Z" fill="white"/>
<path d="M498.75 5.99986L488.25 11.196V0.803711L498.75 5.99986Z" fill="white"/>
<path d="M179.75 5.99986L170 11.196V0.803711L179.75 5.99986Z" fill="white"/>
<path d="M516.75 5.99986L507 11.196V0.803711L516.75 5.99986Z" fill="white"/>
<path d="M197.75 5.99986L188.75 11.196V0.803711L197.75 5.99986Z" fill="white"/>
<path d="M534.75 5.99986L525 11.196V0.803711L534.75 5.99986Z" fill="white"/>
<path d="M216.75 5.99986L207 11.196V0.803711L216.75 5.99986Z" fill="white"/>
<path d="M243.75 5.99986L234 11.196V0.803711L243.75 5.99986Z" fill="white"/>
<path d="M-74.25 5.99986L-84 11.196L-84 0.803711L-74.25 5.99986Z" fill="white"/>
<path d="M261.75 5.99986L252.75 11.196V0.803711L261.75 5.99986Z" fill="white"/>
<path d="M-56.25 5.99986L-66 11.196V0.803711L-56.25 5.99986Z" fill="white"/>
<path d="M280.75 5.99986L271 11.196V0.803711L280.75 5.99986Z" fill="white"/>
<path d="M-37.25 5.99986L-47.75 11.196V0.803711L-37.25 5.99986Z" fill="white"/>
<path d="M300.75 5.99986L290.25 11.196V0.803711L300.75 5.99986Z" fill="white"/>
<path d="M-18.25 5.99986L-28 11.196V0.803711L-18.25 5.99986Z" fill="white"/>
<path d="M319.75 5.99986L309.25 11.196V0.803711L319.75 5.99986Z" fill="white"/>
<path d="M1.75 5.99986L-8.75 11.196V0.803711L1.75 5.99986Z" fill="white"/>
<path d="M336.75 5.99986L327.75 11.196V0.803711L336.75 5.99986Z" fill="white"/>
<path d="M18.75 5.99986L9 11.196V0.803711L18.75 5.99986Z" fill="white"/>
<path d="M355.75 5.99986L346 11.196V0.803711L355.75 5.99986Z" fill="white"/>
<path d="M37.75 5.99986L27.25 11.196V0.803711L37.75 5.99986Z" fill="white"/>
<path d="M374.75 5.99986L365 11.196V0.803711L374.75 5.99986Z" fill="white"/>
<path d="M55.75 5.99986L46.75 11.196V0.803711L55.75 5.99986Z" fill="white"/>
<path d="M394.75 5.99986L384.25 11.196V0.803711L394.75 5.99986Z" fill="white"/>
<path d="M76.75 5.99986L66.25 11.196V0.803711L76.75 5.99986Z" fill="white"/>
<path d="M412.75 5.99986L403.75 11.196V0.803711L412.75 5.99986Z" fill="white"/>
<path d="M94.75 5.99986L85 11.196V0.803711L94.75 5.99986Z" fill="white"/>
<path d="M432.75 5.99986L423 11.196V0.803711L432.75 5.99986Z" fill="white"/>
<path d="M113.75 5.99986L104.75 11.196V0.803711L113.75 5.99986Z" fill="white"/>
<path d="M449.75 5.99986L440.75 11.196V0.803711L449.75 5.99986Z" fill="white"/>
<path d="M130.75 5.99986L122.5 11.196V0.803711L130.75 5.99986Z" fill="white"/>
<path d="M468.75 5.99986L459 11.196V0.803711L468.75 5.99986Z" fill="white"/>
<path d="M150.75 5.99986L141 11.196V0.803711L150.75 5.99986Z" fill="white"/>
<path d="M487.75 5.99986L478.75 11.196V0.803711L487.75 5.99986Z" fill="white"/>
<path d="M169.75 5.99986L160 11.196V0.803711L169.75 5.99986Z" fill="white"/>
<path d="M507.75 5.99986L498 11.196V0.803711L507.75 5.99986Z" fill="white"/>
<path d="M188.75 5.99986L179.75 11.196V0.803711L188.75 5.99986Z" fill="white"/>
<path d="M525.75 5.99986L516 11.196V0.803711L525.75 5.99986Z" fill="white"/>
<path d="M207.75 5.99986L198 11.196V0.803711L207.75 5.99986Z" fill="white"/>
<path d="M543.75 5.99986L534 11.196V0.803711L543.75 5.99986Z" fill="white"/>
<path d="M225.75 5.99986L216 11.196V0.803711L225.75 5.99986Z" fill="white"/>
</svg>
