<svg width="14" height="20" viewBox="0 0 14 20" fill="none" xmlns="http://www.w3.org/2000/svg">
<circle cx="7" cy="11" r="7" fill="white"/>
<path d="M7.01431 15.192C6.10765 15.192 5.32365 15.032 4.66231 14.712C4.01165 14.392 3.50498 13.9067 3.14231 13.256C2.79031 12.5947 2.61431 11.768 2.61431 10.776C2.61431 9.784 2.79031 8.96267 3.14231 8.312C3.50498 7.65067 4.01165 7.16 4.66231 6.84C5.32365 6.50933 6.10765 6.344 7.01431 6.344C7.62231 6.344 8.18765 6.41333 8.71031 6.552C9.23298 6.69067 9.68631 6.904 10.0703 7.192C10.465 7.46933 10.769 7.83733 10.9823 8.296C11.1956 8.744 11.3023 9.29333 11.3023 9.944H8.42231C8.42231 9.592 8.36898 9.30933 8.26231 9.096C8.15565 8.872 7.99565 8.712 7.78231 8.616C7.57965 8.50933 7.32365 8.456 7.01431 8.456C6.67298 8.456 6.39565 8.52533 6.18231 8.664C5.97965 8.80267 5.83031 9.01067 5.73431 9.288C5.63831 9.55467 5.59031 9.89067 5.59031 10.296V11.272C5.59031 11.6667 5.63831 12.0027 5.73431 12.28C5.84098 12.5467 6.00098 12.7493 6.21431 12.888C6.43831 13.0267 6.72631 13.096 7.07831 13.096C7.39831 13.096 7.66498 13.048 7.87831 12.952C8.09165 12.8453 8.25165 12.68 8.35831 12.456C8.47565 12.232 8.53431 11.944 8.53431 11.592H11.3023C11.3023 12.2213 11.1956 12.7653 10.9823 13.224C10.769 13.6827 10.465 14.056 10.0703 14.344C9.68631 14.632 9.23298 14.8453 8.71031 14.984C8.18765 15.1227 7.62231 15.192 7.01431 15.192Z" fill="black"/>
</svg>
