<svg width="150" height="144" viewBox="0 0 150 144" fill="none" xmlns="http://www.w3.org/2000/svg">
<path d="M0 23.2955V0.399351H19.9626C21.2397 0.399351 22.3936 0.643399 23.4242 1.13149C24.4772 1.5974 25.3062 2.25189 25.9111 3.09497C26.5384 3.93804 26.8521 4.91423 26.8521 6.02354C26.8521 7.13285 26.6617 8.04248 26.2808 8.75243C25.8999 9.46239 25.3846 10.0281 24.7349 10.4497C24.1075 10.849 23.413 11.1485 22.6512 11.3482V11.4813C23.525 11.6588 24.3204 11.9694 25.0373 12.4131C25.7543 12.8347 26.3256 13.4337 26.7513 14.2102C27.177 14.9867 27.3898 15.9851 27.3898 17.2054C27.3898 18.4256 27.065 19.4905 26.4152 20.4002C25.7879 21.3098 24.9253 22.0197 23.8275 22.53C22.7296 23.0403 21.5086 23.2955 20.1643 23.2955H0ZM8.30097 17.9708H16.8372C17.4421 17.9708 17.935 17.7933 18.3159 17.4383C18.6968 17.0833 18.8872 16.5509 18.8872 15.8409C18.8872 15.5081 18.7976 15.2086 18.6184 14.9424C18.4615 14.6539 18.2263 14.4321 17.9126 14.2768C17.5989 14.1215 17.2405 14.0438 16.8372 14.0438H8.30097V17.9708ZM8.30097 9.31818H16.2995C16.7252 9.31818 17.0836 9.24053 17.3749 9.08523C17.6886 8.90774 17.9238 8.66369 18.0806 8.35308C18.2599 8.04248 18.3495 7.65422 18.3495 7.18831C18.3495 6.70022 18.1479 6.28977 17.7446 5.95698C17.3413 5.602 16.8596 5.42451 16.2995 5.42451H8.30097V9.31818Z" fill="white"/>
<path d="M31.2441 23.2955V0.399351H39.5451V17.0057H54.5339V23.2955H31.2441Z" fill="white"/>
<path d="M55.4458 23.2955L66.6369 0.399351H75.7781L86.9693 23.2955H78.0634L76.6855 20.267H65.3599L64.0156 23.2955H55.4458ZM67.8804 14.5763H74.1649L72.5518 10.7159C72.4846 10.5384 72.395 10.3055 72.2829 10.017C72.1709 9.70644 72.0477 9.36255 71.9133 8.98539C71.7788 8.60822 71.6444 8.23106 71.51 7.8539C71.398 7.47673 71.2859 7.13285 71.1739 6.82224H70.9387C70.8042 7.1994 70.6474 7.63203 70.4682 8.12013C70.2889 8.60822 70.1097 9.08523 69.9304 9.55114C69.7736 10.017 69.628 10.4053 69.4935 10.7159L67.8804 14.5763Z" fill="white"/>
<path d="M102.263 23.6948C98.9243 23.6948 96.1573 23.2511 93.9617 22.3636C91.766 21.454 90.1192 20.1228 89.0214 18.3701C87.946 16.6174 87.4083 14.4432 87.4083 11.8474C87.4083 8.05357 88.6741 5.13609 91.2059 3.09497C93.7376 1.03166 97.4456 0 102.33 0C105.018 0 107.382 0.421537 109.421 1.26461C111.46 2.0855 113.051 3.23918 114.193 4.72565C115.358 6.18993 115.941 7.88717 115.941 9.81737H107.875C107.875 9.01867 107.64 8.30871 107.169 7.6875C106.699 7.06629 106.038 6.57819 105.186 6.22321C104.335 5.86824 103.338 5.69075 102.195 5.69075C100.762 5.69075 99.5741 5.94589 98.6331 6.45617C97.7145 6.96645 97.0311 7.65422 96.583 8.51948C96.1573 9.38474 95.9445 10.3498 95.9445 11.4148V12.2468C95.9445 13.2673 96.1573 14.2213 96.583 15.1088C97.0311 15.974 97.7032 16.6729 98.5994 17.2054C99.4956 17.7378 100.638 18.0041 102.027 18.0041C103.304 18.0041 104.391 17.8377 105.287 17.5049C106.206 17.1721 106.9 16.7062 107.371 16.1071C107.864 15.5081 108.11 14.8093 108.11 14.0105H115.941C115.941 15.8742 115.392 17.5381 114.294 19.0024C113.219 20.4667 111.661 21.6204 109.623 22.4635C107.584 23.2844 105.13 23.6948 102.263 23.6948Z" fill="white"/>
<path d="M119.955 23.2955V0.399351H128.256V10.5162L139.447 0.399351H149.731L139.515 9.75081L150 23.2955H139.884L133.398 14.6761L128.256 18.8028V23.2955H119.955Z" fill="white"/>
<path d="M150 22.9771H0V110.344L150 144V22.9771Z" fill="white"/>
<path d="M14.4363 55.2883L7.85706 32.3115H16.0648L18.7356 42.4975C18.8876 43.0318 19.0179 43.555 19.1264 44.0671C19.235 44.5792 19.3327 45.0467 19.4196 45.4697C19.5064 45.8705 19.5716 46.1933 19.615 46.4382H19.843C19.8864 46.1933 19.9407 45.9039 20.0058 45.5699C20.071 45.236 20.1361 44.8909 20.2013 44.5346C20.2664 44.1784 20.3424 43.8222 20.4292 43.4659C20.5161 43.1097 20.5921 42.7869 20.6572 42.4975L23.1977 32.3115H33.0014L35.5094 42.4975C35.6179 42.8982 35.7156 43.3435 35.8025 43.8333C35.9111 44.3009 36.0088 44.7684 36.0956 45.236C36.1825 45.7035 36.2585 46.1043 36.3236 46.4382H36.5516C36.595 46.1711 36.6493 45.8705 36.7145 45.5365C36.8013 45.2026 36.8773 44.8575 36.9425 44.5012C37.0293 44.145 37.1162 43.7999 37.203 43.4659C37.2899 43.1097 37.3659 42.7869 37.431 42.4975L40.1344 32.3115H47.593L41.0138 55.2883H31.7638L28.5393 42.3639C28.4524 41.9854 28.3547 41.6069 28.2462 41.2284C28.1593 40.8499 28.0833 40.5048 28.0182 40.1931C27.953 39.8814 27.8987 39.6365 27.8553 39.4584H27.6273C27.5622 39.7255 27.4862 40.0372 27.3993 40.3935C27.3125 40.7497 27.2256 41.1059 27.1388 41.4622C27.0736 41.7961 27.0085 42.0967 26.9433 42.3639L23.6863 55.2883H14.4363Z" fill="black"/>
<path d="M45.7416 55.2883L56.5875 32.3115H65.4467L76.2927 55.2883H67.6615L66.3261 52.2492H55.3499L54.047 55.2883H45.7416ZM57.7926 46.5384H63.8833L62.3199 42.6644C62.2548 42.4863 62.1679 42.2525 62.0594 41.9631C61.9508 41.6514 61.8314 41.3063 61.7011 40.9278C61.5708 40.5493 61.4405 40.1708 61.3102 39.7923C61.2017 39.4138 61.0931 39.0687 60.9845 38.757H60.7565C60.6263 39.1355 60.4743 39.5697 60.3006 40.0595C60.1269 40.5493 59.9531 41.028 59.7794 41.4956C59.6274 41.9631 59.4863 42.3527 59.356 42.6644L57.7926 46.5384Z" fill="black"/>
<path d="M78.9667 55.2883V32.3115H87.0116V48.9764H101.538V55.2883H78.9667Z" fill="black"/>
<path d="M104.571 55.2883V32.3115H112.616V48.9764H127.143V55.2883H104.571Z" fill="black"/>
</svg>
