<svg width="147" height="146" viewBox="0 0 147 146" fill="none" xmlns="http://www.w3.org/2000/svg">
<g filter="url(#filter0_d_21_156)">
<circle cx="73.7054" cy="72.7313" r="60" transform="rotate(13.9977 73.7054 72.7313)" fill="#76F5CF"/>
</g>
<circle cx="74" cy="73" r="28" transform="rotate(13.9977 74 73)" stroke="black" stroke-width="2"/>
<circle cx="74" cy="73" r="54" transform="rotate(13.9977 74 73)" stroke="black" stroke-width="2"/>
<path d="M92.1091 62.2565C92.2427 61.7206 91.9166 61.1779 91.3807 61.0443L82.6479 58.8674C82.112 58.7338 81.5693 59.0599 81.4357 59.5958C81.3021 60.1317 81.6283 60.6744 82.1642 60.808L89.9266 62.743L87.9915 70.5055C87.858 71.0414 88.1841 71.5841 88.72 71.7177C89.2558 71.8512 89.7986 71.5251 89.9321 70.9892L92.1091 62.2565ZM77.1076 71.6128L91.6539 62.8717L90.6237 61.1575L76.0775 69.8985L77.1076 71.6128Z" fill="black"/>
<path d="M55.0152 82.897C54.8816 83.4329 55.2077 83.9756 55.7436 84.1092L64.4763 86.2861C65.0122 86.4197 65.5549 86.0936 65.6885 85.5577C65.8221 85.0218 65.496 84.4791 64.9601 84.3455L57.1977 82.4104L59.1327 74.648C59.2663 74.1121 58.9402 73.5694 58.4043 73.4358C57.8684 73.3022 57.3257 73.6283 57.1921 74.1642L55.0152 82.897ZM70.0167 73.5406L55.4704 82.2817L56.5006 83.996L71.0468 75.2549L70.0167 73.5406Z" fill="black"/>
<path d="M62.0296 54.7581C62.1632 54.2222 62.7059 53.8961 63.2418 54.0297L71.9745 56.2066C72.5104 56.3402 72.8365 56.8829 72.7029 57.4188C72.5694 57.9547 72.0266 58.2808 71.4908 58.1473L63.7283 56.2122L61.7933 63.9746C61.6597 64.5105 61.117 64.8366 60.5811 64.7031C60.0452 64.5695 59.7191 64.0268 59.8526 63.4909L62.0296 54.7581ZM70.8838 70.0613L62.1427 55.5151L63.857 54.4849L72.5981 69.0312L70.8838 70.0613Z" fill="black"/>
<path d="M85.0947 90.3953C84.9611 90.9312 84.4184 91.2573 83.8825 91.1238L75.1497 88.9468C74.6139 88.8132 74.2877 88.2705 74.4213 87.7346C74.5549 87.1987 75.0976 86.8726 75.6335 87.0062L83.396 88.9413L85.331 81.1788C85.4646 80.6429 86.0073 80.3168 86.5432 80.4504C87.0791 80.584 87.4052 81.1267 87.2716 81.6626L85.0947 90.3953ZM76.2404 75.0921L84.9815 89.6384L83.2672 90.6685L74.5262 76.1223L76.2404 75.0921Z" fill="black"/>
<circle cx="73.5621" cy="72.5767" r="1.5" transform="rotate(13.9977 73.5621 72.5767)" fill="black"/>
<g clip-path="url(#clip0_21_156)">
<path d="M74.293 35.2345L74.145 35.2368L73.0149 28.8004L71.5756 28.8547L70.8584 35.3472L70.7103 35.3495L69.5507 26.3346L68.0542 26.3784L69.5237 36.5386L71.7399 36.4677L72.2929 30.2585L72.3839 30.2457L73.3455 36.4086L75.5435 36.3402L76.3655 26.1171L74.869 26.1608L74.293 35.2345Z" fill="black"/>
<path d="M83.4389 36.1561L82.4906 36.1412C82.1793 36.1157 81.8698 36.0724 81.5634 36.0118C81.1772 35.9833 80.8008 35.8767 80.4568 35.6984C80.1128 35.5202 79.8084 35.274 79.562 34.9748C79.2808 34.5805 79.1357 34.1052 79.1486 33.621L84.1767 34.5471C84.268 34.2378 84.3414 33.9235 84.3965 33.6058C84.6208 32.6479 84.4788 31.6406 83.9984 30.7821C83.4284 30.0727 82.616 29.6001 81.7185 29.4556C80.8209 29.311 79.9019 29.5048 79.1389 29.9994C78.3253 30.6802 77.7986 31.6436 77.6641 32.6969C77.5184 33.2152 77.4821 33.7582 77.5572 34.2913C77.6324 34.8245 77.8175 35.3362 78.1007 35.7939C78.7867 36.629 79.7752 37.1578 80.8495 37.2644L81.8364 37.4225C82.2455 37.4636 82.6568 37.48 83.0678 37.4718L83.4389 36.1561ZM80.1217 31.0499C80.3409 30.8677 80.5995 30.7391 80.8769 30.6742C81.1543 30.6093 81.4429 30.6099 81.7201 30.676C81.9713 30.7056 82.2123 30.7926 82.4247 30.9301C82.637 31.0677 82.8151 31.2521 82.9451 31.4693C83.2278 31.9599 83.3098 32.5411 83.1737 33.0907L79.3688 32.4194C79.4954 31.9188 79.7587 31.4635 80.1295 31.1046L80.1217 31.0499Z" fill="black"/>
<path d="M95.4792 43.2654C95.832 43.3591 96.2047 43.3453 96.5496 43.226C96.8361 43.0971 97.0883 42.9024 97.2858 42.6577L97.4103 42.7516L96.5168 44.1781L98.5618 45.5248L99.2545 44.5168L98.2973 43.6484L100.102 41.053C100.373 40.7187 100.565 40.3271 100.663 39.9078C100.762 39.4885 100.764 39.0523 100.67 38.6319C100.338 37.6845 99.6875 36.8825 98.8288 36.3646L97.5884 35.4619L96.693 36.4799L98.1643 37.573C98.6276 37.8761 99.0011 38.2983 99.2456 38.7955C99.3259 39.0003 99.35 39.2229 99.3154 39.4402C99.2807 39.6574 99.1887 39.8614 99.0488 40.0309L98.83 40.3219C98.7914 40.2615 98.7461 40.2055 98.6952 40.1551C98.3967 39.8767 98.0757 39.6237 97.7353 39.3986C97.0387 38.8329 96.18 38.5048 95.2843 38.4622C94.9396 38.4736 94.603 38.5693 94.3038 38.741C94.0046 38.9127 93.7521 39.1553 93.5681 39.4473C93.3793 39.6853 93.2449 39.9618 93.1744 40.2574C93.1039 40.5531 93.0989 40.8606 93.16 41.1584C93.3595 41.7955 93.7858 42.3372 94.3578 42.6803C94.6929 42.942 95.0729 43.1404 95.4792 43.2654ZM94.6995 40.2354C95.163 39.5755 95.9293 39.6161 97.0192 40.3729L97.7847 40.9338C97.9204 41.0433 98.0486 41.1617 98.1686 41.2884L97.9213 41.6392C97.765 41.869 97.5454 42.0484 97.2891 42.1556C96.9911 42.2828 96.6648 42.3288 96.3432 42.2889C95.941 42.2244 95.561 42.0609 95.2373 41.8131C94.9364 41.6365 94.7071 41.3599 94.5891 41.0313C94.5475 40.8987 94.5358 40.7585 94.5549 40.6208C94.574 40.4832 94.6234 40.3516 94.6995 40.2354Z" fill="black"/>
<path d="M100.964 46.1151L99.8074 44.8847L98.8213 45.7856L102.278 49.5157L103.264 48.615L101.994 47.2334L103.422 45.9173C103.983 45.3262 104.69 44.8934 105.471 44.6622C105.757 44.5886 106.057 44.5965 106.338 44.6849C106.62 44.7733 106.871 44.9387 107.063 45.1624C107.175 45.2675 107.258 45.3994 107.304 45.5457C107.351 45.6919 107.36 45.8477 107.329 45.9982C107.19 46.3902 106.943 46.7344 106.616 46.9906L107.645 48.1088C108.253 47.6341 108.688 46.9722 108.882 46.2251C108.918 45.8987 108.876 45.5684 108.758 45.2618C108.641 44.9552 108.452 44.6811 108.207 44.4623C108.035 44.2367 107.816 44.0517 107.564 43.9207C107.312 43.7897 107.035 43.7158 106.752 43.7043C106.469 43.6928 106.186 43.7439 105.925 43.8541C105.664 43.9643 105.43 44.1307 105.241 44.3417L105.223 44.2143L106.472 42.6817L104.742 40.8075L103.759 41.7266L104.721 42.7614L100.964 46.1151Z" fill="black"/>
<path d="M107.746 50.1384C107.267 50.3804 106.842 50.7183 106.498 51.1311C106.154 51.5438 105.899 52.0227 105.747 52.5383C105.555 53.6251 105.792 54.7444 106.409 55.6592C106.536 55.9014 106.723 56.1724 106.935 56.4955C107.167 56.8371 107.424 57.161 107.703 57.4648L108.754 56.6292C108.536 56.3998 108.352 56.1471 108.15 55.8969C107.964 55.6455 107.79 55.3847 107.631 55.1154C107.201 54.4892 107.033 53.7193 107.162 52.9705C107.283 52.5054 107.541 52.0873 107.902 51.77L110.511 56.1958L111.374 55.7396C112.255 55.2968 112.936 54.5372 113.282 53.6127C113.414 53.1906 113.45 52.7444 113.388 52.3064C113.327 51.8684 113.168 51.4497 112.925 51.0805C112.724 50.6621 112.432 50.2943 112.07 50.0044C111.708 49.7145 111.285 49.5099 110.834 49.4059C109.748 49.2429 108.642 49.5052 107.746 50.1384ZM110.403 50.8229C110.686 50.8675 110.954 50.9778 111.187 51.145C111.42 51.3122 111.611 51.5316 111.744 51.7857C111.874 51.9992 111.959 52.237 111.993 52.4845C112.028 52.7319 112.013 52.9839 111.947 53.2249C111.734 53.7534 111.343 54.19 110.841 54.4584L108.89 51.1476C109.334 50.9181 109.831 50.8096 110.33 50.8332L110.403 50.8229Z" fill="black"/>
<path d="M110.865 67.1263L111.078 68.6384L115.318 68.1892C116.773 67.9841 117.56 68.5607 117.685 69.7135C117.714 69.8963 117.702 70.0832 117.65 70.2608C117.598 70.4384 117.507 70.6023 117.385 70.7405C117.248 70.8873 117.084 71.0057 116.901 71.0888C116.719 71.1719 116.522 71.2181 116.321 71.2248L111.403 71.7325L111.616 73.2446L116.535 72.7369C117.284 72.702 117.993 72.3901 118.526 71.8616C118.872 71.3731 119.058 70.7895 119.06 70.1906C119.062 69.5918 118.879 69.0068 118.537 68.5158C118.374 68.3645 118.183 68.2474 117.975 68.1714C117.767 68.0954 117.545 68.0621 117.324 68.0736L117.306 67.9461L121.801 67.461L121.588 65.9489L110.865 67.1263Z" fill="black"/>
<path d="M117.431 78.7046L112.53 78.1508L112.846 75.2635L111.511 75.1358L111.195 78.0231L111.052 79.3809L110.789 81.8521L112.108 82.0005L112.356 79.6802L117.273 80.2133L117.782 80.2715L118.177 80.3088L118.593 80.3617L119.033 76.3793L117.695 76.2335L117.431 78.7046Z" fill="black"/>
<path d="M121.053 78.7328C120.771 78.713 120.492 78.7987 120.27 78.9732C120.056 79.1491 119.919 79.4016 119.887 79.6774C119.869 79.8167 119.879 79.9582 119.917 80.0934C119.956 80.2286 120.021 80.3546 120.11 80.4636C120.195 80.5756 120.304 80.6678 120.429 80.7336C120.553 80.7995 120.69 80.8374 120.831 80.8449C120.97 80.8624 121.111 80.8518 121.246 80.8136C121.381 80.7755 121.507 80.7105 121.616 80.6228C121.83 80.4469 121.968 80.1943 121.999 79.9186C122.018 79.7793 122.007 79.6377 121.969 79.5025C121.931 79.3673 121.866 79.2413 121.777 79.1324C121.691 79.0184 121.582 78.9239 121.458 78.855C121.333 78.7861 121.195 78.7445 121.053 78.7328Z" fill="black"/>
<path d="M116.483 84.8766L116.04 86.2026L111.384 84.6293L111.919 83.0304L110.652 82.5958L110.117 84.1948L109.637 85.656L109.031 87.4136L110.298 87.8481L110.901 86.0723L112.732 86.6875C113.5 86.9152 114.197 87.3348 114.759 87.9067C114.951 88.1325 115.074 88.4082 115.116 88.7017C115.157 88.9952 115.114 89.2944 114.992 89.5644C114.954 89.7126 114.88 89.8488 114.776 89.9608C114.672 90.0728 114.541 90.157 114.397 90.2058C113.98 90.2678 113.554 90.2119 113.168 90.0446L112.703 91.485C113.41 91.7788 114.191 91.8441 114.937 91.6718C115.231 91.5474 115.491 91.3545 115.695 91.1092C115.899 90.8638 116.042 90.5732 116.111 90.2614C116.243 90.0047 116.313 89.7203 116.315 89.4314C116.317 89.1424 116.251 88.8571 116.123 88.5984C115.994 88.3397 115.806 88.1149 115.575 87.9423C115.344 87.7697 115.075 87.6541 114.79 87.6049L114.861 87.4464L116.77 87.8276L117.161 86.6576L117.603 85.3134L116.483 84.8766Z" fill="black"/>
<path d="M114.07 97.8882C113.801 97.9589 113.57 98.1322 113.427 98.3711C113.284 98.61 113.239 98.8955 113.304 99.1666C113.371 99.4407 113.545 99.6768 113.786 99.8233C114.032 99.9678 114.324 100.013 114.602 99.9498C114.738 99.9139 114.866 99.851 114.978 99.7651C115.09 99.6791 115.184 99.5717 115.254 99.4491C115.328 99.3319 115.376 99.2003 115.395 99.063C115.414 98.9258 115.404 98.786 115.365 98.6531C115.332 98.5166 115.272 98.3883 115.188 98.2754C115.105 98.1626 115 98.0677 114.879 97.9963C114.758 97.925 114.624 97.8786 114.485 97.86C114.346 97.8415 114.205 97.8511 114.07 97.8882Z" fill="black"/>
<path d="M112.862 94.3239L111.604 96.4521L107.368 93.9093L108.853 91.4147L107.701 90.7411L106.14 93.3578L105.434 94.535L104.233 96.5437L105.388 97.2355L106.589 95.2268L110.822 97.7514L111.977 98.4432L114.017 95.0157L112.862 94.3239Z" fill="black"/>
<path d="M102.247 98.7744L105.386 101.695C106.429 102.644 106.521 103.56 105.771 104.427C105.651 104.571 105.504 104.688 105.337 104.772C105.17 104.856 104.988 104.906 104.802 104.917C104.61 104.913 104.421 104.869 104.247 104.788C104.072 104.707 103.917 104.591 103.789 104.447L100.16 101.075L99.1296 102.187L102.74 105.561C103.259 106.113 103.97 106.445 104.726 106.489C105.06 106.478 105.387 106.396 105.687 106.248C105.986 106.1 106.25 105.89 106.461 105.631C106.837 105.284 107.091 104.825 107.185 104.321C107.198 104.1 107.163 103.878 107.082 103.672C107.002 103.465 106.878 103.278 106.719 103.123L106.834 103.014L107.918 103.865L108.871 102.857L103.312 97.6397L102.247 98.7744Z" fill="black"/>
<path d="M97.9727 104.245C97.56 104.127 97.1252 104.11 96.7046 104.195C96.2841 104.28 95.8901 104.465 95.5558 104.734C95.1285 105 94.8001 105.399 94.6212 105.869C94.5636 106.08 94.5497 106.3 94.5801 106.516C94.6106 106.732 94.6848 106.94 94.7984 107.126L94.6712 107.144L94.1372 106.384C93.7467 105.875 93.5464 105.246 93.5712 104.605C93.6262 104.301 93.7452 104.011 93.9202 103.756C94.0953 103.5 94.3224 103.285 94.5867 103.124L96.5532 101.677L95.6925 100.572L93.9133 101.9C93.4553 102.178 93.0572 102.544 92.7425 102.978C92.4277 103.411 92.2026 103.903 92.0803 104.425C92.0002 105.511 92.3376 106.587 93.0236 107.432L96.9814 113.136L98.1127 112.344L97.4237 111.141C97.5721 111.306 97.7523 111.439 97.9536 111.532C98.1548 111.625 98.3729 111.676 98.5944 111.682C99.105 111.675 99.6004 111.507 100.011 111.204C100.378 110.977 100.686 110.665 100.908 110.294C101.13 109.923 101.26 109.504 101.288 109.073C101.262 108.011 100.889 106.987 100.227 106.157C99.7 105.294 98.9096 104.623 97.9727 104.245ZM99.0383 110.356C98.828 110.508 98.5839 110.606 98.3272 110.642C98.0705 110.678 97.8089 110.651 97.5649 110.564C96.9834 110.316 96.4948 109.891 96.1691 109.349L95.8685 108.926C95.4683 108.423 95.244 107.802 95.2297 107.159C95.2409 106.898 95.3168 106.645 95.4506 106.422C95.5843 106.199 95.7717 106.012 95.9956 105.88C96.2135 105.722 96.4666 105.62 96.7328 105.583C96.9991 105.545 97.2705 105.573 97.5235 105.665C98.1434 105.946 98.6622 106.411 99.0099 106.997C99.4527 107.559 99.7225 108.237 99.7862 108.95C99.7988 109.23 99.736 109.508 99.6045 109.756C99.4729 110.003 99.2774 110.21 99.0383 110.356Z" fill="black"/>
<path d="M82.0076 114.299C81.6548 114.161 81.2705 114.125 80.8985 114.195C80.525 114.259 80.1761 114.424 79.8897 114.672C79.6176 114.915 79.4063 115.218 79.2726 115.558C79.1438 115.913 79.1083 116.296 79.1694 116.669C79.2366 117.042 79.401 117.39 79.6458 117.679C79.8885 117.952 80.1915 118.164 80.5307 118.298C80.8841 118.43 81.2678 118.46 81.6373 118.383C82.0136 118.338 82.3668 118.178 82.6486 117.925C82.9253 117.679 83.1366 117.368 83.2632 117.021C83.3929 116.672 83.4294 116.295 83.3689 115.928C83.3051 115.554 83.1404 115.205 82.8925 114.918C82.6549 114.64 82.3502 114.427 82.0076 114.299Z" fill="black"/>
<path d="M63.4101 110.288C62.5424 110.062 61.6404 110.001 60.7502 110.106L60.748 111.407C61.4447 111.304 62.1545 111.337 62.8392 111.502C65.0725 112.079 65.8701 113.657 65.1956 116.242C65.0171 117.244 64.4867 118.149 63.7003 118.794C63.353 119.031 62.9557 119.185 62.5393 119.244C62.1229 119.303 61.6986 119.264 61.2992 119.132C60.9307 119.045 60.5915 118.862 60.3154 118.602C60.0352 118.347 59.8238 118.025 59.7012 117.667L58.4166 118.424C58.5613 118.917 58.8706 119.346 59.2928 119.638C59.7973 120.01 60.371 120.276 60.9801 120.422C61.5868 120.611 62.2277 120.663 62.8567 120.575C63.4858 120.486 64.0873 120.259 64.6181 119.909C65.7213 119.063 66.4736 117.839 66.7307 116.471C67.5727 113.101 66.4718 111.083 63.4101 110.288Z" fill="black"/>
<path d="M58.6412 109.753C58.4995 109.318 58.2731 108.915 57.9749 108.568C57.6768 108.221 57.313 107.937 56.9045 107.732C56.496 107.527 56.0508 107.405 55.595 107.374C55.1392 107.342 54.6818 107.401 54.2491 107.548C53.3161 107.99 52.5739 108.754 52.1594 109.7C51.6235 110.607 51.4318 111.676 51.6194 112.712C51.7611 113.147 51.9875 113.55 52.2856 113.897C52.5837 114.244 52.9475 114.528 53.3561 114.733C53.7646 114.938 54.2097 115.06 54.6655 115.091C55.1213 115.123 55.5787 115.064 56.0114 114.917C56.9397 114.469 57.6798 113.706 58.1011 112.764C58.6324 111.857 58.8238 110.789 58.6412 109.753ZM56.702 112.051C56.4344 112.666 55.9916 113.187 55.4292 113.55C55.2078 113.679 54.9568 113.749 54.7006 113.753C54.4443 113.756 54.1914 113.693 53.9664 113.57C53.7364 113.462 53.5375 113.296 53.3884 113.09C53.2393 112.884 53.1448 112.643 53.1136 112.39C53.0868 111.72 53.2433 111.056 53.5662 110.468C53.828 109.85 54.2721 109.328 54.839 108.97C55.0585 108.835 55.3102 108.762 55.5676 108.758C55.8249 108.755 56.0786 108.821 56.3018 108.949C56.535 109.053 56.7367 109.218 56.8864 109.425C57.0361 109.632 57.1287 109.875 57.1546 110.13C57.1814 110.8 57.0249 111.464 56.702 112.051Z" fill="black"/>
<path d="M51.3341 104.503L48.6501 107.836C47.765 108.926 46.8633 109.109 45.9396 108.348C45.7879 108.241 45.6602 108.103 45.5643 107.944C45.4684 107.785 45.4065 107.607 45.3826 107.423C45.3743 107.039 45.5144 106.666 45.7739 106.383L48.9368 102.5L47.7459 101.553L44.5805 105.418C44.0915 105.958 43.8146 106.657 43.8006 107.386C43.8325 107.726 43.9368 108.056 44.1067 108.352C44.2765 108.649 44.5077 108.906 44.7849 109.105C45.1658 109.445 45.6433 109.657 46.1505 109.711C46.3692 109.711 46.5854 109.664 46.7838 109.572C46.9823 109.479 47.1583 109.345 47.2997 109.178L47.4242 109.272L46.6585 110.42L47.7456 111.289L52.4757 105.364L51.3341 104.503Z" fill="black"/>
<path d="M42.7888 101.527L43.3559 101.076C43.6995 100.843 43.9913 100.542 44.2132 100.191C44.4351 99.8398 44.5821 99.4467 44.6452 99.0361C44.6136 98.1389 44.2556 97.2841 43.6385 96.6326C43.4155 96.3668 43.1926 96.1009 42.9747 95.8715C42.7569 95.6421 42.5026 95.4178 42.2483 95.1936L41.3271 96.1596L41.9755 96.8113C42.1581 96.992 42.3281 97.1855 42.4838 97.3899C42.8448 97.763 43.0589 98.2541 43.0868 98.7727C43.0493 99.0076 42.9638 99.2323 42.8357 99.4326C42.7075 99.6329 42.5394 99.8045 42.3419 99.9367L41.3924 100.702L39.7224 102.015L37.4899 99.3388L36.439 100.174L38.674 102.869L36.874 104.312L37.8385 105.495L39.6204 104.055L40.8312 105.538L41.864 104.705L40.6713 103.219L42.7524 101.532L42.7888 101.527Z" fill="black"/>
<path d="M34.4426 92.9868C34.4708 92.7717 34.5552 92.5678 34.6873 92.3959C34.8194 92.2239 34.9945 92.09 35.195 92.0076L35.5252 91.8496C35.5252 91.8496 35.5431 91.9771 35.556 92.0682C35.6813 92.4552 35.8397 92.8307 36.0296 93.1905C36.3788 94.0152 36.9762 94.7104 37.7384 95.1792C38.0351 95.3211 38.3581 95.3991 38.6867 95.4084C39.0153 95.4176 39.3422 95.3577 39.6462 95.2326C39.9503 95.1074 40.2247 94.9198 40.4518 94.6819C40.6789 94.4439 40.8536 94.1608 40.9647 93.851C41.0943 93.2325 41.0034 92.5879 40.7078 92.0293C40.5204 91.6255 40.2612 91.2591 39.9432 90.948C39.6661 90.7049 39.3291 90.5407 38.9671 90.4725C38.6581 90.442 38.3462 90.486 38.0576 90.6007L38.0371 90.455L39.4984 89.6358L38.3406 87.4766L37.2487 88.0207L37.6987 89.2393L34.8568 90.6618C34.4755 90.8377 34.1361 91.0929 33.8609 91.4103C33.5858 91.7278 33.3814 92.1003 33.2612 92.5031C33.1062 93.4957 33.2953 94.5116 33.797 95.3818L34.4546 96.7568L35.7258 96.2989L34.9414 94.5515C34.6373 94.0845 34.465 93.5438 34.4426 92.9868ZM38.7138 91.3072C39.0333 91.5626 39.289 91.8892 39.4604 92.2609C39.6132 92.5713 39.6627 92.9224 39.6017 93.2629C39.5666 93.4051 39.4998 93.5376 39.4065 93.6504C39.3133 93.7633 39.1958 93.8537 39.0628 93.9148C38.3348 94.2776 37.6834 93.8677 37.0358 92.6956L36.6371 91.8415C36.5633 91.6762 36.5079 91.5033 36.4716 91.3259L36.8539 91.1419C37.1144 91.0417 37.3944 91.0022 37.6725 91.0265C38.0388 91.021 38.3995 91.1183 38.7138 91.3072Z" fill="black"/>
<path d="M34.3604 87.6661C34.8888 87.5642 35.391 87.3559 35.8363 87.0535C36.2816 86.7512 36.6609 86.3612 36.9509 85.9074C37.4486 84.9234 37.5408 83.783 37.208 82.7312C37.1541 82.3487 36.9885 81.9633 36.8566 81.5546C36.7311 81.1632 36.5781 80.7812 36.3987 80.4114L35.1352 80.924C35.2724 81.239 35.4096 81.5542 35.5312 81.8901C35.6518 82.223 35.7553 82.5619 35.8412 82.9054C35.9536 83.2499 35.9968 83.6133 35.9681 83.9745C35.9395 84.3357 35.8395 84.6876 35.6741 85.0099C35.2586 85.5655 34.6731 85.9696 34.0068 86.1608C33.3405 86.352 32.6299 86.3198 31.9834 86.069C31.7132 85.9149 31.4799 85.7035 31.2999 85.4497C31.1199 85.1958 30.9976 84.9056 30.9414 84.5995C30.8396 84.2278 30.842 83.8354 30.9484 83.4652C31.0512 83.0834 31.2515 82.7351 31.5294 82.4543L30.38 81.5387C29.9417 81.8827 29.642 82.3735 29.536 82.921C29.3955 83.5698 29.4203 84.2436 29.6082 84.8803C29.7028 85.3972 29.9037 85.8889 30.1982 86.3239C30.4926 86.759 30.8742 87.128 31.3187 87.4075C31.784 87.6486 32.2921 87.7956 32.814 87.84C33.336 87.8844 33.8614 87.8252 34.3604 87.6661Z" fill="black"/>
<path d="M29.9675 79.5345L29.9107 77.6845L32.5868 77.5859L33.2962 77.4859C33.7137 77.5073 34.131 77.4421 34.522 77.2943C34.913 77.1464 35.2692 76.9192 35.5682 76.6268C36.0734 75.8836 36.2893 74.9807 36.1751 74.0887C36.1454 73.7525 36.0983 73.4181 36.0338 73.0868C35.9902 72.7771 35.944 72.4492 35.8952 72.1031L34.5673 72.2903C34.6161 72.6364 34.6598 72.946 34.6983 73.2193C34.7368 73.4926 34.7702 73.7294 34.8036 73.9663C34.8844 74.4808 34.7583 75.0063 34.453 75.4278C34.2865 75.5972 34.0859 75.7291 33.8644 75.8148C33.643 75.9004 33.4059 75.9379 33.1689 75.9246L32.5323 76.0144L29.838 76.1155L29.7215 72.6575L28.3756 72.7172L28.5103 76.1726L26.2214 76.2538L26.2683 77.7706L28.5572 77.6895L28.6322 79.5369L29.9675 79.5345Z" fill="black"/>
<path d="M37.3926 61.9333C37.7108 61.8054 37.9979 61.611 38.2348 61.3629C38.4718 61.1148 38.6532 60.8188 38.7666 60.4948C38.9535 60.0689 38.9908 59.5922 38.8727 59.1421C38.722 58.6898 38.4257 58.3002 38.0301 58.0346L38.0147 57.9253L39.474 58.407L40.3377 56.1115L39.2161 55.6564L38.6769 56.5686L37.0802 55.9019L32.9029 54.1683L32.3239 55.5877L36.1247 57.1513C36.7087 57.3473 37.2198 57.7157 37.5908 58.208C37.6939 58.4221 37.7482 58.6564 37.7496 58.8941C37.751 59.1317 37.6995 59.3666 37.599 59.5817C37.4691 59.9426 37.2053 60.2393 36.8624 60.4102C36.6896 60.479 36.5045 60.5114 36.3187 60.5057C36.1328 60.4999 35.9501 60.4561 35.7818 60.3768L31.1501 58.4472L30.5685 59.8484L35.2001 61.7779C35.5367 61.949 35.9042 62.0509 36.2807 62.0776C36.6573 62.1042 37.0353 62.0552 37.3926 61.9333Z" fill="black"/>
<path d="M37.9588 52.3965C38.5329 52.1904 39.0562 51.8631 39.4932 51.437L40.8486 50.2612C41.0038 50.1131 41.1917 50.0038 41.3972 49.9423C41.4898 49.9249 41.5853 49.9293 41.6759 49.9552C41.7665 49.9811 41.8497 50.0279 41.9192 50.0917C42.0499 50.1813 42.1483 50.3108 42.1995 50.461C42.2508 50.6111 42.2522 50.7738 42.2036 50.9248C42.06 51.4719 41.8034 51.9828 41.4504 52.4244C41.241 52.7278 41.016 53.0201 40.7761 53.2999L39.8782 54.2997L40.9002 55.2333C41.1784 54.9752 41.4368 54.6966 41.6731 54.3997C41.9906 54.0208 42.2878 53.6254 42.5636 53.2151C43.1925 52.4408 43.5999 51.5101 43.7423 50.5221C43.7635 50.1744 43.6856 49.8276 43.5178 49.5224C43.3499 49.2171 43.099 48.9659 42.7942 48.7978C42.593 48.633 42.3573 48.5158 42.1046 48.4549C41.8519 48.3941 41.5887 48.3911 41.3347 48.4462C40.69 48.6426 40.1027 48.9931 39.6236 49.4677L38.5336 50.4203C38.3532 50.6032 38.1419 50.7525 37.9094 50.8613C37.8228 50.8989 37.7275 50.9118 37.6341 50.8988C37.5406 50.8858 37.4525 50.8472 37.3794 50.7874C37.2453 50.6912 37.1475 50.5526 37.1016 50.3939C37.0557 50.2353 37.0643 50.0658 37.1262 49.9127C37.3188 49.3194 37.6106 48.7631 37.9889 48.2676L38.5019 47.5636L39.15 46.7662L38.172 45.8822C37.935 46.1129 37.7158 46.3612 37.5161 46.6249C37.2923 46.89 37.0837 47.1676 36.8912 47.4562C36.2234 48.2811 35.7805 49.2653 35.6058 50.3129C35.5632 50.6738 35.6282 51.0393 35.7928 51.3633C35.9573 51.6873 36.2139 51.9553 36.5303 52.1334C36.7286 52.2913 36.9627 52.3979 37.2118 52.4438C37.4609 52.4897 37.7174 52.4734 37.9588 52.3965Z" fill="black"/>
<path d="M50.8399 39.2842C51.1636 39.4661 51.5283 39.5618 51.8994 39.5621C52.2711 39.5629 52.6356 39.4601 52.9521 39.2652C53.2759 39.0712 53.5439 38.7966 53.7302 38.468C53.8999 38.1411 53.9888 37.7781 53.9891 37.4096C53.9876 37.0316 53.884 36.6611 53.6895 36.3371C53.5025 36.0129 53.2272 35.7488 52.8958 35.5757C52.5808 35.3886 52.2205 35.2916 51.8544 35.2952C51.4768 35.2957 51.1066 35.3993 50.7836 35.5948C50.4598 35.7888 50.1918 36.0634 50.0055 36.3919C49.8358 36.7188 49.7469 37.0818 49.7465 37.4503C49.7481 37.826 49.8504 38.1943 50.0428 38.5169C50.2351 38.8395 50.5104 39.1045 50.8399 39.2842Z" fill="black"/>
</g>
<defs>
<filter id="filter0_d_21_156" x="10.6912" y="10.7171" width="126.028" height="126.028" filterUnits="userSpaceOnUse" color-interpolation-filters="sRGB">
<feFlood flood-opacity="0" result="BackgroundImageFix"/>
<feColorMatrix in="SourceAlpha" type="matrix" values="0 0 0 0 0 0 0 0 0 0 0 0 0 0 0 0 0 0 127 0" result="hardAlpha"/>
<feOffset dy="1"/>
<feGaussianBlur stdDeviation="1.5"/>
<feComposite in2="hardAlpha" operator="out"/>
<feColorMatrix type="matrix" values="0 0 0 0 0 0 0 0 0 0 0 0 0 0 0 0 0 0 0.4 0"/>
<feBlend mode="normal" in2="BackgroundImageFix" result="effect1_dropShadow_21_156"/>
<feBlend mode="normal" in="SourceGraphic" in2="effect1_dropShadow_21_156" result="shape"/>
</filter>
<clipPath id="clip0_21_156">
<rect width="96" height="93" fill="white" transform="translate(19.9785 33.1561) rotate(-8.02466)"/>
</clipPath>
</defs>
</svg>
