<svg width="62" height="146" viewBox="0 0 62 146" fill="none" xmlns="http://www.w3.org/2000/svg">
<g clip-path="url(#clip0_42_30)">
<path d="M20.6579 134.981C20.6321 132.944 20.0044 130.96 18.8539 129.279C17.7034 127.597 16.0814 126.294 14.1919 125.532C12.3024 124.77 10.2298 124.584 8.23485 124.998C6.23991 125.411 4.41172 126.405 2.98024 127.854C1.54875 129.304 0.577915 131.144 0.189851 133.144C-0.198212 135.144 0.013833 137.214 0.799304 139.094C1.58478 140.974 2.90859 142.579 4.60423 143.709C6.29988 144.838 8.29161 145.441 10.3289 145.441C11.6964 145.441 13.0503 145.169 14.312 144.642C15.5738 144.115 16.7183 143.342 17.6792 142.369C18.6401 141.396 19.3981 140.242 19.9095 138.974C20.4208 137.706 20.6752 136.348 20.6579 134.981Z" fill="white"/>
<path d="M41.3421 93.6652C41.3077 96.4165 40.1905 99.0435 38.2326 100.977C36.2748 102.91 33.6339 103.994 30.8823 103.994C28.1307 103.994 25.4899 102.91 23.532 100.977C21.5742 99.0435 20.457 96.4165 20.4226 93.6652C20.4226 91.6223 19.8168 89.6253 18.6819 87.9267C17.5469 86.2281 15.9337 84.9042 14.0464 84.1224C12.159 83.3407 10.0822 83.1361 8.07854 83.5347C6.07491 83.9332 4.23447 84.9169 2.78993 86.3615C1.3454 87.806 0.361665 89.6464 -0.0368806 91.6501C-0.435426 93.6537 -0.230879 95.7305 0.550897 97.6179C1.33267 99.5053 2.65657 101.118 4.35516 102.253C6.05375 103.388 8.05074 103.994 10.0936 103.994C12.8225 104.028 15.4301 105.127 17.3598 107.057C19.2896 108.987 20.3887 111.594 20.4226 114.323C20.4226 117.097 21.5246 119.758 23.4862 121.719C25.4478 123.681 28.1082 124.783 30.8823 124.783C33.6339 124.783 36.2748 125.867 38.2326 127.8C40.1905 129.733 41.3077 132.36 41.3421 135.112C41.3161 137.186 41.9075 139.221 43.0409 140.958C44.1744 142.695 45.7988 144.056 47.7076 144.868C49.6164 145.68 51.7235 145.906 53.761 145.517C55.7986 145.128 57.6745 144.143 59.1504 142.685C60.6264 141.228 61.6356 139.364 62.0499 137.332C62.4642 135.299 62.2649 133.189 61.4772 131.271C60.6895 129.352 59.349 127.71 57.6262 126.555C55.9034 125.4 53.876 124.783 51.8018 124.783C49.0624 124.783 46.4351 123.695 44.4981 121.758C42.561 119.821 41.4728 117.193 41.4728 114.454C41.4728 111.714 42.561 109.087 44.4981 107.15C46.4351 105.213 49.0624 104.125 51.8018 104.125C53.876 104.125 55.9034 103.508 57.6262 102.353C59.349 101.197 60.6895 99.556 61.4772 97.6371C62.2649 95.7182 62.4642 93.6085 62.0499 91.576C61.6356 89.5435 60.6263 87.6801 59.1504 86.2227C57.6745 84.7652 55.7986 83.7795 53.761 83.3907C51.7235 83.002 49.6164 83.2279 47.7076 84.0397C45.7988 84.8514 44.1744 86.2124 43.0409 87.9496C41.9074 89.6868 41.3161 91.7218 41.3421 93.7959L41.3421 93.6652Z" fill="white"/>
<path d="M41.342 52.3231C41.342 54.3919 41.9555 56.4141 43.1048 58.1342C44.2541 59.8543 45.8877 61.195 47.799 61.9866C49.7103 62.7783 51.8134 62.9855 53.8423 62.5819C55.8713 62.1783 57.7351 61.1821 59.1979 59.7193C60.6607 58.2565 61.6569 56.3927 62.0605 54.3637C62.4641 52.3347 62.257 50.2316 61.4653 48.3204C60.6736 46.4091 59.3329 44.7755 57.6129 43.6262C55.8928 42.4769 53.8705 41.8634 51.8018 41.8634C49.0277 41.8634 46.3672 42.9654 44.4056 44.927C42.444 46.8886 41.342 49.549 41.342 52.3231Z" fill="white"/>
<path d="M20.658 11.0072C20.658 8.96433 20.0522 6.96733 18.9172 5.26874C17.7822 3.57015 16.1691 2.24626 14.2817 1.46449C12.3943 0.682712 10.3175 0.478166 8.31389 0.876711C6.31027 1.27526 4.46982 2.25898 3.02529 3.70351C1.58075 5.14805 0.597019 6.98848 0.198473 8.99211C-0.200073 10.9957 0.00447413 13.0726 0.78625 14.9599C1.56803 16.8473 2.89192 18.4605 4.59051 19.5954C6.2891 20.7304 8.2861 21.3362 10.329 21.3362C13.0684 21.3362 15.6956 20.248 17.6327 18.3109C19.5697 16.3739 20.658 13.7466 20.658 11.0072Z" fill="white"/>
<path d="M41.3421 11.0072C41.3077 13.7586 40.1905 16.3856 38.2327 18.319C36.2748 20.2524 33.634 21.3364 30.8824 21.3362C28.1083 21.3362 25.4478 22.4382 23.4862 24.3998C21.5246 26.3613 20.4226 29.0218 20.4226 31.7959C20.3887 34.5248 19.2896 37.1323 17.3599 39.0621C15.4301 40.9919 12.8225 42.091 10.0937 42.1249C7.61884 42.4993 5.36033 43.7487 3.72819 45.6463C2.09604 47.544 1.19848 49.964 1.19848 52.4669C1.19849 54.9699 2.09604 57.3899 3.72819 59.2875C5.36033 61.1852 7.61884 62.4346 10.0937 62.809C11.4622 62.8054 12.8177 63.0744 14.081 63.6004C15.3444 64.1264 16.4903 64.8988 17.4519 65.8726C18.4135 66.8463 19.1714 68.0018 19.6815 69.2717C20.1915 70.5416 20.4435 71.9004 20.4227 73.2687C20.4227 75.3374 21.0361 77.3597 22.1854 79.0798C23.3348 80.7999 24.9683 82.1406 26.8796 82.9322C28.7909 83.7239 30.894 83.931 32.923 83.5274C34.9519 83.1239 36.8157 82.1277 38.2785 80.6649C39.7413 79.202 40.7375 77.3383 41.1411 75.3093C41.5447 73.2803 41.3376 71.1772 40.5459 69.2659C39.7542 67.3547 38.4136 65.7211 36.6935 64.5718C34.9734 63.4224 32.9511 62.809 30.8824 62.809C29.3935 63.0342 27.8735 62.9353 26.4263 62.519C24.9791 62.1027 23.6389 61.3789 22.4972 60.3969C21.3556 59.415 20.4394 58.1981 19.8113 56.8295C19.1832 55.4609 18.8581 53.9728 18.8581 52.4669C18.8581 50.9611 19.1832 49.473 19.8113 48.1043C20.4394 46.7357 21.3556 45.5189 22.4972 44.5369C23.6389 43.555 24.9791 42.8311 26.4263 42.4148C27.8735 41.9985 29.3935 41.8996 30.8824 42.1249C33.634 42.1251 36.2748 41.0411 38.2327 39.1077C40.1905 37.1743 41.3077 34.5473 41.3421 31.7959C41.3421 29.0218 42.4441 26.3613 44.4057 24.3998C46.3672 22.4382 49.0277 21.3362 51.8018 21.3362C53.8389 21.3104 55.8229 20.6828 57.5042 19.5322C59.1855 18.3817 60.489 16.7597 61.2508 14.8702C62.0126 12.9807 62.1986 10.9081 61.7854 8.91318C61.3722 6.91825 60.3783 5.09003 58.9287 3.65854C57.4791 2.22706 55.6385 1.25624 53.6385 0.868169C51.6386 0.480108 49.5685 0.692144 47.6887 1.47761C45.809 2.26309 44.2034 3.5869 43.0742 5.28255C41.9449 6.97819 41.3423 8.96994 41.3421 11.0072Z" fill="white"/>
</g>
<defs>
<clipPath id="clip0_42_30">
<rect width="144.632" height="62" fill="white" transform="translate(0 145.31) rotate(-90)"/>
</clipPath>
</defs>
</svg>
